<?xml version="1.0" encoding="utf-8"?>
<!-- Generator: Adobe Illustrator 19.1.0, SVG Export Plug-In . SVG Version: 6.00 Build 0)  -->
<svg version="1.1" id="Layer_1" xmlns="http://www.w3.org/2000/svg" xmlns:xlink="http://www.w3.org/1999/xlink" x="0px" y="0px"
	 viewBox="0 0 1445.2 375.9" style="enable-background:new 0 0 1445.2 375.9;" xml:space="preserve">
<style type="text/css">
	.st0{fill-rule:evenodd;clip-rule:evenodd;fill:#FED444;}
</style>
<g id="ketchup">
	<path id="curves" class="st0" d="M991.3,67.4c-4.9,2.2-19,8.6-28.9,15.6c-37.3,26.2-84.5,72.4-134.6,120.3
		C775.1,253.7,702.6,325.6,644.2,357c-35.3,19-67.8,23.5-92.3,14.3c-20.2-7.6-32-23.2-32.3-48.3c-0.3-22,14.3-59.6,25.8-99.7
		c5.8-20.3,11.9-43.2,11.1-63.4c-0.4-10.2-2.1-19.9-12.2-24.4c-3.3-1.5-7.1-0.4-11.3,0.6c-6.2,1.4-12.7,3.9-19.4,7.1
		c-31.8,15-66.6,43.7-94.5,68.5c-77.3,68.7-150.7,120-200.9,137.2c-33.1,11.3-59.8,8.9-77.9-1.8c-14.8-8.7-23.9-22.2-27.3-39.8
		c-2.8-14.7-0.9-33.6,3.1-52.7c1.7-8.1,3.8-19.1,5.5-28c-8.5-4.1-15.3-11.5-18.2-21c-5.3-17.8,5.4-36.2,23.9-41.1
		c17.6-4.7,30.3-2.3,39.2,1.6c9.9,4.4,17.3,11.4,22.1,20.9c3.8,7.4,6,17.5,5.4,29.6c-0.7,13.9-5.6,33-9.6,51.8
		c-1.3,6.1-2.1,14.7-2.5,20.6c1.2-0.2,2.5-0.4,3.6-0.6c7.9-1.9,16.6-5.3,26.2-9.9c43.4-20.7,99.8-63.1,159.5-116
		C410,128,460.8,88.7,503,74.7c26.3-8.7,50.5-8.6,70.3,0.3c30,13.4,45.4,36.5,50.9,64.6c6,30.5-2,68.9-11.4,102l-18.4,64.1
		c11.5-4.3,23.9-11.6,36.9-20.4C680.7,251.7,736,196,778.3,155.6C840.8,95.9,899.9,39.1,942,15.4c29.8-16.8,55.6-18.6,73.8-11.2
		c29.9,12.3,43.4,35,46.7,63.5c2.2,18.9-1.1,41-5,62.4c-5.8,31.5-17,64-24.6,90.5l0.2-0.1c30-21.8,63.5-57.3,84.1-82
		c35.1-42.1,64.2-80,88.7-94.7c21.2-12.7,41.4-14,60.5-5.4c22.7,10.2,35,27.6,39.4,49.9c2.7,13.5,1.7,29.6-1.5,46.3
		c4.8-1.8,10.2-2.5,15.7-2c19.2,1.9,33.4,18.3,31.6,36.6c-1.1,12-6.8,26.4-16.4,40.2c-11.9,17-29.5,33.2-45.9,42.3
		c-20.4,11.3-40.6,11.9-54.9,5.9c-12.3-5.2-21.4-14.7-24.2-30.4c-1.6-9,0.5-24.8,6.6-43.8c6.2-19.1,16.2-43.9,19.7-66.2
		c0.7-4.2,1.1-8.2,1-12c-2.7,2.1-5.5,4.5-7.8,6.8c-16.9,16.9-35.8,42-57.9,68.6c-27.8,33.4-76.6,83.2-114.9,105.6
		c-27.3,15.9-52.7,18.3-69.9,11.4c-19.5-7.8-32.8-26.3-29.8-57.3c2.8-28.2,22.8-76.3,31.4-122.4c2.3-12.5,4.7-25.3,4.7-37
		C993.4,75.6,994.3,70.5,991.3,67.4L991.3,67.4z"/>
	<path id="circle-2" class="st0" d="M100.2,71c-2.3-13.3-34.8-51.8-77.8-26.2C2,56.8-10.3,94.4,11.6,118.3
		c14,15.3,33.4,20.3,57.9,5.3C95.1,108,104.2,94.2,100.2,71L100.2,71z"/>
	<path id="circle-1" class="st0" d="M1350.5,40.7c-6,12.4-3.7,61.3,43.7,61.9c22.4,0.3,53.6-25,50.9-56.2
		c-1.7-20-13.5-34.2-40.7-34.1C1375.8,12.3,1360.9,19.2,1350.5,40.7L1350.5,40.7z"/>
</g>
</svg>
