<?xml version="1.0" encoding="utf-8"?>
<!-- Generator: Adobe Illustrator 19.1.0, SVG Export Plug-In . SVG Version: 6.00 Build 0)  -->
<svg version="1.1" id="_x2018_ëîé_x5F_1" xmlns="http://www.w3.org/2000/svg" xmlns:xlink="http://www.w3.org/1999/xlink"
	 x="0px" y="0px" viewBox="0 0 1740 473" style="enable-background:new 0 0 1740 473;" xml:space="preserve">
<style type="text/css">
	.st0{fill-rule:evenodd;clip-rule:evenodd;fill:#DB8B2A;}
	.st1{fill-rule:evenodd;clip-rule:evenodd;fill:#E3E82D;}
	.st2{fill-rule:evenodd;clip-rule:evenodd;fill:#F3C6EF;}
	.st3{fill-rule:evenodd;clip-rule:evenodd;fill:#FDE7FC;}
	.st4{fill-rule:evenodd;clip-rule:evenodd;fill:#A55669;}
	.st5{fill-rule:evenodd;clip-rule:evenodd;fill:#8E3A4F;}
	.st6{fill-rule:evenodd;clip-rule:evenodd;fill:#57271B;}
	.st7{fill-rule:evenodd;clip-rule:evenodd;fill:#7F3C22;}
	.st8{fill-rule:evenodd;clip-rule:evenodd;fill:#FFD140;}
	.st9{fill-rule:evenodd;clip-rule:evenodd;fill:#DB150C;}
	.st10{fill-rule:evenodd;clip-rule:evenodd;fill:#EF442A;}
	.st11{fill-rule:evenodd;clip-rule:evenodd;fill:#B02018;}
	.st12{fill-rule:evenodd;clip-rule:evenodd;fill:#646614;}
	.st13{fill-rule:evenodd;clip-rule:evenodd;fill:#FFFFFF;}
	.st14{fill:#FFFFFF;}
</style>
<g>
	<path class="st0" d="M0,92.7c13.4,22.5,18.8,65.7,18.4,107.8c-0.8,84.9-2.8,157.8,88.5,215.7c54.8,34.7,153.6,47.1,279.6,52.4
		c149.9,6.3,327.6,5.4,443.3,1.6c212.3-7,574.8-24.3,696-54.3C1696.6,373.3,1742.1,49.9,1739.9,0L0,92.7L0,92.7z"/>
	<g>
		<path class="st13" d="M1555.6,372.7c-2.1-1.4-4.8-1.2-6.3,0.7c-0.5,0.7-1.3,2-1.4,3.3c-0.3,2.5,1.2,4.1,3.5,5
			c1.7,0.6,3.6-0.5,4.6-2.5C1557.1,377,1557.3,373.8,1555.6,372.7z"/>
		<path class="st13" d="M1539.2,351c-1.4-0.9-3-0.5-4.2,0.7c-0.7,0.7-1.3,1.7-1.5,2.6c-0.3,0.8-0.3,1.5-0.2,2.1
			c0.3,1.5,1.4,2.5,2.6,2.8c1.8,0.5,3-0.1,4-1.9c0.8-1.5,0.9-3.2,0.9-3.9C1540.6,352.3,1540.1,351.5,1539.2,351z"/>
		<path class="st13" d="M500,422.8c-1.4,0.2-2,0.9-2.5,1.5c-0.4,0.7-0.5,1.7-0.3,2.8c0.3,1.3,1.7,2.2,3.1,1.8c1-0.3,1.8-0.3,2.3-1.5
			c0.4-0.8,0.3-1.8,0.2-2.6C502.7,423.5,501.4,422.6,500,422.8z"/>
		<path class="st13" d="M369.4,80.7c0.5-1.1,0.5-2.4,0.5-2.8c-0.3-1.4-1.6-2.3-3-2.1c-0.6,0.1-1.3,0.4-1.8,1.2
			c-0.3,0.5-0.6,1.5-0.7,1.9c-0.3,1.4,0.6,2.7,2,3C368,82.3,368.9,81.6,369.4,80.7z"/>
		<path class="st13" d="M510.3,385.9c-1.6-0.3-2.9,0.2-3.9,1.5c-0.7,0.9-1.5,4.6-0.9,7.1c0.4,1.6,1.4,2.3,2.5,2.6c1,0.3,2.1,0,3-0.8
			c0.9-0.7,1.7-2.3,2.1-4c0.4-1.8,0.2-3.6-0.4-4.7C512.1,386.7,511.3,386.1,510.3,385.9z"/>
		<path class="st13" d="M63.9,204.8c-1-0.4-2.2-0.6-3.5-0.2c-0.6,0.2-2.1,0.5-3.2,2.5c-0.6,1.1-0.8,2.3-0.6,3.4
			c0.2,2.6,2.4,4.7,5.2,4.7c1.7,0,3.6-0.9,4.6-2.6c0.7-1.2,1-2.8,0.4-4.8C66.2,206.1,64.9,205.2,63.9,204.8z"/>
		<path class="st13" d="M352.4,149.9c-2.1-0.1-4,0.7-4.5,3.2c-0.1,0.7-0.1,1.4,0.1,2.2c0.7,2.1,3.1,3.3,5.3,2.6l0.1,0
			c1.5-0.3,2.3-1.4,2.6-2.5c0.3-1.1,0.3-2.2,0.2-2.3C355.9,151.2,354.5,150,352.4,149.9z"/>
		<path class="st13" d="M60.8,159.6c0.3-2.7-0.4-6.5-4.5-7.1c-2.4-0.4-4.9,0.4-6.9,2.2c-2.6,2.3-4.1,6-3.6,8.8
			c0.2,1,1.4,3.5,2.9,4.5c1.7,1.2,3.6,1.3,5.4,0.2c0.4-0.2,0.8-0.5,1.2-0.8C58,165.7,60.5,162.3,60.8,159.6z"/>
		<path class="st13" d="M371.4,348.5c-1.5,0.3-2.9,2.3-3,3.7c0,0.6,0.2,1.7,1.9,2.5c1.7,0.9,3.8,0.2,4.6-1.4
			c0.3-0.6,0.4-1.2,0.4-1.8C374.8,348.9,372.7,348.2,371.4,348.5z"/>
		<path class="st13" d="M1352.6,50.8c-2.1-1.4-4.8-1.2-6.3,0.7c-0.5,0.7-1.3,2-1.4,3.3c-0.3,2.5,1.2,4.1,3.5,5
			c1.7,0.6,3.6-0.5,4.6-2.5C1354.1,55.1,1354.4,51.9,1352.6,50.8z"/>
		<path class="st13" d="M1332,30.4c-0.1-0.8-0.5-1.5-1.2-1.9c-1.2-0.7-2.4-0.4-3.4,0.6c-0.6,0.6-1,1.4-1.3,2.1
			c-0.2,0.7-0.3,1.3-0.2,1.7c0.2,1.2,1.2,2.1,2.1,2.3c1.5,0.4,2.5-0.1,3.3-1.6C1332,32.4,1332.1,30.9,1332,30.4z"/>
	</g>
</g>
</svg>
