<?xml version="1.0" encoding="utf-8"?>
<!-- Generator: Adobe Illustrator 19.1.0, SVG Export Plug-In . SVG Version: 6.00 Build 0)  -->
<svg version="1.1" id="Layer_1" xmlns="http://www.w3.org/2000/svg" xmlns:xlink="http://www.w3.org/1999/xlink" x="0px" y="0px"
	 viewBox="0 0 183.2 93.2" style="enable-background:new 0 0 183.2 93.2;" xml:space="preserve">
<style type="text/css">
	.st0{fill:#97DD24;}
	.st1{fill:#E05C46;}
	.st2{fill:#FAB239;}
	.st3{fill:#8BC53F;}
	.st4{fill:#CCEF89;}
	.st5{fill:#FECF83;}
	.st6{fill:#FE6600;}
	.st7{fill:#892F64;}
	.st8{fill:#FFFFFF;}
	.st9{fill:#E04B2C;}
	.st10{fill:#6E2F8C;}
	.st11{fill:#FDC400;}
	.st12{fill:#E5FCBB;}
	.st13{fill:#FFEFDC;}
	.st14{fill:#F48371;}
	.st15{fill:#FF9300;}
	.st16{fill:#FFAD4A;}
	.st17{fill:#F7D5EE;}
	.st18{fill:#AF6D9B;}
	.st19{fill:#E2AA59;}
</style>
<g>
	<g>
		<g>
			<g>
				<path class="st2" d="M181.8,69c-1-7.2-2.6-14.4-5.6-20.8c-5.8-12.7-16.3-21.8-26.4-30.4c-3.1-2.6-6.2-5.3-9.7-7.3
					c-5.4-3.1-11.4-4.6-17.3-5.6c-18.3-3.2-37.1-3.1-55.5-0.1C53.1,7.1,37.5,10,25.8,20.1C14.1,30.2,7.9,46,3.1,62
					c-2.5,8.3,2.1,17,10.3,19.6c3.5,1.1,7.1,1.8,10.6,2.3c25,3.6,50.1,6.9,75.3,6.8c25.2,0,50.6-3.4,74.4-12.7
					c3.6-1.4,7.8-4,7.8-8.4L181.8,69z"/>
			</g>
		</g>
		<g>
			<g>
				<g>
					<path class="st7" d="M183.1,69c-1.5-14.5-6.2-27-15.8-38c-8.4-9.6-19.9-20.8-32-25.4C119.5-0.3,100.5-0.6,84,0.5
						c-15.1,1-31.3,3.1-45.3,9C25.5,15,16.1,24.9,9.8,37.6c-4.9,9.8-13.1,25-8.3,36.1c5.7,13.2,23.1,12.8,35.1,14.4
						c18.3,2.5,36.8,4.6,55.3,5c19,0.5,38-0.8,56.6-4.9c9.8-2.1,34.3-5.2,34.7-18.6c0.1-1.9-2.6-2.1-3.2-0.4
						c-2.7,8.2-16.5,10.1-24.1,12.1c-9.1,2.4-18.3,4.2-27.7,5.3c-17.1,2-34.3,2-51.4,0.8c-17.4-1.2-34.8-3.2-52-6
						c-13.7-2.2-22-7.3-18.3-22c2-8.1,5.6-16.5,9.8-23.6C33.7,5.9,77,3.1,108.1,5.5c8.5,0.6,17.8,1.6,25.9,4.7
						c8.1,3.1,14.8,9.6,21.2,15.3c13.9,12.5,21.7,25.4,25.4,43.8C180.9,70.7,183.3,70.4,183.1,69L183.1,69z"/>
				</g>
			</g>
		</g>
	</g>
	<g>
		<g>
			<g>
				<path class="st7" d="M55.4,15.8c-2.5,1.2-4.5,3.7-2.6,6.3c1.9,2.6,5.4,1.8,7.6,0.1c2-1.5,3-4.3,0.8-6.1
					c-1.8-1.5-5.2-1.6-6.6,0.4c-0.2,0.3,0.3,0.7,0.5,0.4c1.2-1,3.8-0.8,5,0.3c1.7,1.6-0.4,3-1.8,3.6c-1.3,0.6-3.3,1.2-4.1-0.5
					c-0.6-1.5,0.7-2.8,1.7-3.7C56.6,16.3,56,15.6,55.4,15.8L55.4,15.8z"/>
			</g>
		</g>
	</g>
	<g>
		<g>
			<g>
				<path class="st7" d="M34.8,24.4c-2.3-0.5-4.4,1.3-4.2,3.7c0.1,2.7,2.9,3.2,5.1,2.9c2.1-0.3,5.5-1.8,5.8-4.2
					c0.3-2.4-2.2-3.8-4.1-2.7c-0.3,0.2-0.3,0.7,0.1,0.7c1.4,0.2,3.5,1.1,1.9,2.5c-0.8,0.7-2.2,1-3.2,1.3c-0.9,0.3-2.2,0.8-3.1,0.4
					c-1.2-0.5-1.1-2.2-0.3-3c0.5-0.5,1.4-0.9,2-1.1C35,24.8,35,24.4,34.8,24.4L34.8,24.4z"/>
			</g>
		</g>
	</g>
	<g>
		<g>
			<g>
				<path class="st7" d="M95,22.7c-2.8-1.8-5.3,0.6-6.1,3.3c-0.4,1.5-0.7,3.3-0.1,4.8c0.7,1.6,2.2,1.7,3.7,1.8
					c3.4,0.3,7.1,0.6,8.9-2.9c1.1-2.1,0.2-5.8-2.7-5.5c-0.7,0.1-1,1.2-0.2,1.4c1.4,0.3,2,2,1.2,3.2c-0.3,0.5-1.3,0.9-1.9,1.1
					c-1.3,0.4-2.8,0.2-4.1,0.1c-2-0.2-2.7-1.2-2.3-3.2c0.3-1.5,1.5-3.1,3.2-2.9C95.4,23.9,95.5,23,95,22.7L95,22.7z"/>
			</g>
		</g>
	</g>
	<g>
		<g>
			<g>
				<path class="st7" d="M67.5,26.4c-2.1-0.1-3.7,1.6-3.9,3.6c-0.3,2.5,1.4,4.5,3.8,5c2.2,0.4,4.8-0.2,6.2-2
					c1.3-1.7,1.4-4.1-0.4-5.4c-0.3-0.2-0.7,0.1-0.6,0.5c1,2.8-1.5,4.8-4.1,4.4c-1-0.2-2.1-0.8-2.3-1.9c-0.2-1.1,0.4-2.4,1.5-2.7
					C68.5,27.6,68.3,26.5,67.5,26.4L67.5,26.4z"/>
			</g>
		</g>
	</g>
	<g>
		<g>
			<g>
				<path class="st7" d="M79.6,12.1c-2.3-0.2-5.9,1.5-5.3,4.3c0.6,3.2,5.2,3.5,7.7,3.2c2.3-0.3,5.8-1.4,5.8-4.2
					c0-2.9-3.4-4.6-5.9-3.6c-0.4,0.2-0.5,0.8,0,1c0.7,0.2,0.6,0.1,1.2,0.2c0.5,0,1.1,0,1.6,0.1c0.6,0.6,1.2,1.2,1.9,1.8
					c0.1,1.2-1.2,2.2-2.2,2.4c-0.6,0.2-1.3,0.3-1.9,0.4c-1.6,0.3-3.3,0.5-4.9-0.1c-3.5-1.4-0.8-4.8,2-5C80,12.6,80,12.2,79.6,12.1
					L79.6,12.1z"/>
			</g>
		</g>
	</g>
	<g>
		<g>
			<g>
				<path class="st7" d="M116.8,15.6c-2.6-1.1-6.3-1.6-7.4,1.8c-1.1,3.4,2,6.1,5.1,6.6c2.8,0.5,7.6,0.5,9.5-2c1.9-2.5-0.4-5.6-3-6.1
					c-0.5-0.1-1,0.5-0.5,0.9c0.5,0.5,1,0.9,1.5,1.3c0.8,0.4,1,1,0.5,1.8c0.2,0.8-0.1,1.2-0.7,1.3c-1.2,0.8-3.4,0.7-4.7,0.7
					c-1.6,0-4.3-0.2-5-2c-1.2-3.3,2.4-3.6,4.7-3.5C117,16.5,117.3,15.8,116.8,15.6L116.8,15.6z"/>
			</g>
		</g>
	</g>
	<g>
		<g>
			<g>
				<path class="st7" d="M132.9,29.1c-2.6-0.9-5.9-0.2-5.5,3.3c0.4,3.3,5.2,4.4,7.9,4.9c2.4,0.4,6.7,1.1,7.3-2.2
					c0.7-3.4-3.7-5.5-6.3-6c-0.8-0.2-1.3,0.9-0.6,1.4c1.2,0.8,2.9,1.3,3.9,2.5c0.8,0.3,0.9,0.8,0.4,1.5c0.1,0.7-0.2,1-0.7,0.9
					c-0.6,0.3-2.5-0.1-2.9-0.2c-1.2-0.2-2.4-0.5-3.6-0.9c-1.5-0.5-2-0.6-2.4-2.2c-0.8-1.1-0.6-1.7,0.7-1.9c0.5-0.5,1.1-0.6,1.8-0.4
					C133.2,29.7,133.2,29.2,132.9,29.1L132.9,29.1z"/>
			</g>
		</g>
	</g>
	<g>
		<g>
			<g>
				<path class="st7" d="M29.3,70.6c28,7.3,59.3,6.5,88,4.3c13.6-1,28.6-1.7,41.5-6.1c8-2.7,16.3-4.1,21.6-11.1
					c0.9-1.2-1.1-2.7-2.1-1.6c-4.4,5.2-10.6,5.5-16.5,7.4c-5.1,1.6-9.1,3.9-14.5,4.7c-13.7,2.2-27.6,3.5-41.5,4.1
					c-25.7,1.2-50.9-1.8-76.5-2.4C29.1,70.1,29,70.5,29.3,70.6L29.3,70.6z"/>
			</g>
		</g>
	</g>
</g>
</svg>
