<?xml version="1.0" encoding="utf-8"?>
<!-- Generator: Adobe Illustrator 19.1.0, SVG Export Plug-In . SVG Version: 6.00 Build 0)  -->
<svg version="1.1" id="_x2018_ëîé_x5F_1" xmlns="http://www.w3.org/2000/svg" xmlns:xlink="http://www.w3.org/1999/xlink"
	 x="0px" y="0px" viewBox="0 0 1731.8 891.8" style="enable-background:new 0 0 1731.8 891.8;" xml:space="preserve">
<style type="text/css">
	.st0{fill-rule:evenodd;clip-rule:evenodd;fill:#DB8B2A;}
	.st1{fill-rule:evenodd;clip-rule:evenodd;fill:#E3E82D;}
	.st2{fill-rule:evenodd;clip-rule:evenodd;fill:#F3C6EF;}
	.st3{fill-rule:evenodd;clip-rule:evenodd;fill:#FDE7FC;}
	.st4{fill-rule:evenodd;clip-rule:evenodd;fill:#A55669;}
	.st5{fill-rule:evenodd;clip-rule:evenodd;fill:#8E3A4F;}
	.st6{fill-rule:evenodd;clip-rule:evenodd;fill:#57271B;}
	.st7{fill-rule:evenodd;clip-rule:evenodd;fill:#7F3C22;}
	.st8{fill-rule:evenodd;clip-rule:evenodd;fill:#FFD140;}
	.st9{fill-rule:evenodd;clip-rule:evenodd;fill:#DB150C;}
	.st10{fill-rule:evenodd;clip-rule:evenodd;fill:#EF442A;}
	.st11{fill-rule:evenodd;clip-rule:evenodd;fill:#B02018;}
	.st12{fill-rule:evenodd;clip-rule:evenodd;fill:#646614;}
	.st13{fill-rule:evenodd;clip-rule:evenodd;fill:#FFFFFF;}
	.st14{fill:#FFFFFF;}
</style>
<g>
	<path class="st0" d="M0,891.8l1713.9-36.4c82.8-389.2-132.7-623.3-431.1-666.9C873,128.7,274.2,413.7,0,891.8L0,891.8z"/>
	<g>
		<path class="st7" d="M400.7,779.9c13.4-7.9,30-17.2,41.7-26.5c11.7-9.3,18.4-18.4,11.9-25.9C443.2,714.7,412.3,738.3,400.7,779.9
			L400.7,779.9z M989.9,716.6c-14.9,4.5-33.3,9.6-46.8,15.8c-13.5,6.2-22.2,13.5-17.7,22.3C933.1,769.9,968.8,754.2,989.9,716.6
			L989.9,716.6z M1148.7,759.4c15.4-1.1,34.5-2.2,49-5.4c14.5-3.2,24.6-8.4,22.2-17.9C1215.7,719.8,1177.5,727.3,1148.7,759.4
			L1148.7,759.4z M284.3,732.9c10.7-11.2,24.1-24.8,32.8-36.9c8.7-12.1,12.6-22.8,4.3-28.2C307.2,658.6,284,689.8,284.3,732.9
			L284.3,732.9z M757.2,632.4c-5.9,25.8,23.3,73.3,38.7,64.2C813.5,686.2,795.1,653.2,757.2,632.4L757.2,632.4z M553.3,654.2
			c32.1,17.9,69.8,18,74.9-1.4C632.6,636.4,590.2,631.8,553.3,654.2L553.3,654.2z M1399,627.3c5.4,14.6,11.7,32.6,18.8,45.7
			c7.1,13.1,14.9,21.3,23.4,16.2C1455.8,680.5,1437.9,645.9,1399,627.3L1399,627.3z M1570.8,563.5c-1.8,15.4-4.3,34.3-3.9,49.2
			c0.4,14.9,3.7,25.8,13.5,25.1C1597.3,636.7,1597.1,597.7,1570.8,563.5L1570.8,563.5z M1285.5,614.4c-23.7-13.8-77.7-17.6-74.9-1.8
			C1213.5,629.3,1247.7,635.1,1285.5,614.4L1285.5,614.4z M1026.3,601.6c-14.9-4.3-33.1-10-47.9-12.2c-14.7-2.1-26-0.7-27,9.1
			C949.7,615.4,988.2,621.7,1026.3,601.6L1026.3,601.6z M523.4,487.8c-13.7,7.2-30.8,15.8-42.9,24.5c-12.1,8.7-19.2,17.6-13.1,25.3
			C478,551,510,528.8,523.4,487.8L523.4,487.8z M760.4,502.3c15.4,2.2,34.2,5.2,49.1,5.2c14.9,0,25.9-3,25.4-12.9
			C834.3,477.6,795.3,476.9,760.4,502.3L760.4,502.3z M1162.1,495c-10.8-20.9-68.7-45.5-71.7-21.9
			C1088.3,490,1120.1,504.8,1162.1,495L1162.1,495z M1398.2,436.1c-13.4,7.8-30.1,17.1-41.8,26.3c-11.7,9.2-18.4,18.4-12,25.9
			C1355.5,501.1,1386.5,477.6,1398.2,436.1L1398.2,436.1z M1513.8,475.2c14.2-6.3,31.8-13.7,44.5-21.5c12.7-7.9,20.4-16.2,14.8-24.4
			C1563.5,415.2,1530.1,435.2,1513.8,475.2L1513.8,475.2z M959.3,454.2c26.3-0.1,69.8-28.6,57.3-48.3
			C1007.4,391.4,973.9,413.6,959.3,454.2L959.3,454.2z M657.9,451.7c12.5-9.2,28-20.3,38.6-30.8c10.6-10.5,16.3-20.3,9.1-27
			C693.3,382.3,665,409.1,657.9,451.7L657.9,451.7z M869,350.1c6-14.3,13.6-31.8,17.4-46.2c3.7-14.4,3.6-25.8-6.1-27.9
			C863.7,272.4,853.2,310,869,350.1L869,350.1z M1293.4,331.3c15.2,3.1,33.8,7.4,48.7,8.3c14.9,1,26-1.4,26.2-11.2
			C1368.7,311.4,1329.8,308.2,1293.4,331.3L1293.4,331.3z M1142.7,325.1c-7.5-13.6-16.5-30.4-25.4-42.3c-9-11.9-18-18.8-25.6-12.5
			C1078.5,281,1101.4,312.5,1142.7,325.1L1142.7,325.1z"/>
	</g>
</g>
<g>
	<path class="st13" d="M308.3,684c-1.2-1.2-2.3-1.6-3.2-1.6c-0.7-0.1-1.3,0-1.8,0.2c-0.2,0-0.4,0.1-0.6,0.2
		c-1.2,0.5-2.4,1.5-2.8,3.7c-0.2,1.7,0.4,4.9,1.8,7.1c1.4,2.1,3.4,3.3,5.6,3.2c1.8-0.1,3.1-1.1,3.6-2.9c0.3-1.1,0.1-2.9,0-3.4
		C310.8,688,310.2,685.9,308.3,684z"/>
	<path class="st13" d="M1304.4,510.7c-2,0.4-4,3.1-4,5.1c0,0.8,0.3,2.3,2.5,3.4c2.3,1.2,5.1,0.3,6.3-2c0.4-0.8,0.6-1.7,0.5-2.5
		C1309.1,511.2,1306.2,510.3,1304.4,510.7z"/>
	<path class="st13" d="M569.4,789.6c-0.4-0.3-1-0.4-1.5-0.2c0,0,0,0,0,0c0,0-0.3,0.1-0.4,0.2c-0.2,0.1-0.4,0.3-0.4,0.4
		c-0.5,0.6-0.4,1.2-0.2,1.6c0.1,0.3,0.4,0.8,1.3,0.9c0.1,0,0.1,0,0.2,0c0.3,0.1,0.7,0,1.1-0.2c0.7-0.4,0.9-1.1,0.7-1.8
		C570,790.2,569.7,789.8,569.4,789.6z"/>
	<path class="st13" d="M530.3,809.5c-0.2-0.1-0.8,0.2-1,0.7c-0.2,0.4-0.3,0.8,0,1.2c0.4,0.5,1.1,0.2,1.5-0.3
		C531.2,810.5,531.2,809.7,530.3,809.5z"/>
	<path class="st13" d="M543.1,790c-0.4,0.1-0.9,0.3-1.3,0.7c-0.4,0.4-0.8,1.2-0.9,1.9c-0.2,1.2,0.4,2.2,1.3,2.6c0.7,0.3,1.4,0.3,2,0
		c0.4-0.2,0.9-0.5,1.2-1c0.4-0.6,0.6-1.4,0.6-2.1c0-0.7-0.3-1.3-0.8-1.7C544.7,790.1,544.1,789.8,543.1,790z"/>
</g>
<path class="st0" d="M1632.2,207.2c-1.1,0.5-2-0.1-2.5-0.9c-0.5-0.8-0.5-1.7,0.2-2.4c0.1-0.1,0.5-0.4,1-0.6c0.5-0.2,1.2-0.2,1.7,0.3
	l0,0c0.9,0.7,1,1.9,0.4,2.8C1632.8,206.8,1632.5,207.1,1632.2,207.2L1632.2,207.2z M1638.6,237.1c0.2,0.3,0.4,0.6,0.6,0.9
	c0.7,1.4,0.5,2.8-0.6,3.9c-0.9,1-2.9,1.8-3.6,1.8c-2.2,0.2-4.9-1.2-6.4-3.3c-1.2-1.6-1.6-3.5-1.2-5.2c0.8-2.9,3.7-3.2,5.7-2.8
	C1635.1,232.9,1637.5,234.9,1638.6,237.1L1638.6,237.1z M1717.1,354.9c-0.9,0.9-3.5,2.1-6.1,1.9c-2.7-0.3-5.4-2.2-6.3-3.1
	c-1.9-1.9-3.5-5.2-3.7-7.9c-0.1-2,0.4-3.8,1.4-5.1c1.8-2.4,4.2-3,6.8-2.5c2,0.4,4.5,1.9,6.3,4.2c2,2.4,3.3,5.4,3.4,7.5
	C1719.1,352,1718.4,353.7,1717.1,354.9L1717.1,354.9z M1594.4,232c-0.7-0.3-1.4-0.8-1.8-1.4c-0.6-0.8-0.8-1.7-0.6-2.6
	c0.1-0.8,0.5-1.7,1.6-2.4c0.8-0.5,1.8-0.8,3.1-0.5c1,0.3,2.4,1.2,3,2c1.5,1.9,0.9,3.7-0.1,4.7c-0.4,0.4-0.9,0.7-1.6,0.9
	c-0.6,0.1-1.6,0.1-2.5-0.3C1595,232.4,1594.6,232.2,1594.4,232L1594.4,232z M165.8,543.1c-0.2,0.7-0.6,1.3-1.3,1.7
	c-1.3,0.7-3,0.2-3.7-1.1c-0.3-0.6-0.4-1.1-0.4-1.5c0.1-1,0.5-1.9,1.2-2.3c1.3-0.8,2.9-0.7,3.8,0.6c0.7,1,0.6,1.7,0.6,2.2
	C166,542.8,165.9,542.9,165.8,543.1L165.8,543.1z M169.1,570c-0.5,0.2-1,0.2-1.5,0.2c-0.7-0.1-1.6-0.4-2.6-1.4
	c-1.5-1.6-2-3.3-2.2-5.4c0-0.4-0.2-2,0-2.9c0.4-1.5,1.5-2.3,2.9-2.4c1.8-0.1,3.4,0.9,4.6,2.7c1.2,1.9,1.7,4.5,1.5,5.9
	c-0.3,1.9-1.3,2.7-2.3,3.1C169.5,569.9,169.3,570,169.1,570L169.1,570z M37.6,750.4c1.4-0.5,2.9-0.2,4.2,0.9
	c0.6,0.6,1.2,1.5,1.2,2.8c0,1.2-1.1,3.5-1.5,4c-0.9,1-2.8,2.8-4.5,3.3c-1.5,0.4-2.9,0.3-4.2-0.6c-1.2-0.8-1.7-1.8-1.9-2.9
	c-0.2-1.1,0.1-2.4,0.9-3.7c0.8-1.2,2.2-2.5,3.3-3.1c0.9-0.5,1.7-0.7,2.2-0.7C37.4,750.4,37.5,750.4,37.6,750.4L37.6,750.4z"/>
<path class="st7" d="M653,234.4c15.4,2.2,34.2,5.2,49.1,5.2c14.9,0,25.9-3,25.4-12.9C726.8,209.7,687.9,209,653,234.4L653,234.4z
	 M1054.7,227.1c-17.1-21.8-54.4-48.5-65-34.2C979.6,206.5,1012.7,236.9,1054.7,227.1L1054.7,227.1z M1290.8,168.2
	c-13.4,7.8-30.1,17.1-41.8,26.3c-11.7,9.2-18.4,18.4-12,25.9C1248.1,233.3,1279.1,209.7,1290.8,168.2L1290.8,168.2z M1406.4,207.3
	c14.2-6.3,31.8-13.7,44.5-21.5c12.7-7.9,20.4-16.2,14.8-24.4C1456.1,147.4,1422.6,167.3,1406.4,207.3L1406.4,207.3z M851.9,186.3
	c13.9-6.9,31.2-15,43.5-23.4c12.3-8.4,19.7-17,13.8-25C899,124.4,866.4,145.7,851.9,186.3L851.9,186.3z M506.2,387.4
	c12.5-9.2,28-20.3,38.6-30.8c10.6-10.5,16.3-20.3,9.1-27C541.5,318,513.2,344.8,506.2,387.4L506.2,387.4z M761.6,82.2
	c6-14.3,13.6-31.8,17.3-46.2c3.7-14.4,3.6-25.8-6.1-27.9C756.2,4.6,745.8,42.1,761.6,82.2L761.6,82.2z M1186,63.4
	c15.2,3.1,33.8,7.4,48.7,8.3c14.9,1,26-1.4,26.2-11.2C1261.2,43.5,1222.4,40.3,1186,63.4L1186,63.4z M1035.2,57.2
	c-7.5-13.6-16.5-30.4-25.4-42.3c-9-11.9-18-18.8-25.6-12.5C971.1,13.2,994,44.7,1035.2,57.2L1035.2,57.2z"/>
</svg>
