<?xml version="1.0" encoding="utf-8"?>
<!-- Generator: Adobe Illustrator 19.1.0, SVG Export Plug-In . SVG Version: 6.00 Build 0)  -->
<svg version="1.1" id="Layer_1" xmlns="http://www.w3.org/2000/svg" xmlns:xlink="http://www.w3.org/1999/xlink" x="0px" y="0px"
	 viewBox="0 0 192.2 86.2" style="enable-background:new 0 0 192.2 86.2;" xml:space="preserve">
<style type="text/css">
	.st0{fill:#97DD24;}
	.st1{fill:#E05C46;}
	.st2{fill:#FAB239;}
	.st3{fill:#8BC53F;}
	.st4{fill:#CCEF89;}
	.st5{fill:#FECF83;}
	.st6{fill:#FE6600;}
	.st7{fill:#892F64;}
	.st8{fill:#FFFFFF;}
	.st9{fill:#E04B2C;}
	.st10{fill:#6E2F8C;}
	.st11{fill:#FDC400;}
	.st12{fill:#E5FCBB;}
	.st13{fill:#FFEFDC;}
	.st14{fill:#F48371;}
	.st15{fill:#FF9300;}
	.st16{fill:#FFAD4A;}
	.st17{fill:#F7D5EE;}
	.st18{fill:#AF6D9B;}
	.st19{fill:#E2AA59;}
</style>
<g>
	<g>
		<path class="st2" d="M188.7,47.9c-0.1-4.9-0.1-18.7-0.2-23.6H3.7C3.4,34.2,4,44.2,5.3,53.9c0.3,2,0.6,4.2,1.7,5.9
			c1,1.5,2.5,2.6,3.9,3.5C21.5,70,33.4,73.6,45.3,76.4c42.6,9.9,87.7,9.2,128.6-7.3c5.7-2.3,11.8-5.5,13.9-11.9
			C188.8,54.3,188.8,51.1,188.7,47.9z"/>
		<g>
			<g>
				<g>
					<path class="st7" d="M1.7,23.8c-2.1,10.3-3.1,27.2,2,36.9C7.9,68.6,20.4,72.3,28.3,75c24.7,8.6,52.4,11.8,78.4,11.1
						c24.1-0.7,52.3-4.5,73.7-16.4c8.8-4.9,11.5-12,11.6-21.8c0.1-8,0.5-16.4-1-24.3c-0.5-2.4-4.5-2.5-5,0
						c-1.1,6.2-0.7,12.4-0.7,18.6c0,4.1,0.4,8.2-0.8,12.2c-2.2,7.4-8.1,10-14.9,12.6C149.1,75,127,78.9,105,79.4
						c-21.4,0.5-42.9-2.1-63.7-7.4c-9.6-2.4-24.3-5.5-30.5-13.7c-5.9-7.9-3.4-24.6-5.2-34.5C5.3,21.8,2.1,21.9,1.7,23.8L1.7,23.8z"
						/>
				</g>
			</g>
		</g>
	</g>
	<g>
		<g>
			<g>
				<path class="st5" d="M4.7,19.7C4,34.3,25.4,37.5,32.8,38.8c13,2.2,26.2,3.7,39.3,5.5c13.2,1.8,26,3.1,39.3,0.6
					c13-2.4,25.8-7,38.8-9.8c11.1-2.4,24.3-0.3,34.7-6.8c5.3-3.3,4.4-9.6-0.7-12.8c-5.8-3.6-13.3-4.5-19.6-5.7
					C138.4,4.4,111,1.3,84.6,2.8c-15.1,0.9-30.1,2.6-45.2,4c-10,0.9-32.2-1.2-35.6,16L4.7,19.7z"/>
			</g>
		</g>
		<g>
			<g>
				<g>
					<path class="st7" d="M3,19.7C0.2,40.8,35.5,42.2,48.9,44c18.1,2.4,37,6.2,55.3,4.4c17.7-1.7,34.1-9.6,51.7-11.8
						c9.6-1.2,27.5,0.2,33.2-9.9c5-8.9-5.2-15-12.4-17.1c-34-10-72-11.2-107.1-8.1C54.1,2.9,38.1,3.3,22.9,5.7
						c-10.2,1.6-18.2,6-20,16.8c-0.2,1.3,1.6,1.9,2,0.6C9.5,10,24.1,10,35.6,9.3c16.4-0.9,32.6-3.3,49-4.1c18.9-1,37.9,0.2,56.6,3
						c8.5,1.2,17,2.8,25.4,4.4c2.9,0.5,5.8,1,8.7,1.8c2.7,0.7,5.2,1.6,7.7,2.9c3.3,6.5,1.9,10.2-4.2,11.2
						c-7.3,2.7-15.3,2.2-22.9,3.1c-7,0.8-13.7,2.7-20.5,4.5c-17.6,4.8-34.1,8.5-52.5,6.7c-16.8-1.6-33.9-4-50.5-7
						C22,33.9,8.6,31.4,6.3,19.2C5.9,17.2,3.2,18,3,19.7L3,19.7z"/>
				</g>
			</g>
		</g>
	</g>
	<g>
		<g>
			<g>
				<path class="st7" d="M27.7,60.9c25.1,13.3,52.3,10.3,79.6,10.6c26.7,0.3,58.3-2.5,80.6-18.7c1-0.7,0.2-2.3-1-1.7
					c-25.9,13.3-52.6,17.6-81.5,17c-12.4-0.3-24.9,1.3-37.3,0.7c-13.8-0.6-27-4.7-40.1-8.7C27.6,60,27.3,60.7,27.7,60.9L27.7,60.9z"
					/>
			</g>
		</g>
	</g>
</g>
</svg>
