<?xml version="1.0" encoding="utf-8"?>
<!-- Generator: Adobe Illustrator 19.1.0, SVG Export Plug-In . SVG Version: 6.00 Build 0)  -->
<svg version="1.1" id="_x2018_ëîé_x5F_1" xmlns="http://www.w3.org/2000/svg" xmlns:xlink="http://www.w3.org/1999/xlink"
	 x="0px" y="0px" viewBox="0 0 1731.8 711.2" style="enable-background:new 0 0 1731.8 711.2;" xml:space="preserve">
<style type="text/css">
	.st0{fill-rule:evenodd;clip-rule:evenodd;fill:#DB8B2A;}
	.st1{fill-rule:evenodd;clip-rule:evenodd;fill:#E3E82D;}
	.st2{fill-rule:evenodd;clip-rule:evenodd;fill:#F3C6EF;}
	.st3{fill-rule:evenodd;clip-rule:evenodd;fill:#FDE7FC;}
	.st4{fill-rule:evenodd;clip-rule:evenodd;fill:#A55669;}
	.st5{fill-rule:evenodd;clip-rule:evenodd;fill:#8E3A4F;}
	.st6{fill-rule:evenodd;clip-rule:evenodd;fill:#57271B;}
	.st7{fill-rule:evenodd;clip-rule:evenodd;fill:#7F3C22;}
	.st8{fill-rule:evenodd;clip-rule:evenodd;fill:#FFD140;}
	.st9{fill-rule:evenodd;clip-rule:evenodd;fill:#DB150C;}
	.st10{fill-rule:evenodd;clip-rule:evenodd;fill:#EF442A;}
	.st11{fill-rule:evenodd;clip-rule:evenodd;fill:#B02018;}
	.st12{fill-rule:evenodd;clip-rule:evenodd;fill:#646614;}
	.st13{fill-rule:evenodd;clip-rule:evenodd;fill:#FFFFFF;}
	.st14{fill:#FFFFFF;}
</style>
<g>
	<path class="st0" d="M0,711.2l1713.9-36.4c82.8-389.2-132.7-623.3-431.1-666.9C873-52,274.2,233.1,0,711.2L0,711.2z"/>
	<g>
		<path class="st7" d="M400.7,599.2c13.4-7.9,30-17.2,41.7-26.5c11.7-9.3,18.4-18.4,11.9-25.9C443.2,534,412.3,557.7,400.7,599.2
			L400.7,599.2z M989.9,535.9c-14.9,4.5-33.3,9.6-46.8,15.8c-13.5,6.2-22.2,13.5-17.7,22.3C933.1,589.2,968.8,573.6,989.9,535.9
			L989.9,535.9z M1148.7,578.7c15.4-1.1,34.5-2.2,49-5.4c14.5-3.2,24.6-8.4,22.2-17.9C1215.7,539.1,1177.5,546.7,1148.7,578.7
			L1148.7,578.7z M284.3,552.3c10.7-11.2,24.1-24.8,32.8-36.9c8.7-12.1,12.6-22.8,4.3-28.2C307.2,477.9,284,509.1,284.3,552.3
			L284.3,552.3z M757.2,451.8c-5.9,25.8,23.3,73.3,38.7,64.2C813.5,505.6,795.1,472.5,757.2,451.8L757.2,451.8z M553.3,473.5
			c32.1,17.9,69.8,18,74.9-1.4C632.6,455.7,590.2,451.2,553.3,473.5L553.3,473.5z M1399,446.6c5.4,14.6,11.7,32.6,18.8,45.7
			c7.1,13.1,14.9,21.3,23.4,16.2C1455.8,499.8,1437.9,465.2,1399,446.6L1399,446.6z M1570.8,382.8c-1.8,15.4-4.3,34.3-3.9,49.2
			c0.4,14.9,3.7,25.8,13.5,25.1C1597.3,456,1597.1,417.1,1570.8,382.8L1570.8,382.8z M1285.5,433.7c-23.7-13.8-77.7-17.6-74.9-1.8
			C1213.5,448.6,1247.7,454.5,1285.5,433.7L1285.5,433.7z M1026.3,420.9c-14.9-4.3-33.1-10-47.9-12.2c-14.7-2.1-26-0.7-27,9.1
			C949.7,434.8,988.2,441.1,1026.3,420.9L1026.3,420.9z M523.4,307.2c-13.7,7.2-30.8,15.8-42.9,24.5c-12.1,8.7-19.2,17.6-13.1,25.3
			C478,370.4,510,348.2,523.4,307.2L523.4,307.2z M760.4,321.6c15.4,2.2,34.2,5.2,49.1,5.2c14.9,0,25.9-3,25.4-12.9
			C834.3,296.9,795.3,296.2,760.4,321.6L760.4,321.6z M1162.1,314.3c-10.8-20.9-68.7-45.5-71.7-21.9
			C1088.3,309.3,1120.1,324.2,1162.1,314.3L1162.1,314.3z M1398.2,255.4c-13.4,7.8-30.1,17.1-41.8,26.3c-11.7,9.2-18.4,18.4-12,25.9
			C1355.5,320.5,1386.5,296.9,1398.2,255.4L1398.2,255.4z M1513.8,294.5c14.2-6.3,31.8-13.7,44.5-21.5c12.7-7.9,20.4-16.2,14.8-24.4
			C1563.5,234.6,1530.1,254.5,1513.8,294.5L1513.8,294.5z M959.3,273.6c26.3-0.1,69.8-28.6,57.3-48.3
			C1007.4,210.7,973.9,232.9,959.3,273.6L959.3,273.6z M657.9,271c12.5-9.2,28-20.3,38.6-30.8c10.6-10.5,16.3-20.3,9.1-27
			C693.3,201.6,665,228.5,657.9,271L657.9,271z M869,169.5c6-14.3,13.6-31.8,17.4-46.2c3.7-14.4,3.6-25.8-6.1-27.9
			C863.7,91.8,853.2,129.3,869,169.5L869,169.5z M1293.4,150.7c15.2,3.1,33.8,7.4,48.7,8.3c14.9,1,26-1.4,26.2-11.2
			C1368.7,130.8,1329.8,127.6,1293.4,150.7L1293.4,150.7z M1142.7,144.5c-7.5-13.6-16.5-30.4-25.4-42.3c-9-11.9-18-18.8-25.6-12.5
			C1078.5,100.4,1101.4,131.9,1142.7,144.5L1142.7,144.5z"/>
	</g>
</g>
<g>
	<path class="st13" d="M308.3,503.4c-1.2-1.2-2.3-1.6-3.2-1.6c-0.7-0.1-1.3,0-1.8,0.2c-0.2,0-0.4,0.1-0.6,0.2
		c-1.2,0.5-2.4,1.5-2.8,3.7c-0.2,1.7,0.4,4.9,1.8,7.1c1.4,2.1,3.4,3.3,5.6,3.2c1.8-0.1,3.1-1.1,3.6-2.9c0.3-1.1,0.1-2.9,0-3.4
		C310.8,507.4,310.2,505.2,308.3,503.4z"/>
	<path class="st13" d="M1304.4,330.1c-2,0.4-4,3.1-4,5.1c0,0.8,0.3,2.3,2.5,3.4c2.3,1.2,5.1,0.3,6.3-2c0.4-0.8,0.6-1.7,0.5-2.5
		C1309.1,330.6,1306.2,329.7,1304.4,330.1z"/>
	<path class="st13" d="M569.4,608.9c-0.4-0.3-1-0.4-1.5-0.2c0,0,0,0,0,0c0,0-0.3,0.1-0.4,0.2c-0.2,0.1-0.4,0.3-0.4,0.4
		c-0.5,0.6-0.4,1.2-0.2,1.6c0.1,0.3,0.4,0.8,1.3,0.9c0.1,0,0.1,0,0.2,0c0.3,0.1,0.7,0,1.1-0.2c0.7-0.4,0.9-1.1,0.7-1.8
		C570,609.5,569.7,609.2,569.4,608.9z"/>
	<path class="st13" d="M530.3,628.9c-0.2-0.1-0.8,0.2-1,0.7c-0.2,0.4-0.3,0.8,0,1.2c0.4,0.5,1.1,0.2,1.5-0.3
		C531.2,629.8,531.2,629.1,530.3,628.9z"/>
	<path class="st13" d="M543.1,609.4c-0.4,0.1-0.9,0.3-1.3,0.7c-0.4,0.4-0.8,1.2-0.9,1.9c-0.2,1.2,0.4,2.2,1.3,2.6
		c0.7,0.3,1.4,0.3,2,0c0.4-0.2,0.9-0.5,1.2-1c0.4-0.6,0.6-1.4,0.6-2.1c0-0.7-0.3-1.3-0.8-1.7C544.7,609.5,544.1,609.2,543.1,609.4z"
		/>
</g>
</svg>
