<?xml version="1.0" encoding="utf-8"?>
<!-- Generator: Adobe Illustrator 19.1.0, SVG Export Plug-In . SVG Version: 6.00 Build 0)  -->
<svg version="1.1" id="_x2018_ëîé_x5F_1" xmlns="http://www.w3.org/2000/svg" xmlns:xlink="http://www.w3.org/1999/xlink"
	 x="0px" y="0px" viewBox="0 0 1908.4 844.5" style="enable-background:new 0 0 1908.4 844.5;" xml:space="preserve">
<style type="text/css">
	.st0{fill-rule:evenodd;clip-rule:evenodd;fill:#DB8B2A;}
	.st1{fill-rule:evenodd;clip-rule:evenodd;fill:#E3E82D;}
	.st2{fill-rule:evenodd;clip-rule:evenodd;fill:#F3C6EF;}
	.st3{fill-rule:evenodd;clip-rule:evenodd;fill:#FDE7FC;}
	.st4{fill-rule:evenodd;clip-rule:evenodd;fill:#A55669;}
	.st5{fill-rule:evenodd;clip-rule:evenodd;fill:#8E3A4F;}
	.st6{fill-rule:evenodd;clip-rule:evenodd;fill:#57271B;}
	.st7{fill-rule:evenodd;clip-rule:evenodd;fill:#7F3C22;}
	.st8{fill-rule:evenodd;clip-rule:evenodd;fill:#FFD140;}
	.st9{fill-rule:evenodd;clip-rule:evenodd;fill:#DB150C;}
	.st10{fill-rule:evenodd;clip-rule:evenodd;fill:#EF442A;}
	.st11{fill-rule:evenodd;clip-rule:evenodd;fill:#B02018;}
	.st12{fill-rule:evenodd;clip-rule:evenodd;fill:#646614;}
	.st13{fill-rule:evenodd;clip-rule:evenodd;fill:#FFFFFF;}
	.st14{fill:#FFFFFF;}
</style>
<g>
	<path class="st8" d="M860.5,0C705.3,192.3,484.4,233.2,269.1,260.8c117.2,119.3-42.6,167.4-149.1,42L10.9,350.6
		c44.5,140.6,213.2,231,401.5,270.6c234.3,49.3,471.5,99.5,514.6,178.8L1114,605.8c-129.3-21.5-124.3-164.6,85.3-66.2
		c186.1-159,443.3-254.7,709.1-263.7c-75.9-63.2-154.8-103.2-252.2-150.1c-77.1,35.4-161,32.2-200.2,8.8
		c-26.7-15.9-32.6-41.3-1.1-70.2L860.5,0L860.5,0z M686.2,513.8c32.4-4.8,128.4-38.1,68.9-90.9c-28.1-24.9-118.9-42-178.6-17.5
		c-38.1,15.6-51.6,52.3-16.7,82.4C591.6,515.2,631.6,521.9,686.2,513.8L686.2,513.8z M1150.9,248.3c63,15.8,102.7,49,101.7,76.3
		c-0.9,23.5-44.9,47.4-119.1,35.7c-74.5-11.7-101.4-56.5-90.6-80.9C1057.2,246.9,1095.9,234.4,1150.9,248.3L1150.9,248.3z
		 M965.4,151.5c-5.4-14.9-73.9-53.6-161.1-17c-41.1,17.3-64.8,62.5-18.8,86.3c29.4,15.2,69.5,17.7,119.1-3.6
		C956.6,194.8,974.8,177.4,965.4,151.5L965.4,151.5z"/>
	<path class="st0" d="M22.5,380.5c57.5,123.5,215.3,204,389.8,240.7c234.3,49.3,471.5,99.5,514.6,178.8l160.6-166.8
		c7.4-7.5,25.4-25.1,25.4-25.1s3.2,25.3,3.8,32.7L926.2,844.5c-70.8-94.6-276.7-139-511-188.3C226.9,616.6,47.3,528.7,0,390.1
		l10.1-40.5L22.5,380.5L22.5,380.5z M1868.4,277.9c10.7-0.7,38.3-1,38.3-1c0.5,5.7-0.3,18.4,0.1,31
		c-266.6,5-518.5,110.4-704.6,269.4c-100.3-47.1-153.8-39.4-168.1-16.3c-26.2-42.6,21.3-88.8,165.1-21.3
		C1376,388.6,1616.9,294.7,1868.4,277.9L1868.4,277.9z M545.4,470.8c-14.7-25.8,0-52.6,31.1-65.4c59.7-24.5,150.5-7.4,178.6,17.5
		c20.9,18.5,22.6,34.6,14.7,47.9c-2.9-4.2-6.8-8.5-11.9-12.9c-28.1-24.9-118.9-42-178.6-17.5C562.6,447.3,550.6,458.2,545.4,470.8
		L545.4,470.8z M1046.8,312c-6.8-11.9-7.9-23.6-3.9-32.6c14.4-32.5,53.1-44.9,108-31.1c63,15.8,102.7,49,101.7,76.3
		c-0.2,4.2-1.7,8.5-4.6,12.6c-14.2-21.1-48-42.2-94.3-53.8C1100.1,269.8,1062,281.3,1046.8,312L1046.8,312z M295.3,292.8
		c14.3,22.1,17.6,40.7,13.1,54.6c-5.9-15.1-17.6-32.4-36.4-51.6c-0.3-9-1.8-33.2-1.8-33.2S289.5,283.7,295.3,292.8L295.3,292.8z
		 M766.8,205.6c-17.9-24.5,4-57.1,37.5-71.2c87.2-36.6,155.6,2.1,161.1,17c3.8,10.5,3.1,19.5-2.5,28.1
		c-18.4-16.9-80.1-41.9-155.8-10.1C788.5,177.3,773.4,190.9,766.8,205.6L766.8,205.6z M1434.4,94.6c3-12.6,11.5-22.3,19-27.8
		l10.9,31c-10.2,9.3-17.1,18.4-21,27C1435.1,116.2,1431.7,106,1434.4,94.6L1434.4,94.6z"/>
</g>
</svg>
