<?xml version="1.0" encoding="utf-8"?>
<!-- Generator: Adobe Illustrator 19.1.0, SVG Export Plug-In . SVG Version: 6.00 Build 0)  -->
<svg version="1.1" id="Layer_1" xmlns="http://www.w3.org/2000/svg" xmlns:xlink="http://www.w3.org/1999/xlink" x="0px" y="0px"
	 viewBox="0 0 219.4 94.9" style="enable-background:new 0 0 219.4 94.9;" xml:space="preserve">
<style type="text/css">
	.st0{fill:#97DD24;}
	.st1{fill:#E05C46;}
	.st2{fill:#FAB239;}
	.st3{fill:#8BC53F;}
	.st4{fill:#CCEF89;}
	.st5{fill:#FECF83;}
	.st6{fill:#FE6600;}
	.st7{fill:#892F64;}
	.st8{fill:#FFFFFF;}
	.st9{fill:#E04B2C;}
	.st10{fill:#6E2F8C;}
	.st11{fill:#FDC400;}
	.st12{fill:#E5FCBB;}
	.st13{fill:#FFEFDC;}
	.st14{fill:#F48371;}
	.st15{fill:#FF9300;}
	.st16{fill:#FFAD4A;}
	.st17{fill:#F7D5EE;}
	.st18{fill:#AF6D9B;}
	.st19{fill:#E2AA59;}
</style>
<g>
	<g>
		<g>
			<g>
				<g>
					<path class="st11" d="M218.2,26.9c0.2,4.3-2.8,8.6-1.6,12.8l-0.5,0.2c-20.1,17.8-41.6,35.6-62.2,52.9c0.2-2.3-1.5-4.8-1.3-7.1
						c16.5-16.8,33.4-31.5,51.8-46.2c4.7-3.8,9.6-7.7,12.8-12.8L218.2,26.9z"/>
				</g>
				<g>
					<path class="st11" d="M140.7,39.2c1.5,2.3,6.1,2.5,8.4,2.5c2.4,0,8.3,0,9.9-2.7c0.2-0.3,0.4-0.7,0.4-1.1
						c0.7-4.4-6.8-5.7-9.7-5.7c-3-0.3-8.9,0.6-9.6,4.4C140.1,37.7,140.3,38.6,140.7,39.2z M180.4,33.5l-1.8,0
						c-0.9-0.1-1.7-0.2-2.6,0c-0.8,0.2-1.6,1-1.6,1.8c0,1.4,1.6,2.1,3,2.3c1,0.2,2,0.3,3.1,0.3c0.4,0,0.9,0,1.3-0.2
						c1.1-0.5,1.1-2.1,0.4-3C181.7,34.2,181.1,33.8,180.4,33.5z M89.8,48L88,48c-0.9-0.1-1.7-0.2-2.6,0c-0.8,0.2-1.6,1-1.6,1.8
						c0,1.4,1.6,2.1,3,2.3c1,0.2,2,0.3,3.1,0.3c0.4,0,0.9,0,1.3-0.2c1.1-0.5,1.1-2.1,0.4-3C91.1,48.7,90.5,48.3,89.8,48z
						 M110.1,53.2c1.3,2.6,6.1,2.9,8.6,2.9c2.5,0,8.6,0,10.1-2.9c0.2-0.3,0.3-0.5,0.3-0.9c0.7-4.4-6.8-5.8-9.7-5.7
						c-3-0.3-8.9,0.6-9.6,4.3C109.7,51.9,109.8,52.6,110.1,53.2z M217.5,24.8l-0.2,1.7c-3.2,5.1-8.1,9-12.8,12.8
						c-18.3,14.7-35.3,29.4-51.8,46.2c-5.8,1.4-11.8-4.4-17.3-6.8c-6-2.7-12.9-2.5-19.4-3c-7.9-0.6-15.7-2.2-23.4-3.8
						c-12.6-2.6-25.2-5.2-37.7-8.3C36.6,59.1,18.9,53.2,1.4,46.5C12.7,38.8,24.3,30.4,37,25.2c4.6-1.9,9.3-3.4,13.6-5.7
						C59,15,65.6,7.7,73.9,3.2c0.9-0.5,1.9-1,2.9-1.2c1.3-0.2,2.7,0,4,0.3C126.1,11.5,171.7,19,217.5,24.8z M169.1,50.7
						c1.1-0.5,1.1-2.1,0.4-3c-0.7-0.9-2.2-1.1-3.3-1.5c-0.9-0.1-2,0-2.9,0.3c-0.8,0.2-1.6,1-1.6,1.8c0,1.4,1.6,2.1,3,2.3
						c1,0.2,2,0.3,3.1,0.3C168.2,50.9,168.7,50.9,169.1,50.7z M129.9,36.3c0.7-1.1,0.2-2.7-0.8-3.5c-1-0.8-4.2-0.7-5.5-0.7
						c-2.7,1.2-4.7,1.4-6.3,3.8c-0.2,0.4-0.4,0.8-0.4,1.2c0.1,0.7,0.9,1.2,1.6,1.4c3.1,0.9,6.6,0.7,9.6-0.6
						C128.8,37.4,129.5,37,129.9,36.3z M93.3,28.2c0.7-1.1,0.2-2.7-0.8-3.5c-1-0.8-4.2-0.7-5.5-0.7c-2.7,1.2-4.7,1.3-6.3,3.8
						c-0.2,0.4-0.5,0.7-0.4,1.2c0.1,0.7,0.9,1.1,1.6,1.4c3.1,0.9,6.6,0.7,9.6-0.7C92.2,29.3,92.9,28.9,93.3,28.2z M58.8,37.5
						c2.3-3.1-1.6-4.5-3.9-5.3c-2.7-0.9-4.7-0.6-7.4,0.3c-2.9,0.9-10.2,3.6-8.7,7.8c0.1,0.2,0.2,0.4,0.3,0.6
						c1.5,2.8,7.3,2.3,9.9,1.8c3.1-0.6,7-2.1,9.3-4.5C58.4,38,58.6,37.7,58.8,37.5z"/>
				</g>
				<g>
					<path class="st11" d="M182.2,34.8c0.7,0.9,0.6,2.5-0.4,3c-0.4,0.2-0.9,0.2-1.3,0.2c-1,0-2-0.1-3.1-0.3c-1.4-0.2-3-0.9-3-2.3
						c0-0.9,0.8-1.6,1.6-1.8c0.8-0.2,1.7-0.1,2.6,0l1.8,0C181.1,33.8,181.7,34.2,182.2,34.8z"/>
				</g>
				<g>
					<path class="st11" d="M169.5,47.7c0.7,0.9,0.6,2.5-0.4,3c-0.4,0.2-0.9,0.2-1.3,0.2c-1,0-2-0.1-3.1-0.3c-1.4-0.2-3-0.9-3-2.3
						c0-0.9,0.8-1.6,1.6-1.8c0.8-0.2,2-0.4,2.9-0.3C167.3,46.6,168.8,46.7,169.5,47.7z"/>
				</g>
				<g>
					<path class="st11" d="M149.8,32.3c2.9,0,10.4,1.3,9.7,5.7c-0.1,0.4-0.2,0.8-0.4,1.1l-0.1,0c-2.2-1.7-5.1-2.4-7.9-2.5
						c-2.9-0.1-5.7,0.5-8.4,1.4c-0.8,0.2-1.6,0.6-2,1.2c-0.5-0.7-0.7-1.5-0.5-2.6C140.9,32.9,146.8,32,149.8,32.3z"/>
				</g>
				<g>
					<path class="st11" d="M152.7,85.6c-0.2,2.3,1.5,4.8,1.3,7.1c-26.1-5.6-52.9-10.6-78.9-16.2c-6.6-1.4-13.2-2.8-19.8-4.5
						c-9.7-2.5-19.2-5.5-28.7-8.5c-7.8-2.5-16.1-5.2-23.9-7.6c-0.3-2.9-0.9-6.4-1.2-9.3c17.5,6.7,35.2,12.6,53.4,17.1
						c12.5,3.1,25.1,5.7,37.7,8.3c7.7,1.6,15.5,3.2,23.4,3.8c6.6,0.5,13.4,0.3,19.4,3C140.8,81.2,146.8,87,152.7,85.6z"/>
				</g>
				<g>
					<path class="st11" d="M129.1,32.8c1,0.9,1.5,2.4,0.8,3.5c-0.4,0.7-1.1,1.1-1.9,1.5c-3,1.3-6.4,1.6-9.6,0.6
						c-0.7-0.2-1.5-0.6-1.6-1.4c0-0.4,0.2-0.8,0.4-1.2c1.6-2.5,3.5-2.7,6.3-3.8C124.9,32.1,128.1,31.9,129.1,32.8z"/>
				</g>
				<g>
					<path class="st11" d="M119.4,46.6c2.9,0,10.4,1.3,9.7,5.7c-0.1,0.3-0.2,0.6-0.3,0.9c-2.3-1.5-5.2-2.2-8.1-2.3
						c-3-0.1-6,0.5-8.8,1.4c-0.6,0.2-1.3,0.5-1.8,0.9c-0.3-0.6-0.4-1.4-0.3-2.3C110.5,47.3,116.4,46.4,119.4,46.6z"/>
				</g>
				<g>
					<path class="st11" d="M92.5,24.7c1,0.8,1.5,2.4,0.8,3.5c-0.4,0.7-1.1,1.1-1.9,1.5c-3,1.3-6.4,1.6-9.6,0.7
						c-0.7-0.2-1.5-0.6-1.6-1.4c0-0.4,0.2-0.8,0.4-1.2c1.6-2.5,3.5-2.7,6.3-3.8C88.3,23.9,91.5,23.8,92.5,24.7z"/>
				</g>
				<g>
					<path class="st11" d="M91.6,49.3c0.7,0.9,0.6,2.5-0.4,3c-0.4,0.2-0.9,0.2-1.3,0.2c-1,0-2-0.1-3.1-0.3c-1.4-0.2-3-0.9-3-2.3
						c0-0.9,0.8-1.6,1.6-1.8c0.8-0.2,1.7-0.1,2.6,0l1.8,0C90.5,48.3,91.1,48.7,91.6,49.3z"/>
				</g>
				<g>
					<path class="st11" d="M54.9,32.2c2.3,0.8,6.2,2.3,3.9,5.3c-0.2,0.2-0.4,0.5-0.6,0.7l-0.1-0.1c-1.9-1.9-4.9-2.1-7.6-2
						c-4.1,0.3-8.3,1.3-11.4,4.1l-0.4,0.1c-1.5-4.2,5.8-6.9,8.7-7.8C50.2,31.6,52.2,31.2,54.9,32.2z"/>
				</g>
			</g>
			<g>
				<g>
					<path class="st7" d="M2,47.4l-1.1-1.6l3-2c10.4-7.2,21.2-14.6,32.8-19.4c1.3-0.5,2.7-1.1,4-1.6c3.2-1.2,6.5-2.5,9.5-4.1
						c4.1-2.2,7.9-5.2,11.6-8.1c3.7-2.9,7.5-5.9,11.7-8.2c1-0.5,2.1-1.1,3.2-1.3c1.5-0.3,3.1,0.1,4.3,0.3
						c45,9.1,90.9,16.6,136.6,22.4l0.5,0.1l-0.3,2l-0.4-0.1C171.6,20,125.6,12.4,80.6,3.3C79.5,3.1,78.2,2.9,77,3
						c-0.9,0.2-1.8,0.6-2.6,1.1c-4.1,2.2-7.8,5.1-11.4,8c-3.7,2.9-7.6,6-11.9,8.3c-3.1,1.7-6.5,3-9.8,4.2c-1.3,0.5-2.7,1-4,1.5
						C25.9,30.8,15.2,38.2,4.9,45.3L2,47.4z"/>
				</g>
				<g>
					<path class="st7" d="M150.8,86.8c-3.7,0-7.4-2.2-10.9-4.4c-1.7-1.1-3.4-2-4.9-2.7c-4.7-2.1-10.1-2.4-15.3-2.7
						c-1.3-0.1-2.5-0.1-3.8-0.2c-8-0.6-15.9-2.2-23.5-3.8c-12.4-2.5-25.1-5.2-37.8-8.3C37.7,60.4,20.2,54.8,1,47.5l0.7-1.9
						C20.8,52.9,38.3,58.5,55,62.7c12.6,3.2,25.3,5.8,37.7,8.3c7.6,1.6,15.4,3.2,23.3,3.7c1.3,0.1,2.5,0.2,3.8,0.2
						c5.4,0.3,11,0.6,16,2.8c1.7,0.8,3.5,1.8,5.2,2.9c3.8,2.3,7.8,4.8,11.5,3.9l0.5,1.9C152.2,86.7,151.5,86.8,150.8,86.8z"/>
				</g>
				<g>
					<path class="st7" d="M1.6,56c-0.1-1.4-0.4-3-0.6-4.6c-0.2-1.6-0.5-3.2-0.6-4.7l2-0.2c0.1,1.4,0.4,3,0.6,4.6
						c0.2,1.6,0.5,3.2,0.6,4.7L1.6,56z"/>
				</g>
				<g>
					<path class="st7" d="M153.4,86.3l-1.4-1.4c14.9-15.2,30.9-29.5,51.8-46.3l0.6-0.5c4.4-3.6,9-7.3,12-12l1.7,1.1
						c-3.2,5-7.9,8.8-12.4,12.5l-0.6,0.5C184.1,56.9,168.2,71.1,153.4,86.3z"/>
				</g>
				<g>
					<path class="st7" d="M153.7,93.7c-13-2.8-26.5-5.5-39.5-8.1c-13-2.6-26.4-5.3-39.5-8.1l-1-0.2C67.6,75.9,61.2,74.5,55,73
						c-9.3-2.4-18.5-5.3-28.7-8.5c-3.9-1.2-7.9-2.5-12-3.8c-4-1.3-8.1-2.6-12-3.8l0.6-1.9c3.9,1.2,7.9,2.5,12,3.8
						c4,1.3,8.1,2.6,12,3.8C37,65.8,46.2,68.6,55.5,71c6.2,1.6,12.6,3,18.7,4.3l1,0.2c13,2.8,26.5,5.5,39.5,8.1
						c13,2.6,26.4,5.3,39.5,8.1L153.7,93.7z"/>
				</g>
				<g>
					<path class="st7" d="M154.9,92.8l-2-0.2c0.1-0.9-0.2-2-0.6-3.2c-0.4-1.3-0.8-2.6-0.7-3.9l2,0.2c-0.1,0.9,0.2,2,0.6,3.2
						C154.6,90.1,155,91.4,154.9,92.8z"/>
				</g>
				<g>
					<path class="st7" d="M154.6,93.4l-1.3-1.5c4.1-3.5,8.3-7,12.5-10.5c16.5-13.8,33.6-28.1,49.6-42.3l1.3,1.5
						c-16,14.3-33.1,28.6-49.7,42.4C162.9,86.5,158.7,90,154.6,93.4z"/>
				</g>
				<g>
					<path class="st7" d="M215.7,40.4l-0.1-0.4c-0.7-2.6,0-5.1,0.7-7.6c0.5-1.9,1-3.6,0.9-5.4l2-0.1c0.1,2.1-0.4,4.1-1,6
						c-0.6,2.3-1.2,4.5-0.7,6.5L215.7,40.4z"/>
				</g>
				<g>
					<path class="st7" d="M45,44.1c-2.6,0-5.6-0.5-6.8-2.7c-0.1-0.3-0.3-0.5-0.3-0.8c-0.4-1.1-0.3-2.2,0.2-3.3
						c1.1-2.2,4.2-4.2,9.1-5.8c3-1,5.1-1.3,8-0.3c1.6,0.5,4.5,1.5,5.2,3.7c0.3,1,0.1,2.1-0.8,3.2c-0.2,0.3-0.4,0.5-0.6,0.8l0,0
						c-3.1,3.4-8.3,4.6-9.9,4.8C48.3,43.9,46.7,44.1,45,44.1z M51.8,32.6c-1.2,0-2.4,0.3-4,0.8c-5.5,1.8-7.4,3.6-8,4.8
						c-0.3,0.6-0.3,1.2-0.1,1.8c0.1,0.2,0.1,0.3,0.2,0.5c1,1.8,5.3,1.9,8.8,1.3c2.8-0.5,6.6-1.9,8.7-4.2c0.2-0.2,0.3-0.4,0.5-0.6
						c0.4-0.6,0.6-1,0.5-1.4c-0.4-1.1-2.9-2-3.9-2.4C53.5,32.8,52.7,32.6,51.8,32.6z"/>
				</g>
				<g>
					<path class="st7" d="M39.8,40.9l-1.3-1.5c2.8-2.5,6.8-4,12-4.3c3.9-0.2,6.6,0.5,8.4,2.3l-1.4,1.4c-1.3-1.3-3.6-1.9-6.8-1.7
						C45.9,37.4,42.3,38.7,39.8,40.9z"/>
				</g>
				<g>
					<path class="st7" d="M85.7,31.8c-1.4,0-2.8-0.2-4.1-0.6c-1.8-0.5-2.2-1.5-2.3-2.2c-0.1-0.8,0.3-1.3,0.5-1.8
						c1.5-2.3,3.1-2.9,5.1-3.6c0.5-0.2,1.1-0.4,1.7-0.6L87,23l0.3,0c2.3-0.1,4.8,0,5.9,0.9c1.5,1.2,1.9,3.3,1.1,4.8
						c-0.6,1-1.6,1.6-2.3,1.9C89.9,31.4,87.8,31.8,85.7,31.8z M87.2,25c-0.5,0.2-1.1,0.4-1.6,0.6c-1.8,0.7-3,1.1-4.1,2.8
						c-0.1,0.2-0.3,0.4-0.3,0.5c0,0.1,0.2,0.3,0.9,0.5c2.9,0.8,6.1,0.6,8.9-0.6c0.7-0.3,1.2-0.7,1.4-1c0.4-0.6,0.1-1.7-0.6-2.3
						C91.4,25.1,89.9,24.9,87.2,25L87.2,25z"/>
				</g>
				<g>
					<path class="st7" d="M122.4,40c-1.4,0-2.8-0.2-4.2-0.6c-1.4-0.4-2.2-1.2-2.3-2.2c0-0.7,0.2-1.3,0.6-1.8
						c1.4-2.2,3.1-2.8,5.1-3.6c0.5-0.2,1.1-0.4,1.6-0.6l0.4-0.1l0.3,0c2.3-0.1,4.8,0,5.9,0.9c1.5,1.2,1.9,3.3,1.1,4.8
						c-0.5,1-1.5,1.5-2.3,1.9C126.6,39.5,124.5,40,122.4,40z M123.8,33.1c-0.5,0.2-1.1,0.4-1.5,0.6c-1.8,0.7-3,1.1-4.1,2.8
						c-0.2,0.4-0.3,0.5-0.3,0.6c0,0,0.3,0.3,0.9,0.4c2.9,0.9,6.1,0.6,8.9-0.6c0.5-0.3,1.2-0.6,1.4-1c0.4-0.7,0.1-1.7-0.6-2.3
						C128,33.2,126.5,33,123.8,33.1L123.8,33.1z"/>
				</g>
				<g>
					<path class="st7" d="M90.2,53.5c-0.1,0-0.3,0-0.4,0c-1,0-2.1-0.1-3.2-0.3c-2.4-0.4-3.9-1.6-3.8-3.3c0-1.2,0.9-2.4,2.3-2.8
						c1-0.3,2-0.2,3-0.1l-0.3,2c-0.8-0.1-1.5-0.2-2.2,0c-0.5,0.1-0.9,0.5-0.9,0.9c0,0.7,1.1,1.1,2.2,1.3c1,0.2,2,0.2,2.9,0.3
						c0.3,0,0.6,0,0.8-0.1c0.1-0.1,0.2-0.2,0.3-0.4c0.1-0.4,0-0.8-0.2-1.1c-0.3-0.4-0.7-0.7-1.4-1c-0.4-0.1-0.8-0.3-1.2-0.4l0.6-1.9
						c0.4,0.1,0.9,0.3,1.3,0.5c1,0.4,1.7,0.9,2.2,1.6c0.6,0.8,0.8,1.9,0.6,2.8c-0.2,0.8-0.7,1.4-1.4,1.7
						C91.1,53.4,90.6,53.5,90.2,53.5z"/>
				</g>
				<g>
					<path class="st7" d="M168,51.9c0,0-0.1,0-0.1,0c-1.2,0-2.3-0.1-3.3-0.3c-2.4-0.4-3.9-1.6-3.8-3.3c0-1.4,1.2-2.4,2.3-2.8
						c0.8-0.2,2.2-0.4,3.3-0.3l0.2,0c0.2,0.1,0.5,0.1,0.8,0.2c1,0.3,2.3,0.6,3,1.6c0.6,0.8,0.8,1.8,0.6,2.8
						c-0.2,0.8-0.7,1.4-1.4,1.7C169,51.8,168.4,51.9,168,51.9z M165.5,47.2c-0.6,0-1.3,0.1-1.9,0.3c-0.5,0.1-0.9,0.5-0.9,0.9
						c0,0.7,1.1,1.1,2.2,1.3c1,0.2,2,0.2,2.9,0.3c0.4,0,0.7,0,0.8-0.1c0.1-0.1,0.2-0.2,0.3-0.4c0.1-0.4,0-0.8-0.2-1.1
						c-0.3-0.4-1.2-0.7-1.9-0.9c-0.3-0.1-0.5-0.1-0.8-0.2C165.8,47.2,165.7,47.2,165.5,47.2z"/>
				</g>
				<g>
					<path class="st7" d="M180.8,39c-0.1,0-0.2,0-0.4,0c-1.1,0-2.1-0.1-3.2-0.3c-2.4-0.4-3.9-1.6-3.8-3.3c0-1.4,1.2-2.4,2.3-2.8
						c1-0.3,2-0.2,3-0.1l-0.3,2c-0.8-0.1-1.5-0.2-2.2,0c-0.5,0.1-0.9,0.5-0.9,0.9c0,0.7,1.1,1.1,2.2,1.3c1,0.2,2,0.2,2.9,0.3
						c0.3,0,0.6,0,0.8-0.1c0.1-0.1,0.2-0.2,0.3-0.4c0.1-0.4,0-0.8-0.2-1.1c-0.3-0.4-0.7-0.7-1.4-1c-0.4-0.2-0.8-0.3-1.2-0.4l0.6-1.9
						c0.4,0.1,0.9,0.3,1.3,0.5c1,0.4,1.6,0.9,2.2,1.6c0.6,0.8,0.8,1.9,0.6,2.8c-0.2,0.8-0.7,1.4-1.4,1.7
						C181.7,38.9,181.3,39,180.8,39z"/>
				</g>
				<g>
					<path class="st7" d="M148.9,42.8c-3.3,0-7.4-0.5-9-3c-0.6-0.9-0.8-2.1-0.6-3.3c0.8-4.5,7.4-5.4,10.6-5.2c0,0,0,0,0,0
						c1.8,0,7.3,0.6,9.6,3.3c0.9,1,1.2,2.2,1,3.5c-0.1,0.6-0.3,1.1-0.6,1.5c-1.9,3-7.4,3-10.4,3.1l-0.3,0
						C149,42.8,149,42.8,148.9,42.8z M148.8,33.2c-2.8,0-7.1,0.9-7.6,3.6c-0.1,0.7,0,1.4,0.3,1.9c0.9,1.4,3.6,2.1,7.5,2.1l0.3,0
						c2.2,0,7.5-0.1,8.8-2.2c0.2-0.2,0.2-0.5,0.3-0.8c0.1-0.7-0.1-1.3-0.5-1.9c-1.6-1.8-5.7-2.7-8.1-2.6l-0.1,0
						C149.5,33.3,149.2,33.2,148.8,33.2z"/>
				</g>
				<g>
					<path class="st7" d="M141.5,39.9l-2-0.3c0-0.4,0.2-0.7,0.4-1c0.4-0.7,1.2-1.2,2.5-1.6c3.2-1,6-1.5,8.7-1.5
						c3.3,0.1,6.3,1,8.5,2.7l-1.2,1.6c-1.9-1.4-4.5-2.2-7.4-2.3c-2.4,0-5.1,0.4-8,1.4c-1.1,0.3-1.3,0.7-1.4,0.8L141.5,39.9z"/>
				</g>
				<g>
					<path class="st7" d="M118.2,57.1c-3.4,0-7.6-0.6-9-3.4c-0.4-0.8-0.6-1.8-0.4-2.9c0.8-4.6,7.4-5.4,10.6-5.2
						c1.8,0,7.2,0.6,9.6,3.3c0.9,1,1.2,2.3,1,3.6c-0.1,0.5-0.2,0.9-0.5,1.2c-1.7,3.3-7.8,3.3-10.7,3.4l-0.2,0
						C118.6,57.1,118.4,57.1,118.2,57.1z M118.4,47.6c-2.8,0-7.1,0.9-7.5,3.6c-0.1,0.6-0.1,1.2,0.2,1.6c0.8,1.5,3.6,2.4,7.7,2.3
						l0.2,0c2.1,0,7.8-0.1,9-2.3c0.1-0.2,0.2-0.4,0.2-0.6c0.1-0.7-0.1-1.3-0.6-1.9c-1.6-1.9-6.1-2.6-8.1-2.6l-0.1,0
						C119,47.6,118.7,47.6,118.4,47.6z"/>
				</g>
				<g>
					<path class="st7" d="M110.6,54.2l-2-0.2c0.1-0.5,0.3-1,0.8-1.5c0.5-0.5,1.2-0.8,2.2-1.1c3.3-1,6.3-1.5,9.1-1.5
						c2.3,0,5.7,0.5,8.6,2.4c0.1,0,0.2,0.1,0.4,0.3l-1.3,1.6l-0.2-0.1c-2-1.3-4.6-2.1-7.5-2.1c-2.6,0-5.3,0.4-8.5,1.4
						c-0.6,0.2-1.1,0.4-1.4,0.7C110.7,54.1,110.6,54.2,110.6,54.2z"/>
				</g>
			</g>
		</g>
	</g>
	<g>
		<g>
			<g>
				<g>
					<path class="st7" d="M2,46.4c7.8-4.7,15.5-9.7,23.6-13.9c8.4-4.4,17.7-6.9,26.1-11.3c6.6-3.5,11.6-9.1,18-12.8
						C80.5,2.2,91.5,6.8,103,9c19,3.6,38,6.8,57.1,9.8c18.8,2.9,38.8,7.5,57.9,7.5c1.6,0,1.9-2.4,0.4-2.8
						c-20.2-5.3-42.1-6.4-62.8-9.8C133.9,10.1,112.4,6.2,91,2.1c-6-1.2-12-3.5-17.8-0.8c-7.7,3.6-13.6,10.5-20.7,14.9
						c-7.9,5-17.2,7.4-25.5,11.9c-9.1,5-17.3,11.1-25.5,17.4C0.9,45.9,1.4,46.8,2,46.4L2,46.4z"/>
				</g>
			</g>
		</g>
		<g>
			<g>
				<g>
					<path class="st7" d="M0.7,47.9c24.3,13.4,55,18.6,81.9,24.3c12.2,2.6,24.3,5.1,36.7,6c9.2,0.7,14.9,3.2,23.2,6.7
						c3.8,1.6,6,2,9.9,1.4c2.1-0.3,1.6-3.7-0.5-3.7c-6.8,0.1-11.4-4.4-17.5-6.6c-4.9-1.8-10-2-15.2-2.3C106,72.9,93,69.9,79.9,67.1
						c-13.1-2.8-26.1-5.8-39-9.4C27.8,54,15,48.5,1.7,45.5C0.3,45.2-0.7,47.2,0.7,47.9L0.7,47.9z"/>
				</g>
			</g>
		</g>
		<g>
			<g>
				<g>
					<path class="st7" d="M152.7,87.6c12.8-9.7,23.9-22,36-32.6c9.2-8,25.2-16.4,29.7-28.1c0.4-1.1-1.1-1.7-1.9-1.1
						c-11.1,9.5-22.3,19.3-33.3,29c-11,9.7-23.2,19.6-31.9,31.5C150.7,87,151.9,88.2,152.7,87.6L152.7,87.6z"/>
				</g>
			</g>
		</g>
		<g>
			<g>
				<g>
					<path class="st7" d="M0.6,46.7c-0.3,1.6-0.3,3.3-0.2,4.9c0.1,1.5-0.1,3.3,0.8,4.6c0.4,0.6,1.6,0.9,2,0c0.6-1.5,0.2-2.8,0-4.3
						c-0.3-1.8-0.5-3.6-1.1-5.2C1.8,46.1,0.8,45.9,0.6,46.7L0.6,46.7z"/>
				</g>
			</g>
		</g>
		<g>
			<g>
				<g>
					<path class="st7" d="M2.9,56.6c21.9,10,46.6,15.9,70.1,21c26.6,5.8,53.2,11.6,79.9,17.2c2,0.4,2.9-2.7,0.9-3.1
						C127.6,86,101.5,80.6,75.4,75C51.1,69.8,27.7,60,3.3,55.6C2.8,55.4,2.3,56.3,2.9,56.6L2.9,56.6z"/>
				</g>
			</g>
		</g>
		<g>
			<g>
				<g>
					<path class="st7" d="M153.3,85.1c-0.6,1.1-0.8,2.3-1,3.6c-0.2,1.3-0.7,2.8-0.2,4c0.4,1.1,1.8,1.4,2.5,0.3
						c0.7-1.1,0.5-2.5,0.6-3.8c0-1.3,0.1-2.7-0.4-3.9C154.6,84.6,153.7,84.4,153.3,85.1L153.3,85.1z"/>
				</g>
			</g>
		</g>
		<g>
			<g>
				<g>
					<path class="st7" d="M155.9,93.6c10.4-7.6,19.9-16.5,29.5-25c10.4-9.1,22.5-17.6,31.3-28.2c0.5-0.6-0.1-1.7-0.9-1.2
						c-10.7,6.9-19.7,16.8-29.4,25c-10.7,9.1-21.9,17.7-32.1,27.4C153.3,92.6,154.7,94.5,155.9,93.6L155.9,93.6z"/>
				</g>
			</g>
		</g>
		<g>
			<g>
				<g>
					<path class="st7" d="M217.9,26.8c-1,2.4-1.7,5.1-2.3,7.7c-0.5,2-0.9,4.2,0.2,6.1c0.5,0.9,2,0.5,2-0.5c-0.1-2.6,0-4.8,0.6-7.4
						c0.5-2,1-3.8,0.2-5.8C218.5,26.5,218.1,26.5,217.9,26.8L217.9,26.8z"/>
				</g>
			</g>
		</g>
		<g>
			<g>
				<g>
					<path class="st7" d="M59.1,37.7c2.7-4.1-3.4-6.4-6.7-6.7c-4.1-0.3-11.4,2.2-13.7,5.8c-2.5,3.9,1.4,6.6,5,6.9
						c5.6,0.5,12.2-1.4,15.6-6c0.3-0.4-0.4-0.9-0.7-0.5c-2.7,2.8-6.6,4.4-10.3,4.9c-2.9,0.4-11.4,0.5-8.1-4.8c1.3-2.1,4.8-3.3,7-4
						c1.7-0.6,3.5-1.1,5.2-1c1.9,0.1,8,1.6,6.2,5.1C58.4,37.7,58.9,38,59.1,37.7z"/>
				</g>
			</g>
		</g>
		<g>
			<g>
				<g>
					<path class="st7" d="M40.9,40c4.1-3.1,10.9-4.5,15.4-1.4c0.6,0.4,1.2-0.5,0.7-0.9c-4.2-4-12.7-1.3-16.5,2
						C40.4,39.8,40.7,40.2,40.9,40L40.9,40z"/>
				</g>
			</g>
		</g>
		<g>
			<g>
				<g>
					<path class="st7" d="M87,23.8c-2.1,0.8-7.2,1.9-7.1,5.1c0.1,3,6.5,2.7,8.3,2.4c2.8-0.4,7.4-2.1,5.8-5.8
						C92.8,23,89.3,23.1,87,23.8c-0.2,0-0.3,0.3,0,0.4c1.3,0.3,2.8,0.2,4,0.5c3.3,0.9,1.8,3.8-0.5,4.7c-1.1,0.4-2.2,0.6-3.4,0.8
						c-2.1,0.2-8.3-0.1-4.9-3.4c1.3-1.3,3.2-1.8,4.9-2.6C87.3,24,87.2,23.8,87,23.8L87,23.8z"/>
				</g>
			</g>
		</g>
		<g>
			<g>
				<g>
					<path class="st7" d="M123.6,31.9c-2.1,0.8-7.2,1.9-7.1,5.1c0.1,3,6.5,2.7,8.3,2.4c2.8-0.4,7.4-2.1,5.8-5.8
						C129.4,31.1,125.9,31.2,123.6,31.9c-0.2,0-0.3,0.3,0,0.4c1.3,0.3,2.8,0.2,4,0.5c3.3,0.9,1.8,3.8-0.5,4.7
						c-1.1,0.4-2.2,0.6-3.4,0.8c-2.1,0.2-8.3-0.1-4.9-3.4c1.3-1.3,3.2-1.8,4.9-2.6C123.9,32.1,123.8,31.9,123.6,31.9L123.6,31.9z"/>
				</g>
			</g>
		</g>
		<g>
			<g>
				<g>
					<path class="st7" d="M88.1,47.9c-1.8-0.5-4.7-0.6-4.8,2c-0.1,2.3,2.8,2.9,4.5,3.1c2,0.2,5,0.6,5-2.2c0.1-2.4-2.2-3.4-4.2-3.6
						c-0.4,0-0.5,0.5-0.2,0.7c0.8,0.5,2,1,2.6,1.8c0.6,0.8,0.6,1.7-0.6,2.1c-0.5,0.1-1.2,0-1.7-0.1c-1-0.1-2.4-0.1-3.3-0.7
						c-1-0.7-1-1.5,0-2.3c0.7-0.6,1.9-0.5,2.7-0.5C88.2,48.2,88.3,47.9,88.1,47.9L88.1,47.9z"/>
				</g>
			</g>
		</g>
		<g>
			<g>
				<g>
					<path class="st7" d="M166,46.3c-1.8-0.5-4.7-0.6-4.8,2c-0.1,2.3,2.8,2.9,4.5,3.1c2,0.2,5,0.6,5-2.2c0.1-2.4-2.2-3.4-4.2-3.6
						c-0.4,0-0.5,0.5-0.2,0.7c0.8,0.5,2,1,2.6,1.8c0.6,0.8,0.6,1.7-0.6,2.1c-0.5,0.1-1.2,0-1.7-0.1c-1-0.1-2.4-0.1-3.3-0.7
						c-1-0.7-1-1.5,0-2.3c0.7-0.6,1.9-0.5,2.7-0.5C166.1,46.6,166.2,46.3,166,46.3L166,46.3z"/>
				</g>
			</g>
		</g>
		<g>
			<g>
				<g>
					<path class="st7" d="M178.7,33.4c-1.8-0.5-4.7-0.6-4.8,2c-0.1,2.3,2.8,2.9,4.5,3.1c2,0.2,5,0.6,5-2.2c0.1-2.4-2.2-3.4-4.2-3.6
						c-0.4,0-0.5,0.5-0.2,0.7c0.8,0.5,2,1,2.6,1.8c0.6,0.8,0.6,1.7-0.6,2.1c-0.5,0.1-1.2,0-1.7-0.1c-1-0.1-2.4-0.1-3.3-0.7
						c-1-0.7-1-1.5,0-2.3c0.7-0.6,1.9-0.5,2.7-0.5C178.8,33.7,178.9,33.4,178.7,33.4L178.7,33.4z"/>
				</g>
			</g>
		</g>
		<g>
			<g>
				<g>
					<path class="st7" d="M149.9,31.8c-3.8-0.4-11.4,0.9-10.3,6.4c0.9,4.3,7.1,4.4,10.5,4.3c3.4,0,10.6-0.3,10.3-5.3
						C160.1,32.8,153.3,31.6,149.9,31.8c-0.7,0.1-0.7,1.1,0,1.2c2.4,0.3,8.2,0.7,8.9,3.8c0.9,4.1-6.3,4.1-8.7,4.2
						c-2.3,0-5.8,0.3-7.7-1.3c-5.4-4.4,4.6-7.3,7.5-7.3C150.3,32.4,150.2,31.9,149.9,31.8L149.9,31.8z"/>
				</g>
			</g>
		</g>
		<g>
			<g>
				<g>
					<path class="st7" d="M141.6,39.9c1.2-2.2,6.2-2.5,8.3-2.6c3.1-0.1,5.4,1,8.2,2.2c0.4,0.2,0.8-0.3,0.5-0.7
						c-2.4-2.6-6.6-3.1-10-2.7c-2.3,0.3-6.8,0.9-7.4,3.6C141.1,39.9,141.5,40.1,141.6,39.9L141.6,39.9z"/>
				</g>
			</g>
		</g>
		<g>
			<g>
				<g>
					<path class="st7" d="M119.5,46.2c-3.8-0.4-11.4,0.9-10.3,6.4c0.9,4.3,7.1,4.4,10.5,4.3c3.4,0,10.6-0.3,10.3-5.3
						C129.7,47.1,122.9,45.9,119.5,46.2c-0.7,0.1-0.7,1.1,0,1.2c2.4,0.3,8.2,0.7,8.9,3.8c0.9,4.1-6.3,4.1-8.7,4.2
						c-2.3,0-5.8,0.3-7.7-1.3c-5.4-4.4,4.6-7.3,7.5-7.3C119.9,46.7,119.8,46.2,119.5,46.2L119.5,46.2z"/>
				</g>
			</g>
		</g>
		<g>
			<g>
				<g>
					<path class="st7" d="M111.2,54.2c1.2-2.2,6.2-2.5,8.3-2.6c3.1-0.1,5.4,1,8.2,2.2c0.4,0.2,0.8-0.3,0.5-0.7
						c-2.4-2.6-6.6-3.1-10-2.7c-2.3,0.3-6.8,0.9-7.4,3.6C110.7,54.3,111.1,54.5,111.2,54.2L111.2,54.2z"/>
				</g>
			</g>
		</g>
	</g>
</g>
</svg>
