<?xml version="1.0" encoding="utf-8"?>
<!-- Generator: Adobe Illustrator 19.1.0, SVG Export Plug-In . SVG Version: 6.00 Build 0)  -->
<svg version="1.1" id="_x2018_ëîé_x5F_1" xmlns="http://www.w3.org/2000/svg" xmlns:xlink="http://www.w3.org/1999/xlink"
	 x="0px" y="0px" viewBox="0 0 1900.7 844.3" style="enable-background:new 0 0 1900.7 844.3;" xml:space="preserve">
<style type="text/css">
	.st0{fill-rule:evenodd;clip-rule:evenodd;fill:#DB8B2A;}
	.st1{fill-rule:evenodd;clip-rule:evenodd;fill:#E3E82D;}
	.st2{fill-rule:evenodd;clip-rule:evenodd;fill:#F3C6EF;}
	.st3{fill-rule:evenodd;clip-rule:evenodd;fill:#FDE7FC;}
	.st4{fill-rule:evenodd;clip-rule:evenodd;fill:#A55669;}
	.st5{fill-rule:evenodd;clip-rule:evenodd;fill:#8E3A4F;}
	.st6{fill-rule:evenodd;clip-rule:evenodd;fill:#57271B;}
	.st7{fill-rule:evenodd;clip-rule:evenodd;fill:#7F3C22;}
	.st8{fill-rule:evenodd;clip-rule:evenodd;fill:#FFD140;}
	.st9{fill-rule:evenodd;clip-rule:evenodd;fill:#DB150C;}
	.st10{fill-rule:evenodd;clip-rule:evenodd;fill:#EF442A;}
	.st11{fill-rule:evenodd;clip-rule:evenodd;fill:#B02018;}
	.st12{fill-rule:evenodd;clip-rule:evenodd;fill:#646614;}
	.st13{fill-rule:evenodd;clip-rule:evenodd;fill:#FFFFFF;}
	.st14{fill:#FFFFFF;}
</style>
<g>
	<g>
		<path class="st8" d="M911.3,0C727.7,165.4,503,171,286.2,164.3c97,136.3-68.5,158.5-153.8,18l-115.4,30
			C38.7,358,191.1,474,370.7,542.8c223.6,85.7,449.9,172.6,480,257.8l215.4-162.3c-124.3-41.6-96.7-182.1,94.6-51.9
			c208.8-127.7,477.9-181.6,741.8-148.6c-65-74.4-136.6-126.4-225.4-188c-81.7,22.8-164.1,6.4-199.1-22.9
			c-23.9-20-25.7-45.9,10-69.5L911.3,0L911.3,0z M658.1,479.8c32.7,0.4,132.8-17.4,82.3-78.9c-23.8-29-110.8-60.2-173.6-45.4
			c-40.1,9.4-59.2,43.5-29.5,78.7C564.4,466.4,602.9,479.2,658.1,479.8L658.1,479.8z M1158.8,291c59.7,25.6,93.7,64.6,88.4,91.3
			c-4.6,23.1-51.8,39.7-123.3,16.5c-71.7-23.3-91.2-71.8-76.7-94.1C1066.6,274.8,1106.7,268.6,1158.8,291L1158.8,291z M990.9,166.1
			c-3-15.6-64.5-64.6-156.4-42.2c-43.4,10.6-73.9,51.5-32.1,82.3c26.6,19.6,65.9,28.5,118.2,15.2
			C975.5,207.5,996.2,193.2,990.9,166.1L990.9,166.1z"/>
		<path class="st0" d="M23.7,243.6C61,374.6,204.2,479,370.7,542.8c223.6,85.7,449.9,172.6,480,257.8l184.9-139.4
			c8.5-6.3,29.1-20.8,29.1-20.8s-0.9,25.5-1.4,32.9L842.9,844.3c-55-104.6-251.3-180.9-474.9-266.5C188.3,509,24.9,393.8,0,249.5
			l16.4-38.4L23.7,243.6L23.7,243.6z M1862.7,433.4c10.7,1,38,5,38,5c-0.4,5.7-3.2,18.1-4.8,30.6c-264-37.1-529.4,27.2-738.3,154.9
			c-91.6-62.3-145.6-63.2-163.4-42.6c-19.2-46.2,35-84.4,166.4,5C1359,465,1611.7,410.3,1862.7,433.4L1862.7,433.4z M525.8,415.2
			c-10.5-27.8,8.3-52,41-59.7c62.8-14.8,149.8,16.4,173.6,45.4c17.7,21.6,16.9,37.7,6.9,49.6c-2.2-4.6-5.4-9.4-9.7-14.6
			c-23.8-29-110.8-60.2-173.6-45.4C546.5,394.7,533,403.6,525.8,415.2L525.8,415.2z M1046,337.5c-4.8-12.8-4.1-24.6,1.3-32.8
			c19.3-29.8,59.5-36,111.6-13.7c59.7,25.6,93.7,64.6,88.4,91.3c-0.8,4.2-3,8.1-6.5,11.7c-10.7-23.1-40.7-49.2-84.6-68
			C1105.3,304.2,1065.8,309.6,1046,337.5L1046,337.5z M307,199.9c10.6,24.1,11,42.9,4.3,56c-3.4-15.8-12.3-34.8-27.8-56.7
			c1.1-8.9,3.5-33.1,3.5-33.1S302.6,190.1,307,199.9L307,199.9z M786.3,188.3c-13.8-27,13-55.8,48.3-64.4
			c91.9-22.4,153.4,26.6,156.4,42.2c2.1,10.9,0,19.8-6.9,27.4c-15.5-19.6-72.4-54-152.2-34.6C812.2,163.7,795.1,174.8,786.3,188.3
			L786.3,188.3z M1463.1,184c5-11.9,14.9-20.2,23.2-24.5l5.9,32.3c-11.5,7.6-19.8,15.5-25,23.4
			C1460.4,205.4,1458.6,194.8,1463.1,184L1463.1,184z"/>
	</g>
	<path class="st8" d="M1544.2,103c0.1,1.2-0.7,1.9-1.7,2.1c-1,0.2-1.8-0.1-2.2-1c0-0.1-0.2-0.6-0.2-1.1c0-0.6,0.2-1.2,0.9-1.5l0,0
		c0.9-0.6,2.2-0.4,2.8,0.6C1544.1,102.3,1544.2,102.7,1544.2,103L1544.2,103z M1574.6,106.4c0.3-0.1,0.7-0.2,1-0.2
		c1.5-0.2,2.8,0.4,3.6,1.8c0.7,1.1,0.8,3.3,0.6,4c-0.5,2.1-2.7,4.3-5.1,5c-1.9,0.6-3.9,0.4-5.4-0.5c-2.5-1.7-1.9-4.5-0.8-6.3
		C1569.5,108.4,1572.2,106.8,1574.6,106.4L1574.6,106.4z M1326.7,671.8c-0.9,0.9-3.5,2.1-6.1,1.9c-2.7-0.3-5.4-2.2-6.3-3.1
		c-1.9-1.9-3.5-5.2-3.7-7.9c-0.1-2,0.4-3.8,1.4-5.1c1.8-2.4,4.2-3,6.8-2.5c2,0.4,4.5,1.9,6.3,4.2c2,2.4,3.3,5.4,3.4,7.5
		C1328.7,668.9,1328,670.6,1326.7,671.8L1326.7,671.8z M1555.7,146.7c-0.5,0.6-1.2,1.1-1.9,1.3c-1,0.3-1.9,0.2-2.7-0.2
		c-0.7-0.4-1.4-1-1.8-2.3c-0.2-0.9-0.2-2,0.5-3.1c0.6-0.9,1.9-1.9,2.9-2.2c2.2-0.8,3.8,0.3,4.5,1.6c0.3,0.5,0.4,1.1,0.3,1.8
		c-0.1,0.6-0.4,1.5-1.1,2.3C1556.3,146.3,1556,146.5,1555.7,146.7L1555.7,146.7z M1112.3,375.4c-0.2,0.7-0.6,1.3-1.3,1.7
		c-1.3,0.7-3,0.2-3.7-1.1c-0.3-0.6-0.4-1.1-0.4-1.5c0.1-1,0.5-1.9,1.2-2.3c1.3-0.8,2.9-0.7,3.8,0.6c0.7,1,0.6,1.7,0.6,2.2
		C1112.5,375.1,1112.4,375.3,1112.3,375.4L1112.3,375.4z M272.3,233.2c2-0.6,4-0.3,5.7,1.3c0.9,0.8,1.7,2,1.7,3.8
		c0,1.7-1.4,4.8-2,5.4c-1.3,1.4-3.8,3.8-6.2,4.5c-2,0.6-3.9,0.4-5.7-0.8c-1.6-1.1-2.4-2.5-2.6-4c-0.2-1.5,0.1-3.3,1.2-5
		c1.1-1.7,3-3.4,4.5-4.2c1.2-0.7,2.3-0.9,3.1-1C272.1,233.2,272.2,233.2,272.3,233.2L272.3,233.2z"/>
	<path class="st13" d="M1226.4,449.3c-1.3-0.3-3.7,0.1-5.4,0.9c-3.2,1.5-3.1,4.2-2.7,5c0.4,0.9,1,1.5,1.9,1.8
		c0.6,0.2,1.4,0.2,1.9,0.2c1.1,0.1,3.7-0.4,5.1-1.4c1.2-0.9,1.8-2,1.7-3.4C1229,450.8,1228.1,449.8,1226.4,449.3z"/>
	<path class="st13" d="M684,523.8c-2.1-0.1-3.2,1.3-3.2,2.7c0,1.6,0.9,2.9,3.1,3c1.3,0.1,2.6-1.3,2.6-2.8c0-0.1,0-0.4,0-0.4
		C686.4,524.1,684.2,523.8,684,523.8z"/>
	<path class="st13" d="M1246.8,442.8c-0.6-0.4-1.3-0.4-1.9-0.2c0,0,0,0,0,0c-0.1,0-0.4,0.2-0.5,0.3c-0.3,0.2-0.5,0.3-0.6,0.5
		c-0.7,0.8-0.5,1.6-0.3,2.1c0.2,0.4,0.5,1,1.6,1.1c0.1,0,0.2,0,0.3,0c0.4,0.1,0.9,0,1.4-0.2c0.8-0.5,1.2-1.5,0.9-2.3
		C1247.5,443.5,1247.2,443.1,1246.8,442.8z"/>
	<path class="st13" d="M452.5,286.6c-2.5,0.6-3.9,1.9-4.7,3.4c-1.1,1.9-1.1,4.3-0.3,6.4c0.2,1.7,1.1,3.1,2.1,3.9
		c0.9,0.7,2.3,1.5,4.3,1.2c0.6,0,1.2-0.1,1.8-0.2c3.9-0.6,5.2-4,5.1-7.3c-0.1-2.5-1-5-2.1-6.1C457.4,286.7,455.5,285.8,452.5,286.6z
		"/>
	<path class="st13" d="M969.7,74.1c-0.1,0.1-0.3,0.2-0.4,0.2c-2.4,1.6-3,4.7-1.4,7c1.3,1.9,3.2,2.6,5,2.3c2.8-0.5,4-2.1,4.6-3.6
		c0.9-2,0.2-4.4-0.9-5.5C974.8,72.7,971.8,72.5,969.7,74.1z"/>
</g>
</svg>
