<?xml version="1.0" encoding="utf-8"?>
<!-- Generator: Adobe Illustrator 19.1.0, SVG Export Plug-In . SVG Version: 6.00 Build 0)  -->
<svg version="1.1" id="Layer_1" xmlns="http://www.w3.org/2000/svg" xmlns:xlink="http://www.w3.org/1999/xlink" x="0px" y="0px"
	 viewBox="0 0 208.3 57.4" style="enable-background:new 0 0 208.3 57.4;" xml:space="preserve">
<style type="text/css">
	.st0{fill:#97DD24;}
	.st1{fill:#E05C46;}
	.st2{fill:#FAB239;}
	.st3{fill:#8BC53F;}
	.st4{fill:#CCEF89;}
	.st5{fill:#FECF83;}
	.st6{fill:#FE6600;}
	.st7{fill:#892F64;}
	.st8{fill:#FFFFFF;}
	.st9{fill:#E04B2C;}
	.st10{fill:#6E2F8C;}
	.st11{fill:#FDC400;}
	.st12{fill:#E5FCBB;}
	.st13{fill:#FFEFDC;}
	.st14{fill:#F48371;}
	.st15{fill:#FF9300;}
	.st16{fill:#FFAD4A;}
	.st17{fill:#F7D5EE;}
	.st18{fill:#AF6D9B;}
	.st19{fill:#E2AA59;}
</style>
<g>
	<g>
		<g>
			<g>
				<path class="st13" d="M1.9,32.1c-0.1,1,0.1,2,0.4,2.9c1.2,3.1,4.5,4.8,7.6,6.1c13.1,5.4,27.3,8.1,41.4,8
					c9.7-0.1,19.5-1.5,29.1,0.1c8.7,1.5,16.8,5.5,25.6,6.4c15.3,1.5,29.9-6.4,45.2-7.6c5.6-0.4,11.3,0,16.9-0.7
					c9.8-1.4,18.5-6.5,27-11.5c3.6-2.1,7.4-4.4,9.7-8s2.6-8.8-0.5-11.6c-2.1-1.9-5-2.4-7.7-3.1c-4.2-1.2-5.5-4.5-10.4-5.5
					c-2.2-0.6-4.4-1.2-6.5-1.7L1.9,32.1z"/>
			</g>
		</g>
		<g>
			<g>
				<g>
					<path class="st7" d="M0,32.6c1.3,9.2,11.6,11.6,19.4,13.9c12.9,3.8,25.9,4.8,39.2,4.2c8.3-0.3,16.3-0.9,24.5,1
						c5.9,1.3,11.5,3.6,17.5,4.9c12.2,2.5,23.6-0.8,35.3-3.8c12.8-3.3,26.4-1.4,38.9-5.2c9.6-2.9,22.4-8.6,29.2-16.1
						c4-4.4,6.4-11.9,1.4-16.6c-2.9-2.7-7.2-2.6-10.6-4c-5.3-2.2-9.2-5-14.9-6.5c-1.7-0.5-2.4,2.2-0.7,2.6c5.4,1.3,9.3,3.3,14.2,5.8
						c-0.3-0.1,5.8,2.8,5.4,2.4c12.3,10.8-1.1,16.9-7.6,20.7c-4.6,2.7-9.3,5.3-14.3,7.2c-9.6,3.6-19.4,2.2-29.4,3.5
						c-8.4,1.1-16.5,4-24.8,5.8c-19.9,4.2-37.1-6.1-57-5.7c-10.7,0.2-21.1,1-31.7-0.7c-8.1-1.3-29-4.1-30.5-14.3
						C3.4,29.1-0.4,30.1,0,32.6L0,32.6z"/>
				</g>
			</g>
		</g>
	</g>
	<g>
		<g>
			<g>
				<path class="st13" d="M179.6,5.6c-8-2-15.8-3.4-24.4-3.9c-24.7-1.4-49,9.4-73.7,7.6c-6.3-0.5-12.6-1.8-18.9-1.7
					c-10.3,0-20.3,3.5-30.1,6.9c-6,2.1-12,4.2-18,6.3c-3.3,1.2-6.7,2.4-9.3,4.7c-1.8,1.7-3.2,4.1-3.3,6.5L179.6,5.6z"/>
			</g>
		</g>
		<g>
			<g>
				<g>
					<path class="st7" d="M180,4.3c-15.4-4.1-30.5-5.5-46.4-3.2C114.9,3.8,96.8,8.9,77.7,7c-7.6-0.7-14.8-1.9-22.5-0.8
						c-9.3,1.2-18.1,4.6-26.9,7.7C18.5,17.4,2.7,19.5,0,31.6c-0.5,2.4,3.2,3.5,3.7,1c2-9.1,14.8-11.1,22.1-13.7
						c6.7-2.4,13.5-4.9,20.4-6.8c15.6-4.3,30.1,0,45.9-0.8c13.2-0.6,26.1-3.9,39.1-6c16.5-2.6,31.8-1.9,48.1,1.6
						C181,7.3,181.7,4.7,180,4.3L180,4.3z"/>
				</g>
			</g>
		</g>
	</g>
	<g>
		<g>
			<g>
				<ellipse class="st11" cx="107.4" cy="20.7" rx="50.7" ry="16.4"/>
			</g>
		</g>
		<g>
			<g>
				<g>
					<path class="st7" d="M107.4,3.7c-13.5-1.2-29.3,0-41.8,5.6c-4.5,2-10.8,5.6-10.7,11.3c0,6.5,7.8,10.2,12.8,12.2
						c12.4,4.9,26.6,6.1,39.8,6c13.2,0,27.4-1.2,39.8-6.1c5-2,12.7-5.6,12.7-12.1c0-6.3-7.4-9.9-12.3-11.9
						c-12.6-5.2-26.8-6.4-40.2-4.9c-0.4,0-0.6,0.7-0.1,0.8c9.2,1.2,18.6,2.1,27.6,4.1c5.7,1.2,16.4,3.2,20,8.7
						c9.4,14.4-39.3,17.9-45.7,18c-10.3,0.1-20.7-0.7-30.7-3c-5.2-1.2-18.3-3.9-19.5-10.4C56.1,7.6,100.2,5.6,107.4,4.7
						C108.1,4.7,108.1,3.8,107.4,3.7z"/>
				</g>
			</g>
		</g>
	</g>
	<g>
		<g>
			<g>
				<path class="st7" d="M13.9,33.4c14,8.7,30.1,8.2,46,8.4C70.8,42,81,43.2,91.5,46.6c7.6,2.5,14.3,4.1,22.3,2.8
					c10.6-1.8,20.2-5.8,31-6.6c8.6-0.7,17-1.1,25.4-3.1c9.3-2.3,31.7-7.5,33.3-19c0.1-1-1.3-1.4-1.5-0.4c-2,8.3-18.9,13.4-25.6,15.6
					c-8.4,2.7-16.9,4-25.7,4.6c-6.5,0.4-12.8,0.7-19.2,2.1c-8.2,1.9-16.1,5.6-24.7,5.5c-8.7-0.2-16.6-4.4-24.9-6.2
					c-6-1.3-12.2-1.6-18.3-1.7c-17.1-0.3-33.9,1.1-49.6-7C13.9,33.2,13.8,33.3,13.9,33.4L13.9,33.4z"/>
			</g>
		</g>
	</g>
</g>
</svg>
