<?xml version="1.0" encoding="utf-8"?>
<!-- Generator: Adobe Illustrator 19.1.0, SVG Export Plug-In . SVG Version: 6.00 Build 0)  -->
<svg version="1.1" id="Layer_1" xmlns="http://www.w3.org/2000/svg" xmlns:xlink="http://www.w3.org/1999/xlink" x="0px" y="0px"
	 viewBox="0 0 199.6 74.2" style="enable-background:new 0 0 199.6 74.2;" xml:space="preserve">
<style type="text/css">
	.st0{fill:#97DD24;}
	.st1{fill:#E05C46;}
	.st2{fill:#FAB239;}
	.st3{fill:#8BC53F;}
	.st4{fill:#CCEF89;}
	.st5{fill:#FECF83;}
	.st6{fill:#FE6600;}
	.st7{fill:#892F64;}
	.st8{fill:#FFFFFF;}
	.st9{fill:#E04B2C;}
	.st10{fill:#6E2F8C;}
	.st11{fill:#FDC400;}
	.st12{fill:#E5FCBB;}
	.st13{fill:#FFEFDC;}
	.st14{fill:#F48371;}
	.st15{fill:#FF9300;}
	.st16{fill:#FFAD4A;}
	.st17{fill:#F7D5EE;}
	.st18{fill:#AF6D9B;}
	.st19{fill:#E2AA59;}
</style>
<g>
	<g>
		<g>
			<g>
				<path class="st1" d="M1.7,29.1c-1,9.2-1.7,19.3,4.3,26.7c5.1,6.4,14,9.3,22.5,11.3c20.1,4.6,40.9,5.6,61.6,5.3
					c33.8-0.5,68.9-4.7,96.7-21.8c2.9-1.8,5.7-3.7,7.7-6.3c4.8-6.2,3.7-14.6,1.9-22L1.7,29.1z"/>
			</g>
		</g>
		<g>
			<g>
				<g>
					<path class="st7" d="M1.3,29C-3,48.6,4.5,62.1,23.9,67.5c24.5,6.9,51.1,7.2,76.4,6.3c23.6-0.9,47.5-3.9,69.5-12.8
						c8.6-3.5,20.1-7.9,26-15.6c5.3-6.9,4.3-15.7,2-23.6c-0.5-1.6-2.7-0.9-2.5,0.7c0.8,5.1,2,11.1,0.3,16.2
						c-2.3,7-9.3,10.4-15.2,13.6c-8.6,4.6-17.7,8-27.1,10.6c-17.8,4.9-36.3,6.8-54.7,7.5c-19.6,0.7-39.5,0.4-58.9-2.8
						c-8.8-1.4-18.9-3-26.6-7.8C1.8,52.8,2.5,40.7,2.2,29.1C2.2,28.6,1.4,28.5,1.3,29L1.3,29z"/>
				</g>
			</g>
		</g>
	</g>
	<g>
		<g>
			<g>
				<path class="st1" d="M195.8,17.9c0.3-5-5.2-8.6-10.2-10.5c-9.5-3.6-19.9-4.8-30.2-5.3c-13.5-0.6-27.1-0.1-40.6,0.5
					C98.6,3.4,82.3,4,66,4.7c-17.9,0.7-36.5,1.7-52.2,9.4c-3.1,1.5-6.1,3.4-8.3,5.8C0.9,25.4,0.7,33.2,4,39.4
					c3.3,6.2,9.6,10.8,16.4,13.6c6.9,2.9,14.4,4.1,21.9,5.1c28.2,3.8,57.1,3.8,84.8-2c8-1.7,15.8-3.9,23.9-5.4
					c8.6-1.6,17.7-2.5,25.4-6.4c7.1-3.5,12.4-9.3,17.6-14.9c1-1.1,2.1-2.2,2.7-3.5c1.3-2.5,1-5.6-0.7-7.9L195.8,17.9z"/>
			</g>
		</g>
		<g>
			<g>
				<g>
					<path class="st7" d="M196.8,17.9C196.6,6.7,181.7,3.7,173,2.1C156.3-1,139,0,122.2,0.7c-19.3,0.7-38.6,1.5-57.8,2.4
						c-15.7,0.7-31.8,1.5-46.5,7.4C7.5,14.6-1.8,21.7,0.3,34c2,11.9,13.6,19,24.2,22.3c15.5,4.9,33.2,5.7,49.3,6.1
						c18,0.5,36.1-0.9,53.8-4.6c9.1-1.9,18-4.3,27.1-5.9c8.2-1.5,16.6-2.6,24-6.8c8-4.5,25.7-17,18-27.5c-0.6-0.8-1.9-0.3-1.6,0.7
						c2.6,9.6-12.7,21-19.7,24.5c-6.8,3.4-14.4,4.3-21.7,5.6c-16.3,2.9-32,7.6-48.5,9.3c-16,1.7-32.1,1.6-48.1,0.2
						c-16.1-1.4-40-2.3-50-17.2C-16.9,5.1,77.2,6,94.2,5.2c16.1-0.7,32.2-1.7,48.3-1.6c12.4,0.1,48.4-1.7,52.4,14.5
						C195.1,19.3,196.9,19.1,196.8,17.9L196.8,17.9z"/>
				</g>
			</g>
		</g>
	</g>
	<g>
		<g>
			<g>
				<path class="st7" d="M16,21c20,12.8,37.6,28.3,61.7,33.3c0.9,0.2,1.5-1.1,0.7-1.5c-11.5-6.3-24.7-8.2-35.4-16.1
					c-8.7-6.3-16.2-12.9-26.6-16.2C15.9,20.3,15.7,20.8,16,21L16,21z"/>
			</g>
		</g>
	</g>
	<g>
		<g>
			<g>
				<path class="st7" d="M38.1,18.4c11.6,8.2,26,18.6,39.6,23c4.7,1.6,9.1,1.8,13.6,4.3c2.5,1.4,4.7,3.4,7.1,5c4.5,3,8.6,5,14.2,4.8
					c1.5-0.1,1.5-2.2,0-2.3c-8.4-0.5-13.1-5.8-19.9-9.8c-4.8-2.9-10.2-3.3-15.4-5.2c-13.5-5.1-25.3-14.9-38.3-21.2
					C37.9,16.4,37.2,17.8,38.1,18.4L38.1,18.4z"/>
			</g>
		</g>
	</g>
	<g>
		<g>
			<g>
				<path class="st7" d="M62.6,13.6c9.6,9.9,22.8,16,34.9,22c11.6,5.7,23.5,6.6,35.6,10.7c0.8,0.3,1.3-1,0.6-1.3
					c-11-5.5-23.4-6.4-34.6-12c-12.4-6.1-24-13.1-35.7-20.4C62.7,12.2,62.1,13.1,62.6,13.6L62.6,13.6z"/>
			</g>
		</g>
	</g>
	<g>
		<g>
			<g>
				<path class="st7" d="M88.4,13c8.7,6.5,19,8.8,29,12.6c11.9,4.5,23,10.6,34.8,15.5c0.9,0.4,1.4-1,0.6-1.5
					c-9.3-5.7-19.4-10.5-29.6-14.6c-11.3-4.5-23.8-6.6-34.3-13C88.3,11.6,87.8,12.5,88.4,13L88.4,13z"/>
			</g>
		</g>
	</g>
	<g>
		<g>
			<g>
				<path class="st7" d="M125.7,11.8c7.3,5.3,14.8,7.7,23.1,11c7.8,3.2,14.5,8.3,22.8,10.5c0.8,0.2,1.3-0.9,0.6-1.3
					c-6.1-3.8-13-7.7-19.5-10.7c-8.6-4-17.8-6-26.3-10.5C125.6,10.5,125.1,11.4,125.7,11.8L125.7,11.8z"/>
			</g>
		</g>
	</g>
	<g>
		<g>
			<g>
				<path class="st7" d="M160,12.6c6,5,12,13.4,20.7,12.7c0.8-0.1,1-1.2,0.2-1.5c-4.5-1.3-8.3-3.1-12-6.1c-2.7-2.1-5.3-4.3-8.1-6.2
					C160.2,11.2,159.4,12.1,160,12.6L160,12.6z"/>
			</g>
		</g>
	</g>
</g>
</svg>
