<?xml version="1.0" encoding="utf-8"?>
<!-- Generator: Adobe Illustrator 19.1.0, SVG Export Plug-In . SVG Version: 6.00 Build 0)  -->
<svg version="1.1" id="_x2018_ëîé_x5F_1" xmlns="http://www.w3.org/2000/svg" xmlns:xlink="http://www.w3.org/1999/xlink"
	 x="0px" y="0px" viewBox="0 0 1586.8 608.2" style="enable-background:new 0 0 1586.8 608.2;" xml:space="preserve">
<style type="text/css">
	.st0{fill-rule:evenodd;clip-rule:evenodd;fill:#DB8B2A;}
	.st1{fill-rule:evenodd;clip-rule:evenodd;fill:#E3E82D;}
	.st2{fill-rule:evenodd;clip-rule:evenodd;fill:#F3C6EF;}
	.st3{fill-rule:evenodd;clip-rule:evenodd;fill:#FDE7FC;}
	.st4{fill-rule:evenodd;clip-rule:evenodd;fill:#A55669;}
	.st5{fill-rule:evenodd;clip-rule:evenodd;fill:#8E3A4F;}
	.st6{fill-rule:evenodd;clip-rule:evenodd;fill:#57271B;}
	.st7{fill-rule:evenodd;clip-rule:evenodd;fill:#7F3C22;}
	.st8{fill-rule:evenodd;clip-rule:evenodd;fill:#FFD140;}
	.st9{fill-rule:evenodd;clip-rule:evenodd;fill:#DB150C;}
	.st10{fill-rule:evenodd;clip-rule:evenodd;fill:#EF442A;}
	.st11{fill-rule:evenodd;clip-rule:evenodd;fill:#B02018;}
	.st12{fill-rule:evenodd;clip-rule:evenodd;fill:#646614;}
	.st13{fill-rule:evenodd;clip-rule:evenodd;fill:#FFFFFF;}
	.st14{fill:#FFFFFF;}
</style>
<g>
	<path class="st6" d="M1586.6,188.1c3.2,11.2-34.5,206-35.7,210.3c-31.2,110.7-355.4,191.2-765.6,207.5
		c-411.4,16.3-752-58.5-783.7-168.9c-2.9-10.1-0.9-27.1,1-37.5c9.8-53,19.5-111.6,28.8-162.3l287.1-2.5
		c126.6-30.3,282.3-51.3,451-58c168.7-6.7,325.4,1.9,453.9,22.1L1586.6,188.1L1586.6,188.1z"/>
	<path class="st7" d="M800.7,2.2c429.5-17,781.7,65.3,786.1,183.7c4.4,118.4-340.8,228.4-770.3,245.5
		C387,448.5,34.8,366.2,30.4,247.7C26.1,129.3,371.2,19.3,800.7,2.2L800.7,2.2z"/>
</g>
<g>
	<path class="st13" d="M233.7,507.4c0.5-1.1,0.3-2.4,0.2-2.8c-0.4-1.4-1.8-2.2-3.2-1.8c-0.6,0.2-1.3,0.5-1.7,1.3
		c-0.3,0.5-0.5,1.5-0.5,1.9c-0.2,1.4,0.8,2.6,2.3,2.8C232.4,509.1,233.3,508.4,233.7,507.4z"/>
	<path class="st13" d="M789.8,293.8c-0.1,0.1-0.3,0.2-0.4,0.3c-2.2,1.8-2.6,4.9-0.8,7.1c1.5,1.8,3.4,2.3,5.2,1.8
		c2.8-0.7,3.8-2.4,4.3-4c0.7-2.1-0.2-4.4-1.4-5.4C794.7,291.9,791.7,292,789.8,293.8z"/>
	<path class="st13" d="M1211.1,396.7c-2.2-1.2-4.9-0.8-6.2,1.2c-0.4,0.7-1.1,2.1-1.1,3.4c-0.1,2.5,1.5,4,3.9,4.7
		c1.7,0.5,3.5-0.8,4.4-2.9C1213,400.9,1213,397.7,1211.1,396.7z"/>
	<path class="st13" d="M1188.9,378.1c-0.2-0.8-0.6-1.5-1.4-1.8c-1.2-0.6-2.5-0.2-3.4,0.9c-0.5,0.6-0.9,1.5-1.1,2.2
		c-0.2,0.7-0.1,1.3,0,1.7c0.3,1.2,1.4,2,2.3,2.1c1.6,0.3,2.5-0.3,3.1-1.9C1189,380.1,1189,378.6,1188.9,378.1z"/>
	<path class="st13" d="M1002.3,141.9c-0.6,0.2-1.3,0.5-1.7,1.3c-0.3,0.5-0.5,1.5-0.5,1.9c-0.2,1.4,0.8,2.6,2.3,2.8
		c1.7,0.3,2.5-0.5,2.9-1.5c0.5-1.1,0.3-2.4,0.2-2.8C1005.1,142.4,1003.7,141.6,1002.3,141.9z"/>
	<path class="st13" d="M459,244c-2.6-0.4-7.1,0.7-10.1,2.5c-5.8,3.3-5.2,8.5-4.5,9.9c0.9,1.6,2.2,2.6,3.9,3.1
		c1.1,0.3,2.7,0.1,3.7,0.1c2.2-0.1,7-1.3,9.6-3.5c2.2-1.8,3.1-4.1,2.8-6.7C464.1,246.5,462.2,244.6,459,244z"/>
</g>
</svg>
