<?xml version="1.0" encoding="utf-8"?>
<!-- Generator: Adobe Illustrator 19.1.0, SVG Export Plug-In . SVG Version: 6.00 Build 0)  -->
<svg version="1.1" id="_x2018_ëîé_x5F_1" xmlns="http://www.w3.org/2000/svg" xmlns:xlink="http://www.w3.org/1999/xlink"
	 x="0px" y="0px" viewBox="0 0 1429.1 573.4" style="enable-background:new 0 0 1429.1 573.4;" xml:space="preserve">
<style type="text/css">
	.st0{fill-rule:evenodd;clip-rule:evenodd;fill:#DB8B2A;}
	.st1{fill-rule:evenodd;clip-rule:evenodd;fill:#E3E82D;}
	.st2{fill-rule:evenodd;clip-rule:evenodd;fill:#F3C6EF;}
	.st3{fill-rule:evenodd;clip-rule:evenodd;fill:#FDE7FC;}
	.st4{fill-rule:evenodd;clip-rule:evenodd;fill:#A55669;}
	.st5{fill-rule:evenodd;clip-rule:evenodd;fill:#8E3A4F;}
	.st6{fill-rule:evenodd;clip-rule:evenodd;fill:#57271B;}
	.st7{fill-rule:evenodd;clip-rule:evenodd;fill:#7F3C22;}
	.st8{fill-rule:evenodd;clip-rule:evenodd;fill:#FFD140;}
	.st9{fill-rule:evenodd;clip-rule:evenodd;fill:#DB150C;}
	.st10{fill-rule:evenodd;clip-rule:evenodd;fill:#EF442A;}
	.st11{fill-rule:evenodd;clip-rule:evenodd;fill:#B02018;}
	.st12{fill-rule:evenodd;clip-rule:evenodd;fill:#646614;}
	.st13{fill-rule:evenodd;clip-rule:evenodd;fill:#FFFFFF;}
	.st14{fill:#FFFFFF;}
</style>
<g>
	<path class="st2" d="M55.9,315.2c-3.5-6.6-5.7-13.5-6.4-20.9c-3.3-32.2,19.2-72,58.1-100.3c68.7-50,185.4-91.8,318.3-105.3
		c132.9-13.5,259.6,5.3,337,40.5c43.8,19.9,68.1,53.2,71.4,85.4c0.8,7.9-0.1,15.8-2.4,23.5c-11.4-22.3-34.4-45.1-68.1-60.4
		c-77.4-35.2-200.6-55.9-333.5-42.4C297.3,148.8,186.6,186.9,112.4,241C83.3,262.3,63.2,291.7,55.9,315.2L55.9,315.2z"/>
	<path class="st3" d="M421.3,51.7c-143.2,14.5-266.9,57.9-341,111.7C24,204.4-4.2,252.7,0.5,299.3c4.7,46.5,42.1,88.2,105.5,117
		c83.4,37.9,213.3,55.5,356.5,40.9c143.2-14.5,266.9-57.9,341-111.7c56.3-41,84.5-89.3,79.8-135.8c-4.7-46.5-42.1-88.2-105.5-117
		C694.4,54.8,564.5,37.2,421.3,51.7L421.3,51.7z M426,88.7c132.9-13.5,259.6,5.3,337,40.5c43.8,19.9,68.1,53.2,71.4,85.4
		c3.3,32.2-21.2,62.2-60.1,90.6c-68.7,50-185.1,86.5-318,100c-132.9,13.5-250.8,1-328.2-34.2c-43.8-19.9-75.2-44.5-78.4-76.7
		c-3.3-32.2,19.2-72,58.1-100.3C176.4,143.9,293,102.2,426,88.7L426,88.7z"/>
	<path class="st4" d="M1.8,319.6c-0.6-8.2-0.6-13.3-1.3-20.3c-4.7-46.5,23.5-94.8,79.8-135.8c74-53.9,197.8-97.2,341-111.7
		c143.2-14.5,273.1,3,356.5,40.9c48.8,22.2,82.2,52,97.1,85.8c4.4,10.1,7,20.1,8.9,30.7c1.5,8.3,3.1,33.3,2.9,44.7
		c-0.2,12.8-0.7,23.9-3.8,35.7c-9.3,35.2-30.3,72.8-72.5,103.5c-74,53.9-201.3,101.1-344.5,115.6c-143.2,14.5-271.1-4.7-354.5-42.6
		C48,437.2,11.5,390.3,4.5,344C3.1,335.4,2.5,329.6,1.8,319.6L1.8,319.6z M421.8,61c140.5-14.3,269.7,4.8,351.6,42
		c58.3,26.5,92.9,65.1,97.3,108c4.3,42.8-22.8,86.6-74.7,124.3c-72.7,52.9-194.3,95.1-334.8,109.4c-140.5,14.3-268.1-2.7-350-39.9
		C52.9,378.2,17.5,340.8,13.1,298C8.8,255.2,35.2,210.6,87,172.9C159.7,120,281.3,75.2,421.8,61L421.8,61z"/>
	<path class="st5" d="M365.9,449.7c14.3,0,28.9-0.4,43.7-1.1l5.3,63.9c-14.8,0.7-29.4,1-43.7,1L365.9,449.7L365.9,449.7z
		 M550.6,431.4l5.2,63.6c-14.2,2.9-28.6,5.5-43.2,7.7l-5.2-63.8C522.1,436.7,536.5,434.2,550.6,431.4L550.6,431.4z M222.5,437.8
		c14.3,2.6,29.1,4.8,44.4,6.5l5.2,63.4c-15.3-1.8-30.1-4.1-44.4-6.7L222.5,437.8L222.5,437.8z M689.7,391.5l5.2,62.7
		c-13.6,5.4-27.9,10.5-42.6,15.3l-5.2-62.9C661.9,401.9,676.1,396.9,689.7,391.5L689.7,391.5z M75.8,385.5
		c10.6,6.9,22.5,13.4,35.5,19.3c3.4,1.5,6.8,3,10.3,4.5l5.2,63.4c-5.3-2.1-10.4-4.3-15.4-6.6c-10.9-5-21-10.5-30.3-16.4L75.8,385.5
		L75.8,385.5z M825.5,310.6l5.4,65.5c-6.2,5.8-13,11.5-20.5,17c-6.5,4.7-13.4,9.4-20.8,14.1l-5.2-63.8c4-2.7,7.9-5.4,11.6-8.1
		C807,327.3,816.8,319,825.5,310.6L825.5,310.6z"/>
</g>
<g>
	<path class="st2" d="M654.4,119.6c0.4-7.4,2-14.5,5.1-21.2c13.6-29.3,53.3-52.1,101.2-56.6c84.7-7.9,206.3,15.8,327.5,72
		c121.2,56.3,220.5,137.1,269,206.9c27.5,39.5,31.3,80.5,17.7,109.9c-3.4,7.2-8.1,13.5-14.1,18.9c1.5-25-6.6-56.3-27.7-86.7
		c-48.6-69.8-143.9-150.5-265.1-206.8C946.9,99.8,832.3,76,740.8,84.6C704.9,88,672.6,103.1,654.4,119.6L654.4,119.6z"/>
	<path class="st3" d="M1103,79.6C972.5,19,844-6.9,752.8,1.6c-69.3,6.5-118.3,33.6-138,76C595.1,120,606,174.9,645.8,232
		c52.3,75.2,155.1,156.6,285.6,217.3c130.5,60.6,259.1,86.6,350.2,78.1c69.3-6.5,118.3-33.6,138-76c19.7-42.4,8.8-97.3-30.9-154.4
		C1336.3,221.7,1233.6,140.3,1103,79.6L1103,79.6z M1088.2,113.8c121.2,56.3,220.5,137.1,269,206.9c27.5,39.5,31.3,80.5,17.7,109.9
		c-13.6,29.3-50,42.7-97.9,47.2c-84.7,7.9-203.3-20.2-324.5-76.5c-121.2-56.3-216.2-127.2-264.7-197c-27.5-39.5-41.9-76.6-28.3-106
		c13.6-29.3,53.3-52.1,101.2-56.6C845.4,33.8,967,57.5,1088.2,113.8L1088.2,113.8z"/>
	<path class="st4" d="M605.6,95.7c3.7-7.3,6.3-11.7,9.2-18.2c19.7-42.4,68.6-69.5,138-76C844-6.9,972.5,19,1103,79.6
		c130.5,60.6,233.3,142.1,285.6,217.3c30.6,44,44.1,86.7,39.7,123.4c-1.3,10.9-4.3,20.9-8,30.9c-3,7.9-14.3,30.2-20.3,39.9
		c-6.7,10.9-12.8,20.2-21.5,28.8c-26,25.5-63.3,47.1-115.2,51.9c-91.2,8.5-224.7-15.9-355.2-76.5c-130.5-60.6-230.7-142.5-283-217.6
		c-39.8-57.1-47.2-116.2-29.6-159.6C598.7,110,601.1,104.7,605.6,95.7L605.6,95.7z M1098.8,87.8c128.1,59.5,229.5,141.9,280.8,215.6
		c36.6,52.6,46.6,103.5,28.5,142.5c-18.1,39.1-63.8,62.8-127.7,68.7c-89.5,8.4-215.6-17.4-343.7-76.9
		c-128.1-59.5-229.2-139.2-280.5-213c-36.6-52.6-48-102.8-29.8-141.9c18.1-39.1,63.6-63.9,127.4-69.8
		C843.3,4.7,970.7,28.3,1098.8,87.8L1098.8,87.8z"/>
	<path class="st5" d="M852.2,393.5c12.4,7.3,25.1,14.4,38.2,21.4l-28.1,57.7c-13.1-7-25.8-14.1-38.1-21.4L852.2,393.5L852.2,393.5z
		 M1020.3,472.1l-28,57.3c-13.6-4.8-27.3-9.9-41.1-15.4l28.1-57.6C993.1,462.1,1006.8,467.3,1020.3,472.1L1020.3,472.1z M735,310
		c10.9,9.5,22.6,18.9,34.8,28.3l-27.9,57.2c-12.2-9.4-23.8-18.9-34.7-28.4L735,310L735,310z M1160.3,508.9l-27.6,56.6
		c-14.5-2.3-29.3-5.2-44.4-8.6l27.7-56.7C1131.1,503.6,1145.9,506.5,1160.3,508.9L1160.3,508.9z M635.5,190.1
		c5.6,11.4,12.5,23,20.6,34.7c2.1,3,4.3,6.1,6.6,9.1l-27.9,57.2c-3.4-4.5-6.7-9-9.9-13.5c-6.9-9.8-12.7-19.7-17.7-29.6L635.5,190.1
		L635.5,190.1z M1318.4,508.6l-28.8,59.1c-8.3,1.8-17.1,3.2-26.3,4.1c-8,0.8-16.4,1.2-25,1.5l28.1-57.5c4.8-0.2,9.5-0.6,14.1-1
		C1293.9,513.5,1306.6,511.4,1318.4,508.6L1318.4,508.6z"/>
</g>
</svg>
