<?xml version="1.0" encoding="utf-8"?>
<!-- Generator: Adobe Illustrator 19.1.0, SVG Export Plug-In . SVG Version: 6.00 Build 0)  -->
<svg version="1.1" id="Layer_1" xmlns="http://www.w3.org/2000/svg" xmlns:xlink="http://www.w3.org/1999/xlink" x="0px" y="0px"
	 viewBox="0 0 194.1 96.3" style="enable-background:new 0 0 194.1 96.3;" xml:space="preserve">
<style type="text/css">
	.st0{fill:#97DD24;}
	.st1{fill:#E05C46;}
	.st2{fill:#FAB239;}
	.st3{fill:#8BC53F;}
	.st4{fill:#CCEF89;}
	.st5{fill:#FECF83;}
	.st6{fill:#FE6600;}
	.st7{fill:#892F64;}
	.st8{fill:#FFFFFF;}
	.st9{fill:#E04B2C;}
	.st10{fill:#6E2F8C;}
	.st11{fill:#FDC400;}
	.st12{fill:#E5FCBB;}
	.st13{fill:#FFEFDC;}
	.st14{fill:#F48371;}
	.st15{fill:#FF9300;}
	.st16{fill:#FFAD4A;}
	.st17{fill:#F7D5EE;}
	.st18{fill:#AF6D9B;}
	.st19{fill:#E2AA59;}
</style>
<g>
	<g>
		<g>
			<g>
				<g>
					<path class="st17" d="M183.7,58.6L183.7,58.6c0.4-0.7,0.7-1.3,0.9-2c1.5-4.3,0-9.1-2.6-12.8c-2.6-3.5-6.1-6.1-9.7-8.6
						c0.5-1.4,2.2-2.1,3.8-2c1.6,0.1,3.1,1.1,4.4,2c3.6,2.6,6.8,5.8,9.5,9.4c1.5,2,2.8,4.1,3.1,6.6c0.4,3-0.8,5.9-2.2,8.6
						c-0.1,0.2-0.2,0.3-0.3,0.5c-3.8,7-9.4,13.3-16.8,16.2c-2.8,1.1-5.7,1.7-8.6,2.2c-4.2,0.7-8.4,1.1-12.6,1.5
						c-5.1,0.5-10.2,1-15.2,0.4c-3.1-0.3-6.1-1.1-9.1-1.8c-4.6-1.1-9.1-2.2-13.7-3.3c-7.6-1.8-15.4-3.8-21.6-8.4l0.2-0.3
						c1.6-1.2,3.3-2.4,4.9-3.6l0.4-0.2c11.8,4.9,24.3,8.2,37,9.8c7.6,0.9,15.4,1.2,22.9-0.1c7.6-1.3,15-4.2,20.9-9.1
						C181,62.1,182.6,60.5,183.7,58.6z"/>
				</g>
				<g>
					<path class="st18" d="M190.6,60.4l0.2,0.1c-1.9,4.6-4.1,9-6.3,13.4c-1.1,2.1-2.2,4.2-3.9,5.8c-3.3,3.3-8.1,4.2-12.7,5.1
						c-5.4,1-10.9,2-16.4,2.1c-4.2,0.1-8.3-0.3-12.4-0.8c-16-1.8-32.3-4.4-46.6-12l-0.3-0.4c0.2-2.2,0.4-4.3,0.5-6.5l0.1-0.2
						c0.1,0,0.1,0.1,0.1,0.1c6.2,4.6,14,6.5,21.6,8.4c4.6,1.1,9.1,2.2,13.7,3.3c3,0.7,6,1.5,9.1,1.8c5.1,0.6,10.2,0.1,15.2-0.4
						c4.2-0.4,8.4-0.8,12.6-1.5c2.9-0.5,5.8-1.1,8.6-2.2C181.1,73.7,186.8,67.4,190.6,60.4z"/>
				</g>
				<g>
					<path class="st18" d="M182,43.9c2.7,3.6,4.1,8.5,2.6,12.8c-0.2,0.7-0.5,1.4-0.9,2c0.3-0.8,0.3-1.7,0.2-2.5
						c-0.2-1.2-0.9-2.4-1.5-3.4c-2.8-4.7-6.8-9.2-12.1-10.4c0.7-2.1,1.3-4.2,1.8-6.4l0.2-0.3c0-0.1,0-0.2,0.1-0.3
						C175.9,37.8,179.4,40.4,182,43.9z"/>
				</g>
				<g>
					<path class="st18" d="M148.8,34c0.1,1.3,0.1,2.6-0.4,3.7c-0.4,1-1.2,1.9-2.1,2.6c-8.3,7.6-19.9,10.3-30.9,12.4
						c-4.9,0.9-9.8,1.8-14.7,2.2c-13.7,1-27.4-1.9-40.9-4.7c-3.8-0.8-7.7-1.6-11.4-2.9c-4.1-1.5-8-3.6-11.5-6.3
						c-0.7-0.5-1.4-1.1-1.8-1.9c-0.5-0.9-0.5-1.9-0.6-2.9c-0.2-2.8-0.3-5.5-0.4-8.3c1.6,3.6,5.3,6.4,8.9,8.4
						c14.8,8.1,32.1,10.3,48.9,10.3c13.3,0,26.7-1.2,39.2-5.6c4.6-1.6,9.1-3.7,12.6-7c2.1-2,3.7-4.4,4.7-7.1
						C148.5,29.3,148.7,31.7,148.8,34z"/>
				</g>
				<g>
					<path class="st17" d="M34,27.9c-0.5-1.2-0.8-2.5-0.8-3.8c0.1-2.9,1.5-5.6,3.3-7.8c4.7-5.8,11.1-7.1,16-8.4
						c4.3-1.3,8.6-2.4,12.8-3.3c20.5-4.3,40.3-3.9,61.7,0.2c4.8,0.9,9.7,2.1,13.9,4.7c4.2,2.6,7.6,6.8,8.2,11.6c0.2,2-0.1,4-0.7,5.9
						c-0.9,2.7-2.6,5.1-4.7,7.1c-3.5,3.3-8,5.4-12.6,7c-12.5,4.4-26,5.6-39.2,5.6C75.1,46.6,57.8,44.4,43,36.3
						C39.4,34.3,35.7,31.5,34,27.9C34.1,27.9,34,27.9,34,27.9z M108.7,38.3c11.5-1.2,27.5-4.3,28.4-12.3c0.3-2.8-1.2-6.1-5.4-10.2
						c-11-10.7-46.7-7.7-65.6-4.7c-2.7,0.4-5.1,0.9-7,1.3C47.7,12,43.3,16.9,45.9,23.6c0.7,1.6,1.7,3.4,3.2,5.2
						C58.2,39.7,96.7,39.5,108.7,38.3z"/>
				</g>
				<g>
					<path class="st18" d="M137.1,25.9l-1.8-0.2c-0.7-0.9-1.6-1.9-2.6-2.9c-12.5-12.2-73.1-5.7-84.9,1l-1.9-0.3
						c-2.6-6.6,1.8-11.5,13.2-11.2c1.9-0.4,4.3-0.8,7-1.3c19-3,54.7-6,65.6,4.7C135.9,19.8,137.4,23.2,137.1,25.9z"/>
				</g>
				<g>
					<path class="st18" d="M93.2,86.3l0.1,0.2c-0.5,2.1-1,4.3-1.4,6.4l-0.4,0.2c-15.8,3-32.2,0.6-48.1-2.4
						c-4.1-0.8-8.2-1.6-12.1-2.9c-5.2-1.7-10.1-4.3-15-6.9c-4.1-2.2-8.4-4.5-10.6-8.6c-1.1-2.1-1.6-4.4-2-6.7
						C2.7,60.7,2,55.8,1.5,50.9l0.2,0C3.3,58.7,6.8,66.4,13,71.4c2.3,1.8,4.9,3.3,7.6,4.6c3.8,1.9,7.7,3.5,11.6,5.2
						c4.7,2,9.4,3.9,14.4,4.9c3,0.6,6.2,0.8,9.2,1c4.7,0.3,9.4,0.6,14.1,0.9c7.8,0.5,15.8,1,23.1-1.6C93.1,86.3,93.1,86.3,93.2,86.3
						z"/>
				</g>
				<g>
					<path class="st17" d="M8.8,51.3c0.5,2.1,1.5,4.1,2.7,5.9c4.2,6.4,10.4,11.4,17.2,14.9c6.8,3.5,14.3,5.5,21.9,6.9
						c12.6,2.3,25.5,2.9,38.2,1.7l0.4,0.3c1.2,1.6,2.4,3.3,3.6,4.9l0.1,0.4c-7.3,2.5-15.3,2.1-23.1,1.6c-4.7-0.3-9.4-0.6-14.1-0.9
						c-3.1-0.2-6.2-0.4-9.2-1c-5-1-9.7-2.9-14.4-4.9c-3.9-1.6-7.8-3.3-11.6-5.2c-2.7-1.3-5.3-2.8-7.6-4.6c-6.2-5-9.7-12.7-11.3-20.5
						c-0.1-0.2-0.1-0.4-0.1-0.6c-0.5-3-0.8-6.1,0.5-8.9c1-2.2,2.9-3.9,4.9-5.3c3.6-2.6,7.6-4.7,11.8-6.2c1.6-0.5,3.2-1,4.8-0.6
						c1.5,0.3,2.9,1.5,3,3c0,0,0,0-0.1,0c-4.1,1.3-8.2,2.8-11.7,5.3c-3.6,2.7-6.5,6.9-6.3,11.4C8.6,49.8,8.7,50.5,8.8,51.3z"/>
				</g>
				<g>
					<path class="st18" d="M26.7,33c-0.2,2.2-0.3,4.4-0.2,6.6c-5.5-0.4-10.6,2.7-14.7,6.3c-0.9,0.8-1.9,1.7-2.5,2.9
						c-0.4,0.7-0.6,1.6-0.6,2.5c-0.2-0.7-0.3-1.5-0.3-2.2c-0.2-4.5,2.7-8.7,6.3-11.4c3.5-2.6,7.6-4,11.7-5.3l0.1,0.3L26.7,33z"/>
				</g>
			</g>
		</g>
	</g>
	<g>
		<g>
			<g>
				<g>
					<path class="st7" d="M65.2,3.1C56,5.3,42.1,7.7,35.6,15.4c-5.4,6.4-4.3,13.5,1.8,18.9C57,51.7,95.2,50.7,119.1,46
						c10.4-2.1,23.9-5.4,29.5-15.5c4-7.2,2-15.3-4.2-20.6c-8.9-7.5-23.6-8.2-34.6-9.2C94.9-0.8,80,0.2,65.2,3.1
						c-1.8,0.4-1.5,3.2,0.3,2.9c18-3.5,36.1-3.7,54.2-0.9c9.4,1.5,26.4,3.4,27.7,16.2c1.5,14.5-18.5,19.4-28.8,21.4
						c-17.8,3.6-37.6,3.5-55.3-0.6c-8.7-2-36-8.8-25.8-25C43.1,8.5,56.8,8,65.6,6C67.4,5.6,67.1,2.7,65.2,3.1L65.2,3.1z"/>
				</g>
			</g>
		</g>
		<g>
			<g>
				<g>
					<path class="st7" d="M65.9,9.7c-6.2,1.2-18.8,0.3-21.6,7.9c-2.2,5.9,3.2,12.6,7.8,15.5c15.2,9.9,40.7,8.6,58.1,6.7
						c12.8-1.4,41.8-9.5,22-25.9c-7.6-6.3-19.2-6.9-28.5-7.2C91,6.4,78.3,7.7,65.9,9.7c-1.8,0.3-1.5,3.1,0.3,2.8
						c15.5-2.3,31.9-4,47.6-1.8c8,1.1,23,5,20.1,15.6c-2.3,8.4-16.5,9.3-24.1,10.2c-12.4,1.4-25.3,1-37.7-0.8
						c-6.5-0.9-14.4-1.9-19.8-6.1c-5.4-4.1-7.3-10.8-0.9-15.3c3.1-2.2,11-1.3,14.9-1.8C68.1,12.2,67.7,9.3,65.9,9.7L65.9,9.7z"/>
				</g>
			</g>
		</g>
		<g>
			<g>
				<g>
					<path class="st7" d="M135.6,25.6c-6.6-13.4-30.1-11.5-42.4-11.1c-10.4,0.4-20.9,1.4-31.2,3.5c-3.7,0.7-13.3,1.6-15,5.6
						c-0.2,0.4,0.1,0.9,0.6,1c4.1,0.8,10.7-2.7,14.8-3.5c8.3-1.6,16.8-2.5,25.3-3c16.1-1,33.7-1.7,47.3,8
						C135.3,26.2,135.8,26,135.6,25.6L135.6,25.6z"/>
				</g>
			</g>
		</g>
		<g>
			<g>
				<g>
					<path class="st7" d="M33.4,21.6c-0.6,4.8-2.1,13.8,0.3,18.2c2.4,4.3,9.9,7.3,14.1,8.8c13.8,5.1,30.5,7.7,45.2,8
						c13.5,0.3,28.3-2.2,40.9-7.1c4.7-1.8,10.2-4.4,13.6-8.2c4.6-5,2.7-12.8,1.4-18.9c-0.2-0.7-1.3-0.9-1.4,0
						c-0.8,6.8-0.5,14.3-5.7,19.6c-3.4,3.4-10.3,5.3-14.9,6.6c-12.5,3.6-26.1,5.7-39.1,4.7c-10.8-0.8-21.6-3-32.1-5.6
						c-5.5-1.4-14.1-3.5-17.9-8c-3.7-4.4-2.5-12.7-3.3-18.1C34.4,21.1,33.5,21,33.4,21.6L33.4,21.6z"/>
				</g>
			</g>
		</g>
	</g>
	<g>
		<g>
			<g>
				<g>
					<path class="st7" d="M171.4,35.5c4.2,3.6,9.1,7,10.8,12.6c2.4,8-2.5,13.8-9.1,17.7c-7.5,4.3-16,6-24.6,6.1
						c-17.5,0.3-33.2-5.6-49.9-9.6c-0.8-0.2-1,1-0.4,1.3c19.8,11.5,52.1,16.5,73.4,6.6c6.6-3.1,14.6-8.4,15.2-16.4
						c0.6-9.2-7.5-15.4-14.6-19.6C171.4,33.8,170.8,35,171.4,35.5L171.4,35.5z"/>
				</g>
			</g>
		</g>
		<g>
			<g>
				<g>
					<path class="st7" d="M98.1,62.6c-1.1-0.1-2,0.7-2.9,1.2c-1,0.7-2.2,1.3-3,2.2c-0.8,0.8,0.3,2.3,1.3,1.8c1.1-0.6,2-1.5,3-2.3
						c0.8-0.7,1.8-1.3,2-2.4C98.6,63,98.4,62.7,98.1,62.6L98.1,62.6z"/>
				</g>
			</g>
		</g>
		<g>
			<g>
				<g>
					<path class="st7" d="M173,36.2c2.2-2.2,7.5,0.9,9.4,2.2c2.5,1.6,4.9,4.7,6.6,7.1c4.6,6.5,2.1,12.9-2.3,18.9
						c-7.5,10.2-17.6,12.7-29.6,14c-20.2,2.2-46.1-1.2-63.7-12.2c-1.2-0.8-2.6,0.9-1.4,1.8c12,8.5,30.7,12.6,45.1,14.2
						c13.3,1.5,32.9,0.2,43.9-8.2c7.7-5.9,16.8-17.8,11.4-27.7c-3-5.4-14.9-19.8-20.9-11.2C170.8,36,172.1,37,173,36.2L173,36.2z"/>
				</g>
			</g>
		</g>
		<g>
			<g>
				<g>
					<path class="st7" d="M92.2,67c-1,1.9-1.1,4.4-1.3,6.6c-0.2,1.6,2.3,2,2.5,0.4c0.2-2.2,0.6-4.8-0.2-6.9
						C92.9,66.6,92.4,66.6,92.2,67L92.2,67z"/>
				</g>
			</g>
		</g>
		<g>
			<g>
				<g>
					<path class="st7" d="M92,74.6c16.4,10.9,42,14.4,61.3,13.5c7.8-0.4,19.1-1.2,25.8-5.7c6.6-4.4,10.4-14.5,12.2-21.8
						c0.1-0.5-0.7-0.9-1-0.5c-5.8,9.2-7.8,20-19.9,22.9c-8.1,1.9-16.7,2.9-25,2.4c-18.4-1.2-35.4-5.7-52.7-11.9
						C92,73.2,91.3,74.2,92,74.6L92,74.6z"/>
				</g>
			</g>
		</g>
		<g>
			<g>
				<g>
					<path class="st7" d="M171.6,35.5c-1.2,1.9-1.9,4-2.6,6.2c-0.3,0.9,0.1,1.6,1,1.9c5.2,1.5,14.5,9.5,12.3,15.8
						c-0.3,0.9,0.8,1.6,1.4,0.9c3-3.3,0.3-7.6-1.9-10.6c-2.9-4.1-6.5-7.2-11.4-8.7c0.3,0.6,0.7,1.2,1,1.9c0.8-2.3,1.4-4.5,1-7
						C172.4,35.4,171.9,35.2,171.6,35.5L171.6,35.5z"/>
				</g>
			</g>
		</g>
	</g>
	<g>
		<g>
			<g>
				<g>
					<path class="st7" d="M27.1,31.4C19,33.3,9.6,36.7,7.3,45.7C5.4,53.5,11.7,61,17,65.9c17.3,15.8,49.9,20.6,72,15.5
						c0.7-0.2,0.9-1.3,0-1.4c-17.1-1.1-33.9-0.1-50.5-5.6c-7.1-2.4-14-5.8-19.6-10.9c-4.8-4.5-9.5-11.9-7.9-19
						c1.5-6.5,11.1-9.4,16.4-11.7C28.2,32.5,27.9,31.2,27.1,31.4L27.1,31.4z"/>
				</g>
			</g>
		</g>
		<g>
			<g>
				<g>
					<path class="st7" d="M88.8,80.9c-0.1,1.1,0.6,2,1.2,2.9c0.7,1,1.3,2.2,2.2,3c0.8,0.8,2.3-0.3,1.8-1.3c-0.6-1.1-1.5-2-2.2-3
						c-0.6-0.8-1.3-1.8-2.4-2C89.1,80.4,88.8,80.7,88.8,80.9L88.8,80.9z"/>
				</g>
			</g>
		</g>
		<g>
			<g>
				<g>
					<path class="st7" d="M27.5,32.3c-3.1-10-18.7,0.1-23.2,4.4C-4,44.4,1.2,58.6,6.9,66.5C14.8,77.6,31.9,84,44.5,87
						c8.6,2.1,18,1.9,26.8,2.4c7.7,0.4,14.9,0.3,22.3-2.1c1.4-0.5,0.5-2.5-0.8-2.1C72.7,90.5,47,86,28.4,78
						C18,73.4,9.1,68.4,4.8,57.2C2.4,50.8,1,44,6,38.6c2.8-3,16.4-12.2,19.8-5.6C26.3,34,27.9,33.4,27.5,32.3L27.5,32.3z"/>
				</g>
			</g>
		</g>
		<g>
			<g>
				<g>
					<path class="st7" d="M92.9,86.2c-1.4,1.8-1.9,4.4-2.3,6.5c-0.3,1.6,2.2,1.9,2.5,0.4c0.4-2.1,1.1-4.5,0.7-6.7
						C93.7,86,93.1,85.8,92.9,86.2L92.9,86.2z"/>
				</g>
			</g>
		</g>
		<g>
			<g>
				<g>
					<path class="st7" d="M91.3,92.4c-18.3,0.8-35.9,0-53.9-4.3c-8-1.9-16-5.4-23.2-9.7C3.6,72,4.9,61.2,2.1,50.7
						C1.9,50.1,1,50.3,1,50.8c-0.4,7.5,0.1,18.3,5.2,24.5c5.2,6.3,15.5,10.4,23,13.1c18.1,6.6,43.7,10.8,62.5,5.3
						C92.5,93.5,92.1,92.4,91.3,92.4L91.3,92.4z"/>
				</g>
			</g>
		</g>
		<g>
			<g>
				<g>
					<path class="st7" d="M26.3,32.8c-1.1,2.3-1.1,4.5-1.1,7c0.5-0.5,1-1,1.5-1.5c-5.1-0.1-9.5,1.8-13.5,4.9c-3,2.3-6.8,5.5-4.9,9.6
						c0.4,0.9,1.7,0.5,1.6-0.4c-0.2-6.7,11-11.6,16.4-11.4c0.9,0,1.5-0.5,1.5-1.5c-0.1-2.3,0-4.5-0.6-6.7
						C27.1,32.3,26.5,32.4,26.3,32.8L26.3,32.8z"/>
				</g>
			</g>
		</g>
	</g>
</g>
</svg>
