<?xml version="1.0" encoding="utf-8"?>
<!-- Generator: Adobe Illustrator 19.1.0, SVG Export Plug-In . SVG Version: 6.00 Build 0)  -->
<svg version="1.1" id="Layer_1" xmlns="http://www.w3.org/2000/svg" xmlns:xlink="http://www.w3.org/1999/xlink" x="0px" y="0px"
	 viewBox="0 0 205.4 83.2" style="enable-background:new 0 0 205.4 83.2;" xml:space="preserve">
<style type="text/css">
	.st0{fill:#97DD24;}
	.st1{fill:#E05C46;}
	.st2{fill:#FAB239;}
	.st3{fill:#8BC53F;}
	.st4{fill:#CCEF89;}
	.st5{fill:#FECF83;}
	.st6{fill:#FE6600;}
	.st7{fill:#892F64;}
	.st8{fill:#FFFFFF;}
	.st9{fill:#E04B2C;}
	.st10{fill:#6E2F8C;}
	.st11{fill:#FDC400;}
	.st12{fill:#E5FCBB;}
	.st13{fill:#FFEFDC;}
	.st14{fill:#F48371;}
	.st15{fill:#FF9300;}
	.st16{fill:#FFAD4A;}
	.st17{fill:#F7D5EE;}
	.st18{fill:#AF6D9B;}
	.st19{fill:#E2AA59;}
</style>
<g>
	<g>
		<g>
			<g>
				<g>
					<path class="st3" d="M104.9,17.4c0.7,9.2-5.1,18.3,0.3,27c4.6,7.6,13.4,11,21.4,14c19.7,7.2,41.5,11.3,61.7,3.4
						c4.5-1.8,9.2-4,11.6-8.5c2.8-5.1,3.4-11.3,4.1-17L104.9,17.4z"/>
				</g>
			</g>
			<g>
				<g>
					<g>
						<path class="st7" d="M104.5,17.4c-1.6,13.3-6.5,24.7,5.6,34.3c10.2,8.1,25.7,11.9,38.1,14.3c13.7,2.5,27.9,2.5,40.9-2.8
							c12.2-5,15.3-14.1,15.9-26.8c0-1.1-1.7-1.4-1.9-0.3c-1,4.7-1.4,9.5-3.4,13.9c-3.4,7.6-11,10.5-18.5,12.4
							c-12.8,3.2-26.2,2.3-39-0.8c-10-2.5-21.9-5.5-30.1-12.1c-11.2-9-5-20.4-6.6-32.2C105.3,16.7,104.5,17,104.5,17.4L104.5,17.4z"
							/>
					</g>
				</g>
			</g>
		</g>
		<g>
			<g>
				<g>
					<path class="st4" d="M172.7,7.2c-8.1-2.7-16.4-5.4-25-5.8C138.4,1,129,3,120.3,5.8c-6,1.9-11.7,5.2-13.9,11.4
						c-2.6,7.3,0.1,15.3,5.3,20.7c5.4,5.6,13.1,8.2,20.4,10.4c8.3,2.5,16.7,4.6,25.3,5.6c9,1,18.2,0.7,27.1-1.3
						c3.7-0.9,7.8-1.9,11.1-4.1c3-2.1,4.9-5.2,6.5-8.5c1.9-3.9,2.9-8.1,1.2-12.3c-1.7-4.1-5.3-7-8.8-9.4
						c-7.8-5.4-16.6-9.2-25.6-12.1L172.7,7.2z"/>
				</g>
			</g>
			<g>
				<g>
					<g>
						<path class="st7" d="M172.8,6.6c-13.1-4.9-25.4-7.8-39.4-5.5c-9,1.5-20.8,3.7-26.4,11.8c-5,7.2-3.6,16.8,1.5,23.7
							c6.2,8.5,17,11.7,26.7,14.4c13.3,3.8,27,6.1,40.9,4.7c8.8-0.9,19-2.5,24.7-10.1C216.9,24.1,186.9,8.6,169,5.5
							c-0.8-0.1-1.4,1-0.6,1.4c7.3,3.8,15.2,6.4,22.2,10.9c6,3.8,9.7,6.4,10.5,13.7c1,8.5-3,14.7-11.3,18
							c-16.1,6.4-35.9,3.2-51.9-1.2c-7.1-2-14.7-3.9-20.9-8.1C105.7,32.6,102.7,16.2,116,9c17.6-9.5,38.3-6.5,56.5-1.2
							C173.3,8,173.5,6.9,172.8,6.6L172.8,6.6z"/>
					</g>
				</g>
			</g>
		</g>
		<g>
			<g>
				<g>
					<path class="st12" d="M146,26.1c-5.8-0.1-11.8-0.5-17.6,0.3c-2.9,0.4-11.9,3.7-8.4,8.3c2.3,3,8.6-0.1,11.3-1.1
						C136.4,31.6,142.2,30.3,146,26.1L146,26.1z"/>
				</g>
			</g>
			<g>
				<g>
					<g>
						<path class="st7" d="M146,25.5c-7.2-0.4-15.2-1.7-22.1,1.3c-2.9,1.2-6.9,3.8-5.4,7.5c1.8,4.5,7.5,2.6,10.8,1.3
							c6.1-2.3,12.8-3.9,17-9.1c0.4-0.5-0.2-1-0.7-0.7c-4,3.1-8.6,4.5-13.3,6.2c-1.4,0.5-2.8,1.1-4.2,1.7c-2.8,1.1-3.1,1.6-5.2-0.9
							c-2.2-1.3-2.3-2.3-0.2-3.1c0.8-0.5,1.7-0.9,2.6-1.3c1.6-0.6,3.2-0.9,5-1.1c5.2-0.6,10.4-0.4,15.6-0.5
							C146.8,26.7,146.8,25.5,146,25.5L146,25.5z"/>
					</g>
				</g>
			</g>
		</g>
		<g>
			<g>
				<g>
					<path class="st12" d="M160.3,31.1c-1.4,2.7-3.4,5-5.4,7.3c-1.5,1.8-4.2,4.1-4.3,6.7c-0.1,4,5.8,5,8.6,3.4
						C164.6,45.5,161.5,35.6,160.3,31.1L160.3,31.1z"/>
				</g>
			</g>
			<g>
				<g>
					<g>
						<path class="st7" d="M159.7,30.7c-1.8,3.1-4.3,5.5-6.7,8.2c-1.5,1.6-3.2,3.5-3.4,5.8c-0.4,3.9,3.7,5.8,7.1,5.6
							c3.7-0.2,5.9-2.9,6.5-6.4c0.6-3.7-0.1-9.9-2.4-13.1c-0.3-0.5-1.1-0.3-1.1,0.3c-0.3,4.6,5.1,14.6-1.9,16.8
							c-1.3,0.4-3.5,0.3-4.6-0.5c-2.8-2.1-0.2-5,1.4-6.9c2.4-2.8,4.7-5.7,6.4-9C161.4,30.6,160.2,29.9,159.7,30.7L159.7,30.7z"/>
					</g>
				</g>
			</g>
		</g>
		<g>
			<g>
				<g>
					<path class="st12" d="M171,30.7c3.9,3.9,6.8,9.2,12.6,10.3c2.8,0.5,12.2,0.5,12.6-3.8C196.7,30.1,174.4,30.9,171,30.7L171,30.7
						z"/>
				</g>
			</g>
			<g>
				<g>
					<g>
						<path class="st7" d="M170.7,31c4.8,5.6,8.3,11.5,16.5,11.4c3.5-0.1,10.9-0.9,10.1-6.1c-1.3-8.4-20.6-6.6-26.3-6
							c-0.4,0-0.6,0.8-0.1,0.9c6.7,1.2,13.9,0.3,20.5,2.7c2.5,0.9,5.4,2.8,1.8,5.2c-1.8,1.2-4.9,1.1-6.9,1.1
							c-6.7-0.2-10.4-5.4-14.9-9.7C170.9,30,170.3,30.6,170.7,31L170.7,31z"/>
					</g>
				</g>
			</g>
		</g>
		<g>
			<g>
				<g>
					<path class="st12" d="M148,20.4c-1-4.2-0.7-9.6-4-11.7c-1.6-1-7.5-2.6-9.4,1.3C131.5,16.3,145.9,19.6,148,20.4L148,20.4z"/>
				</g>
			</g>
			<g>
				<g>
					<g>
						<path class="st7" d="M148.5,20.4c-0.6-4.4,0.2-10.9-4.7-13.1c-3.5-1.6-9-1.5-10.4,2.8c-2.5,7.2,10,10.1,14.7,10.7
							c0.4,0.1,0.6-0.6,0.2-0.8c-1.8-1-3.7-1.6-5.6-2.4c-2.3-1-6.1-2.5-7.1-4.9c-1.7-4.2,4.8-4.4,7.2-3.3c3.8,1.7,3.9,7.7,4.9,11.2
							C147.7,20.9,148.5,20.9,148.5,20.4L148.5,20.4z"/>
					</g>
				</g>
			</g>
		</g>
		<g>
			<g>
				<g>
					<path class="st12" d="M159.6,22.3c3.5,1.1,7.4-0.8,10.8-1.6c3-0.7,7.7-1.3,4.9-5.4c-2-2.9-6.1-4.1-9.1-2.1
						C163,15.3,163.3,20.8,159.6,22.3L159.6,22.3z"/>
				</g>
			</g>
			<g>
				<g>
					<g>
						<path class="st7" d="M159.5,22.8c4.4,1.6,9.8-0.4,14.1-1.8c3.1-1,4.6-3.2,2.6-6.2c-2-3.1-6.3-4.6-9.7-3
							c-1.8,0.9-2.9,2.5-3.7,4.3c-1.1,2.3-1.9,3.9-3.8,5.7c-0.6,0.6,0,1.5,0.8,1.3c5.6-1,3.7-11.5,11.1-9.7c1.7,0.4,5.7,3.2,3.4,5.1
							c-0.8,0.6-2.2,0.7-3.2,1c-3.7,1-7.4,2.9-11.4,2.4C159.2,21.8,158.9,22.6,159.5,22.8L159.5,22.8z"/>
					</g>
				</g>
			</g>
		</g>
	</g>
	<g>
		<g>
			<g>
				<g>
					<path class="st3" d="M0.5,34.5c2.4,8.8-1.7,18.2,4.8,25.8c6.3,7.5,17.1,9.2,26.2,10.7c19.7,3.2,41,2.7,58.4-8
						c4.4-2.7,9-5.8,10.5-11c1.6-5.4,1.2-11.8,0.9-17.4L0.5,34.5z"/>
				</g>
			</g>
			<g>
				<g>
					<g>
						<path class="st7" d="M0,34.5c0.8,11.6-2,23.3,8.8,30.9c10.4,7.3,27,8.4,39.3,8.8c14.8,0.5,29.8-1.9,42.6-9.8
							c11.6-7.2,13.3-16.4,11.6-29.8c-0.2-1.2-1.9-1.3-2,0c-0.1,7.1,0.5,14.8-3.7,20.9c-2.9,4.2-8.8,7.2-13.5,9.3
							c-11.4,5.3-24.2,6.9-36.7,6.3c-10.2-0.4-21.9-1.4-31.3-5.6C6.5,61.6,3.2,56,2.5,46.3c-0.3-4.3-0.2-7.9-1.6-12
							C0.8,33.9,0,33.9,0,34.5L0,34.5z"/>
					</g>
				</g>
			</g>
		</g>
		<g>
			<g>
				<g>
					<path class="st4" d="M65.1,11.8c-9.2-1.3-18.5-2.4-27.7-0.7c-8.2,1.5-15.9,4.9-23.3,8.7C6.8,23.5,1.4,28.6,1.6,37.3
						c0.2,7.2,4.8,13.4,10.8,17c7,4.3,16,5,24,5.8c7.8,0.8,15.6,1,23.4,0.3c7.7-0.7,15.2-2.3,22.4-5.1c3.6-1.4,7.1-3,10.3-5.1
						c3.8-2.5,5.6-5.6,6.9-9.9c1.3-4.1,2.2-8.4,0.3-12.4c-1.9-4-5.7-6.6-9.5-8.4c-9.1-4.3-19.3-6.7-29.2-7.9L65.1,11.8z"/>
				</g>
			</g>
			<g>
				<g>
					<g>
						<path class="st7" d="M65.3,11.2c-13.3-2.3-25.6-3-38.5,1.5c-8.6,3-20.6,7.3-24.9,16.3c-3.4,7.1-1.5,15.5,3.5,21.4
							c7.3,8.7,19,10.2,29.6,11.3c14.4,1.5,29.1,1.3,43.1-3.1c8.7-2.7,18.3-6.3,22.2-15.2c10.5-23.7-21.1-33-39.2-32.6
							c-0.9,0-1,1.3-0.2,1.5c7.6,2.3,15.4,3.3,22.8,6.1c8.5,3.2,16.3,6.7,15.1,18.3c-0.5,4.6-3.4,9.2-7,12
							c-14.1,10.8-36.7,11.3-53.4,9.9c-9.2-0.8-19.5-1.3-27.1-7.2c-9.7-7.4-11-20.3-0.8-27.8c16.3-11.9,35.3-13.1,54.6-11.3
							C65.8,12.5,65.9,11.4,65.3,11.2L65.3,11.2z"/>
					</g>
				</g>
			</g>
		</g>
		<g>
			<g>
				<g>
					<path class="st12" d="M35.5,34.1c-5.9-0.4-11.9-1.7-17.7-0.3c-2.5,0.6-8.9,3.2-5.7,6.8c2.2,2.5,6.7,0.4,9.2-0.4
						C26.1,38.6,31.6,37.8,35.5,34.1L35.5,34.1z"/>
				</g>
			</g>
			<g>
				<g>
					<g>
						<path class="st7" d="M35.5,33.5c-6.7-0.8-13.9-2.6-20.4,0.2c-2.6,1.1-6,3.3-4.6,6.5c1.7,4,6.6,2.5,9.6,1.6
							c5.6-1.7,11.7-2.8,15.7-7.3c0.3-0.4-0.1-1-0.6-0.7c-3.6,2.4-7.5,3.5-11.6,4.6c-2.4,0.7-6.4,3-8.8,2.4c-6.4-1.6,0.4-5,1.7-5.4
							c1.5-0.6,3.2-0.8,4.8-1c4.7-0.4,9.5,0.2,14.2,0.4C36.3,34.7,36.2,33.5,35.5,33.5L35.5,33.5z"/>
					</g>
				</g>
			</g>
		</g>
		<g>
			<g>
				<g>
					<path class="st12" d="M46,40.6c-2.3,3.9-7.1,6.4-8.9,10.5c-1.6,3.5,1.9,5.6,5.1,5.4C49.6,56,46.9,45.2,46,40.6L46,40.6z"/>
				</g>
			</g>
			<g>
				<g>
					<g>
						<path class="st7" d="M45.3,40.3c-2.7,3.9-9.3,6.8-9.7,12.1c-0.4,4,4.5,5.9,7.8,5.1c3.2-0.8,4.6-3.6,4.8-6.7
							c0.2-2.8,0-8-1.7-10.4c-0.3-0.4-1-0.4-1.1,0.1c-0.4,1.8,0.5,4.2,0.6,6.1c0.2,2.3,0.6,5.4-0.9,7.4c-1,1.4-2.8,1.7-4.4,1.4
							c-1.2-0.2-2.8-1.2-2.9-2.6c-0.1-1.3,1.3-2.9,2.1-3.8c2.3-2.6,5-4.9,6.8-7.9C47.1,40.2,45.9,39.5,45.3,40.3L45.3,40.3z"/>
					</g>
				</g>
			</g>
		</g>
		<g>
			<g>
				<g>
					<path class="st12" d="M47.3,35.9c3.9,4.4,6.5,9.6,13,10.2c2.6,0.2,11.3-0.1,8.7-4.9c-1.7-3.2-7.6-3.8-10.7-4.2
						C54.7,36.4,51,36.2,47.3,35.9L47.3,35.9z"/>
				</g>
			</g>
			<g>
				<g>
					<g>
						<path class="st7" d="M46.9,36.1c3.3,4.3,6,9.7,11.8,10.9c3.1,0.7,8.1,0.6,10.6-1.6c2.8-2.4,0.5-5.9-2.1-7.4
							c-5.6-3.1-13.8-2.8-19.9-2.6c-0.5,0-0.6,0.8-0.1,0.9c4.3,0.9,8.7,1.3,13.1,2.1c1.6,0.3,3.2,0.5,4.6,1.1c3,1.2,4.3,4.2,0.6,5.1
							c-8.2,2-12.8-3.7-17.9-9C47.3,35.2,46.6,35.7,46.9,36.1L46.9,36.1z"/>
					</g>
				</g>
			</g>
		</g>
		<g>
			<g>
				<g>
					<path class="st12" d="M39.9,29.3c-0.6-3.6,0.2-9-3.6-11c-2.6-1.4-7.4-1.7-8.2,2C26.9,25.6,36.5,27.9,39.9,29.3L39.9,29.3z"/>
				</g>
			</g>
			<g>
				<g>
					<g>
						<path class="st7" d="M40.3,29.3c-0.2-3.8,0.8-8.8-2.7-11.5c-2.5-1.9-7.2-2.4-9.5,0.1c-2.4,2.7-0.9,6.1,1.6,8
							c2.8,2.1,6.7,3.2,10.1,3.8c0.5,0.1,0.8-0.5,0.3-0.8c-2.6-1.8-12.5-4.2-10.8-8.7c1.1-3.1,6.2-1.7,7.8,0.3
							c1.9,2.4,1.7,6.1,2.4,9C39.6,29.9,40.4,29.8,40.3,29.3L40.3,29.3z"/>
					</g>
				</g>
			</g>
		</g>
		<g>
			<g>
				<g>
					<path class="st12" d="M45.4,26.6c3.5,1.4,7.8-0.5,11.3-1.1c2.9-0.6,5-2,2.6-5c-2.1-2.6-6.1-3.3-8.5-0.8
						C48.7,21.8,48.4,25.6,45.4,26.6L45.4,26.6z"/>
				</g>
			</g>
			<g>
				<g>
					<g>
						<path class="st7" d="M45.2,27c3.9,1.8,8.6,0.4,12.5-0.7c3-0.8,4.7-3.1,2.8-6c-1.8-2.7-5.6-4.1-8.6-2.6c-1.6,0.7-2.6,2-3.4,3.5
							c-1,2-1.9,3.3-3.6,4.8c-0.5,0.4-0.1,1.4,0.6,1.4c4.8-0.4,3.9-8,8.8-8.2c1.6-0.1,4.1,0.8,4.7,2.5c0.9,2.5-1.8,2.5-3.3,2.9
							c-3.3,0.8-6.6,2.2-10.1,1.5C45,26.1,44.6,26.8,45.2,27L45.2,27z"/>
					</g>
				</g>
			</g>
		</g>
	</g>
	<g>
		<g>
			<g>
				<g>
					<path class="st3" d="M64.7,15.9C62.9,25,54.8,32.1,57.6,42c2.4,8.5,9.9,14.3,16.8,19.2c17,12.3,36.8,22.2,58.4,20.1
						c4.8-0.5,9.9-1.4,13.5-5c4-4.2,6.3-9.9,8.6-15.2L64.7,15.9z"/>
				</g>
			</g>
			<g>
				<g>
					<g>
						<path class="st7" d="M64.2,15.8c-4.5,11-12.4,20.4-5.5,32.2C65.4,59.6,80.5,68.1,92,73.9c13,6.6,27.5,10.7,42.2,8.8
							c12.5-1.6,17.8-10,21.5-21.4c0.3-1.1-1.3-1.7-1.8-0.8c-2.6,4.8-4.6,11-8.8,14.6c-5.8,5.1-15.1,5.1-22.5,4.6
							c-12.4-0.9-24.3-5.5-35-11.7c-9.2-5.3-21-12.1-26.5-21.6c-6.6-11.3,2.6-19.8,4-30.7C65.2,15.3,64.4,15.3,64.2,15.8L64.2,15.8z
							"/>
					</g>
				</g>
			</g>
		</g>
		<g>
			<g>
				<g>
					<path class="st4" d="M132.6,24.5c-7.1-4.8-14.3-9.7-22.5-12.4c-8.8-2.9-18.4-3.5-27.5-3.3c-6.3,0.2-12.7,1.9-16.5,7.2
						c-4.5,6.3-4.1,14.7-0.5,21.3c3.7,6.9,10.4,11.5,16.8,15.6c7.3,4.7,14.8,9,22.9,12.3c8.4,3.4,17.3,5.6,26.4,6.1
						c3.8,0.2,8.1,0.3,11.7-0.9c3.5-1.2,6.2-3.7,8.6-6.4c2.9-3.3,5-7,4.5-11.5c-0.6-4.4-3.2-8.1-5.9-11.5
						c-6.1-7.3-13.5-13.4-21.3-18.6L132.6,24.5z"/>
				</g>
			</g>
			<g>
				<g>
					<g>
						<path class="st7" d="M132.9,24c-11.2-8.3-22-14.3-36.1-16c-8.7-1-20.4-2.1-28,3.3c-7.6,5.4-9.2,15.7-6,24
							c3.8,9.9,13.2,15.8,21.8,21.1c16.1,9.9,49.6,27.1,66.6,10.8c17.4-16.6-5.9-38.1-21.8-45.4c-0.7-0.3-1.6,0.6-0.9,1.2
							C139,33,170,54.4,145,67.9c-8.3,4.5-21.3,1.4-29.7-1c-9.8-2.7-18.8-7.2-27.4-12.4c-7.1-4.3-14.7-8.7-19.4-15.7
							C60.5,27,65.2,12.5,80.1,10.6c19.6-2.5,36,4.4,52.2,14.5C133,25.5,133.5,24.5,132.9,24L132.9,24z"/>
					</g>
				</g>
			</g>
		</g>
		<g>
			<g>
				<g>
					<path class="st12" d="M99.4,27.1c-4.7-2.3-9.3-5-14.3-6.5c-2.5-0.8-11-1.6-9.9,3.4c0.7,3.3,7,3.2,9.5,3.4
						C89.6,27.9,94.7,29,99.4,27.1L99.4,27.1z"/>
				</g>
			</g>
			<g>
				<g>
					<g>
						<path class="st7" d="M99.7,26.6c-5.4-2.9-11.1-6.9-17.4-7.5c-2.9-0.3-7.5-0.1-8.2,3.5c-0.8,4,3.6,5.3,6.6,5.7
							c6.2,0.8,13.1,2.1,18.9-0.7c0.5-0.2,0.1-0.9-0.4-0.8c-4.9,1-9.6,0.1-14.6-0.3c-1.5-0.1-12.6-1.3-7.1-4.8
							c1.8-1.1,5.3-0.4,7.2,0.1c4.9,1.3,9.6,4,14.2,6C99.8,28,100.5,27,99.7,26.6L99.7,26.6z"/>
					</g>
				</g>
			</g>
		</g>
		<g>
			<g>
				<g>
					<path class="st12" d="M102.9,35c-2.1,1.7-4.7,2.7-7.1,3.8c-1.9,0.8-5,1.7-6,3.7c-1.6,3.2,2.8,6.2,5.6,6
						C100.9,48.2,102.2,39,102.9,35L102.9,35z"/>
				</g>
			</g>
			<g>
				<g>
					<g>
						<path class="st7" d="M102.6,34.3c-2.5,1.7-5.4,2.7-8.2,3.9c-1.8,0.7-3.9,1.5-5.1,3.2c-2.5,3.3,0.7,7.1,4.1,8
							c3.5,1,6.3-1.1,7.8-4c0.9-1.8,1.5-3.7,1.9-5.7c0.3-1.4,0.9-3.4,0.5-4.8c-0.2-0.5-0.8-0.5-1.1-0.1c-1.2,1.6-1.3,4.6-1.9,6.4
							c-0.8,2.4-2.1,6.1-5.1,6.4c-1.6,0.1-3.9-1-4.6-2.5c-1.2-2.7,2.3-3.9,4.1-4.6c3-1.3,5.9-2.8,8.5-4.8
							C104.1,35,103.3,33.9,102.6,34.3L102.6,34.3z"/>
					</g>
				</g>
			</g>
		</g>
		<g>
			<g>
				<g>
					<path class="st12" d="M114.4,45.5c1.6,4.6,1.9,10,6.2,13.1c2.1,1.5,9.7,5.1,11.6,1.8C135.4,54.9,117.2,46.9,114.4,45.5
						L114.4,45.5z"/>
				</g>
			</g>
			<g>
				<g>
					<g>
						<path class="st7" d="M114,45.6c1.7,6.4,2.2,12.5,8.8,15.5c3,1.4,10,3.6,10.9-1.5c0.7-3.9-4.2-7.1-6.9-8.8
							c-3.8-2.4-8-4.4-12.2-5.8c-0.5-0.2-0.7,0.5-0.3,0.8c5.1,3.7,11.8,5.7,16,10.7c1.3,1.5,2.2,3.5-0.6,4c-2.1,0.4-5.1-1.1-6.9-2.1
							c-5-2.7-5.8-8.3-7.8-13.1C114.6,44.9,113.9,45.1,114,45.6L114,45.6z"/>
					</g>
				</g>
			</g>
		</g>
		<g>
			<g>
				<g>
					<path class="st12" d="M113.7,31.8c0.9-3.8,3.1-8,1.3-10.9c-0.9-1.4-5.1-5-8.1-2.6C102,22.2,112.3,30.4,113.7,31.8L113.7,31.8z"
						/>
				</g>
			</g>
			<g>
				<g>
					<g>
						<path class="st7" d="M114.1,31.9c1.4-4,4.5-9.1,0.8-12.8c-2.5-2.5-6.9-4.2-9.6-1c-4.1,5,4.3,11.8,8.1,14.1
							c0.4,0.2,0.8-0.2,0.6-0.6c-2.2-3.3-6.2-5.8-7.2-9.7c-0.3-1.2,0-2.4,1.2-3c1.8-0.9,4.1,0.6,5.3,1.8c2.7,2.9,0.5,7.6-0.1,11
							C113.2,32.2,114,32.5,114.1,31.9L114.1,31.9z"/>
					</g>
				</g>
			</g>
		</g>
		<g>
			<g>
				<g>
					<path class="st12" d="M118.7,38.3c2.4,2.3,6.3,2.2,9.3,2.8c2.7,0.6,6.7,1.9,6-2.5c-0.5-3.1-3.3-5.7-6.5-5.2
						C124.2,34,122.3,38.5,118.7,38.3L118.7,38.3z"/>
				</g>
			</g>
			<g>
				<g>
					<g>
						<path class="st7" d="M118.4,38.6c2.8,3,7.3,3.1,11.1,3.9c2.5,0.5,5.4,0.5,5.7-2.7c0.3-3.6-2.7-7.1-6.3-7.4
							c-1.9-0.2-3.4,0.6-4.8,1.7c-1.9,1.4-3.3,2.6-5.5,3.4c-0.7,0.3-0.8,1.3,0,1.5c1.7,0.5,3.3-0.4,4.6-1.5c2.8-2.2,6.5-5.1,9.2-0.7
							c1.2,1.9,0.9,4.1-1.7,3.8c-0.9-0.1-1.8-0.4-2.7-0.5c-3-0.5-6.3-0.5-9-2.2C118.5,37.6,118.1,38.3,118.4,38.6L118.4,38.6z"/>
					</g>
				</g>
			</g>
		</g>
	</g>
</g>
</svg>
