<?xml version="1.0" encoding="utf-8"?>
<!-- Generator: Adobe Illustrator 19.1.0, SVG Export Plug-In . SVG Version: 6.00 Build 0)  -->
<svg version="1.1" id="_x2018_ëîé_x5F_1" xmlns="http://www.w3.org/2000/svg" xmlns:xlink="http://www.w3.org/1999/xlink"
	 x="0px" y="0px" viewBox="0 0 1418.5 650.4" style="enable-background:new 0 0 1418.5 650.4;" xml:space="preserve">
<style type="text/css">
	.st0{fill-rule:evenodd;clip-rule:evenodd;fill:#DB8B2A;}
	.st1{fill-rule:evenodd;clip-rule:evenodd;fill:#E3E82D;}
	.st2{fill-rule:evenodd;clip-rule:evenodd;fill:#F3C6EF;}
	.st3{fill-rule:evenodd;clip-rule:evenodd;fill:#FDE7FC;}
	.st4{fill-rule:evenodd;clip-rule:evenodd;fill:#A55669;}
	.st5{fill-rule:evenodd;clip-rule:evenodd;fill:#8E3A4F;}
	.st6{fill-rule:evenodd;clip-rule:evenodd;fill:#57271B;}
	.st7{fill-rule:evenodd;clip-rule:evenodd;fill:#7F3C22;}
	.st8{fill-rule:evenodd;clip-rule:evenodd;fill:#FFD140;}
	.st9{fill-rule:evenodd;clip-rule:evenodd;fill:#DB150C;}
	.st10{fill-rule:evenodd;clip-rule:evenodd;fill:#EF442A;}
	.st11{fill-rule:evenodd;clip-rule:evenodd;fill:#B02018;}
	.st12{fill-rule:evenodd;clip-rule:evenodd;fill:#646614;}
	.st13{fill-rule:evenodd;clip-rule:evenodd;fill:#FFFFFF;}
	.st14{fill:#FFFFFF;}
</style>
<g>
	<path class="st12" d="M29,520.9c-5.6-11.9-12.3-29.1-16.6-40.3C-13.1,415.2,3,350.2,40,295c36.3-54.1,92.7-98.8,148.2-124.9
		c56-26.3,118.8-39.7,184-44.3c55.5-4,112.8-1.1,165.2,8.1c28.9,5.1,49.1,22.7,62.6,44.7c18.6,30.5,27.4,77,31.1,99.7
		c4.3,26.6,2.9,42.6,0.1,58.7c-5.7,32.7-18.7,55.9-37.5,84.1c-42.6,64-124.3,105.3-192.9,150c-90.4,58.9-235,86.2-323.1,15.3
		C56,568.9,42.7,550,29,520.9L29,520.9z"/>
	<path class="st1" d="M195.1,178.7C88.2,229.4-21.9,352.2,26.3,477.2c51.9,134.5,251.3,93.5,354.4,35.6
		c106.7-60,233.6-158.8,220-293.6c-3.9-38.3-35.5-69.4-66.7-75.6c-50.7-10-106.7-11.9-160.6-8.1
		C310.2,139.9,249.3,152.9,195.1,178.7L195.1,178.7z"/>
	<path class="st13" d="M305.5,455.1c15.9-12,32-34.3,40.8-53.2c8.8-19,10.2-34.7-3.5-33.6C314.6,370.4,305,412.9,305.5,455.1
		L305.5,455.1z M269.7,462.5c-20-22.3-26.1-49.6-24-72.1c2.1-22.5,12.5-40.3,25.4-43.4C295.8,341.1,302.6,414.6,269.7,462.5
		L269.7,462.5z M235.6,467.6c-0.8-13.5-5.7-33.1-13-47.6c-7.4-14.6-17.2-24.1-27.8-17.3C166.3,420.6,198.5,464.7,235.6,467.6
		L235.6,467.6z M453.2,312.4c-20.8,8.5-46.4,21.5-63,34.1c-16.6,12.7-24.3,25.1-9.4,32.7C404.9,391.4,442.3,341.6,453.2,312.4
		L453.2,312.4z M436.1,278.1c-25.7,2.5-58.5,9.7-83.5,20.1c-25,10.4-42.1,23.9-36.5,39.1C325.3,362.3,398.9,324.7,436.1,278.1
		L436.1,278.1z M155,330c23.5-0.9,41.3,4.7,52.2,12.5c10.9,7.8,14.8,18,10.8,26.5C203.9,398.3,158.8,357.2,155,330L155,330z
		 M421.3,248.5c-23.6,11.8-55.1,23.3-81.3,27.6c-26.3,4.3-47.3,1.3-50.1-16C285.9,236.5,366.5,227.5,421.3,248.5L421.3,248.5z
		 M164.1,300.6c22.4,12.5,51.7,22.2,75.2,24.9c23.6,2.7,41.6-1.7,41.5-17.5C280.7,282.6,228.2,277.9,164.1,300.6L164.1,300.6z
		 M173.6,270.4c18.1,2.1,43.3,0.9,63.2-3.9c19.9-4.8,34.4-13.2,31.1-25.4C262.3,220.9,208,240.2,173.6,270.4L173.6,270.4z"/>
</g>
<g>
	<path class="st12" d="M457.1,130.3c6-11.7,15.5-27.5,21.7-37.8c36.1-60.2,97.4-87.2,163.7-91.8c65-4.5,134.8,12.8,189.5,40.7
		c55.1,28.2,104.1,69.6,147.7,118.3c37.1,41.4,70,88.5,94.8,135.5c13.7,26,12.1,52.8,3,76.8c-12.7,33.4-46.6,73-62.3,89.8
		c-18.4,19.7-28.6,26.6-40.7,33.8c-28.6,16.9-56.8,16-90.6,18.4c-76.7,5.5-160.3-24.8-230.3-54.8
		c-99.2-42.4-220.4-137.4-218.3-250.5C435.7,181,442.5,158.9,457.1,130.3L457.1,130.3z"/>
	<path class="st1" d="M829.4,52C723.8-1.4,559.3-13.2,490,101.4C415.5,224.7,570,357.3,679,403.3c112.8,47.6,268.6,87.4,366.9-5.9
		c27.9-26.5,33.2-70.5,18.9-99c-23.2-46.2-55.9-91.7-92-131.9C930.5,119.3,883,79.1,829.4,52L829.4,52z"/>
	<path class="st13" d="M678.5,308.6c19.2,5.2,46.7,4.3,67.1-0.3c20.4-4.7,33.7-13.2,24.4-23.4C751,263.9,711.5,282.4,678.5,308.6
		L678.5,308.6z M650.7,284.8c5.3-29.5,23.2-51,42.3-63.2c19.1-12.1,39.5-14.8,49.9-6.4C762.6,231.1,708.7,281.5,650.7,284.8
		L650.7,284.8z M625.8,261c10.2-8.9,22.7-24.7,29.7-39.5c7-14.7,8.5-28.3-3.3-32.6C620.5,177.5,605.4,229.9,625.8,261L625.8,261z
		 M881.7,338c-19.5-11.2-45.4-23.5-65.6-28.9c-20.2-5.4-34.7-3.9-31.6,12.6C789.6,348.2,852,347.3,881.7,338L881.7,338z
		 M898.3,303.4c-17.7-18.8-43.5-40.3-67-53.7c-23.5-13.4-44.7-18.7-53.2-4.9C764,267.4,838.8,302.6,898.3,303.4L898.3,303.4z
		 M685.2,113.1c15.1,18.1,21.6,35.5,22.1,48.9c0.5,13.4-5.2,22.8-14.3,24.7C661.2,193.5,666,132.7,685.2,113.1L685.2,113.1z
		 M912.7,273.6c-23.8-11.5-52.2-29.2-71.7-47.4c-19.5-18.1-30-36.6-18-49.4C839.3,159.2,895.8,217.4,912.7,273.6L912.7,273.6z
		 M714,102.2c3.9,25.4,14.1,54.4,26.4,74.7c12.3,20.3,26.8,31.8,39.2,22.1C799.6,183.4,771.2,139,714,102.2L714,102.2z M743.7,91.2
		c9.4,15.6,25.8,34.8,41.8,47.5c16,12.8,31.5,19.1,39.1,9C837.2,131,788.6,99.9,743.7,91.2L743.7,91.2z"/>
</g>
<g>
	<path class="st12" d="M792.9,513.1c-3.5-22.4-6.3-43.3-2.7-63.3c6.8-37.1,24.3-72.5,56.5-115.6c47.8-64,124.8-137.7,207.8-147.7
		c102.1-12.3,182.5,17.2,275.7,80.4c37.8,25.6,84.9,63.1,87.9,116.9c0.8,14.3-0.3,51.2-4.5,78.2c-3.6,23.3-22.8,51.1-43,72.5
		c-56.8,60.2-159.1,64.1-250.8,86.9c-66.5,16.6-133.4,32.3-193.3,28.5c-48.2-3.1-93.9-19.9-112.7-62
		C802.6,562.6,798.3,547.3,792.9,513.1L792.9,513.1z"/>
	<path class="st1" d="M1057.6,199.4c-77.6,9.2-149.1,79.3-193.7,139.8c-56.3,76.4-81.5,146.8-32.5,206
		c23.6,28.6,69.5,42.5,120.9,45.1c56.2,2.9,120-14.5,181.4-28.7c49.8-11.5,98.6-19.3,139-34.1c44.7-16.4,80.5-38.3,101.9-70.5
		c60.7-91.3-8.2-146.2-57.5-180C1229.3,216.5,1153.6,188,1057.6,199.4L1057.6,199.4z"/>
	<path class="st13" d="M1068,503.9c17.5-5.7,38.3-20.9,51.7-35.6c13.4-14.7,19.4-28.9,7.1-32.6C1101.6,428,1080.4,464.4,1068,503.9
		L1068,503.9z M1034.5,498.5c-10.7-27.7-7.7-55.3,1-75.7c8.7-20.3,23.1-33.3,35.3-31.7C1094.1,394.1,1077.7,465.1,1034.5,498.5
		L1034.5,498.5z M1003.3,491.4c3.4-12.8,5.1-32.8,3.1-49c-2-16.1-7.6-28.4-19-25.8C957.2,423.6,971.9,475.9,1003.3,491.4
		L1003.3,491.4z M1240,421.7c-20.7,0.8-46.9,4-65.3,10.1c-18.3,6.1-28.8,15-18.1,27.3C1173.8,478.8,1221.6,445.2,1240,421.7
		L1240,421.7z M1235.4,383.7c-23.1-6.5-53.9-11.1-78.8-10.1c-24.9,1.1-44,7.8-43.7,23.9C1113.4,424.1,1188.9,414.4,1235.4,383.7
		L1235.4,383.7z M974.9,335.1c20.8,7.3,34.5,18.6,41.6,29.7c7.1,11.1,7.4,21.9,1.3,28.5C996.7,415.8,969.9,361.8,974.9,335.1
		L974.9,335.1z M1231.5,351c-24.1,2.8-55.1,2.8-79.3-2.3c-24.2-5.1-41.6-15.1-38.8-32.3C1117.3,292.9,1190.3,312.4,1231.5,351
		L1231.5,351z M991.7,310.8c15.8,19.4,38.2,38.6,58,49.2c19.7,10.6,36.7,12.8,41.4-2C1098.8,334.3,1054.5,311.7,991.7,310.8
		L991.7,310.8z M1009.2,285.8c15.1,8.2,37.5,15.8,56.2,18.2c18.8,2.4,34-0.4,34.8-13C1101.5,270.2,1048.3,269.5,1009.2,285.8
		L1009.2,285.8z"/>
</g>
</svg>
