<?xml version="1.0" encoding="utf-8"?>
<!-- Generator: Adobe Illustrator 19.1.0, SVG Export Plug-In . SVG Version: 6.00 Build 0)  -->
<svg version="1.1" id="Layer_1" xmlns="http://www.w3.org/2000/svg" xmlns:xlink="http://www.w3.org/1999/xlink" x="0px" y="0px"
	 viewBox="0 0 226.3 103" style="enable-background:new 0 0 226.3 103;" xml:space="preserve">
<style type="text/css">
	.st0{fill:#97DD24;}
	.st1{fill:#E05C46;}
	.st2{fill:#FAB239;}
	.st3{fill:#8BC53F;}
	.st4{fill:#CCEF89;}
	.st5{fill:#FECF83;}
	.st6{fill:#FE6600;}
	.st7{fill:#892F64;}
	.st8{fill:#FFFFFF;}
	.st9{fill:#E04B2C;}
	.st10{fill:#6E2F8C;}
	.st11{fill:#FDC400;}
	.st12{fill:#E5FCBB;}
	.st13{fill:#FFEFDC;}
	.st14{fill:#F48371;}
	.st15{fill:#FF9300;}
	.st16{fill:#FFAD4A;}
	.st17{fill:#F7D5EE;}
	.st18{fill:#AF6D9B;}
	.st19{fill:#E2AA59;}
</style>
<g>
	<g>
		<g>
			<g>
				<g>
					<path class="st12" d="M145.7,50.5c-7.7,0.8-15.5,1.3-23.2,1.8c-8.5,0.5-17.1,0.9-25.6,1.1c-7.1,0.1-14.4,0.4-21.5-0.5
						c16-0.6,32-4.5,47.7-7.7c6-1.2,12-2.6,17.9-4.1c10.4-2.6,20.7-5.7,30.6-9.7c3.9-1.6,7.8-3.2,11.6-5.1c1.7-0.8,3.5-1.7,5.2-2.5
						c8.4-4.1,16.8-8,26-9.8l3,0.3c5.7,1.6,5.8,11.2,6.6,16c-10.6,4.8-21.6,8.8-32.8,12c-1.6,0.5-3.3,0.9-5,1.3
						C172.9,47.1,159.4,49.1,145.7,50.5z"/>
				</g>
				<g>
					<path class="st0" d="M171.6,31.4c-10,3.9-20.2,7-30.6,9.7c-5.9,1.5-11.9,2.8-17.9,4.1c-15.6,3.2-31.7,7.1-47.7,7.7
						c7.1,0.8,14.4,0.6,21.5,0.5c8.5-0.2,17.1-0.6,25.6-1.1c7.7-0.5,15.5-1,23.2-1.8c13.6-1.3,27.2-3.4,40.5-6.7
						c1.7-0.4,3.3-0.9,5-1.3c-0.5,0.6-1,1.3-1.4,2C185.8,51.1,186,59.2,179,64c-6.3,4.3-14.3,4.5-21.7,5.4c-7.9,0.9-14.7,3.1-20,9.3
						c-4.5,5.3-7.8,11.4-13.6,15.5c-10.8,7.8-26.2,9.7-38.1,3c-3.4-1.9-6.5-4.4-10.1-6c-3.9-1.7-8-2.2-12.2-2.4
						c-8.3-0.4-17.2-0.5-24.5-5.1c-6.2-3.9-9.3-10.6-13.4-16.4c-2.3-3.2-5-5.9-8.8-7.1c-3.2-1-6.5-1.3-9.4-3
						C1.7,54-0.5,48.3,4.8,43.6c1.4-1.2,3.1-1.9,4.6-2.9c1.8-1.2,3.5-2.6,5.2-3.9c3.4-2.6,6.9-4.9,10.7-7c3.1-1.7,6.7-2.9,9-5.8
						c2.1-2.7,3.1-6,5.2-8.8c4.3-5.5,10.6-8.6,16.9-11.1c3.8-1.5,7.8-2.8,11.9-2.1c3.8,0.6,7.2,2.6,10.2,4.8
						c3.1,2.2,6.4,5.1,10.3,5.6c3.7,0.5,7.4-1.4,11-1.6c8.3-0.5,14.6,3.2,21,7.9c3,2.2,6.6,3.9,10.3,2.6c3.1-1.1,5.2-3.6,8.6-4
						c8.1-1.1,15.4,4.3,22.9,6.2c8.3,2.2,17.3,2.1,25.6,0.1l0.2,0.3c-1.7,0.8-3.5,1.7-5.2,2.5C179.4,28.2,175.6,29.9,171.6,31.4z"/>
				</g>
			</g>
		</g>
	</g>
	<g>
		<g>
			<g>
				<g>
					<path class="st7" d="M75.4,53.2c24,0.5,49-5.9,72.1-11.9c24-6.3,46.6-17.3,69.4-26.7c0.9-0.4,0.8-1.7-0.2-1.7
						c-10.1-0.4-19.2,4.3-28,8.5c-12.1,5.8-24.2,10.9-37.1,14.8c-24.6,7.5-50.6,13-76.2,16.2C75,52.5,74.9,53.2,75.4,53.2L75.4,53.2
						z"/>
				</g>
			</g>
		</g>
		<g>
			<g>
				<g>
					<path class="st7" d="M216.5,15.4c2.2,2.3,3.5,4.1,4.2,7.4c0.6,2.7,0.4,5.9,1.6,8.4c0.7,1.4,3.3,1.1,3.5-0.5
						c0.7-4.8-1.2-18.6-8.4-17.7C216.3,13.2,215.6,14.5,216.5,15.4L216.5,15.4z"/>
				</g>
			</g>
		</g>
		<g>
			<g>
				<g>
					<path class="st7" d="M75.4,53c11.9,2.1,24.2,1.3,36.2,1.1c13.7-0.3,27.5-1.1,41.1-2.4c24.7-2.5,50.5-8,72.6-19.6
						c2-1.1,0.6-4.6-1.6-3.8C199,37.6,175.3,45,148.9,48.2c-24.3,3-49.1,4.7-73.5,4.5C75.2,52.7,75.2,53,75.4,53L75.4,53z"/>
				</g>
			</g>
		</g>
		<g>
			<g>
				<g>
					<path class="st7" d="M188.3,23.3c-11.7,0.7-22.1-0.1-33-4.5c-5.4-2.2-11.2-4.8-17.1-3.1c-2.1,0.6-3.7,2.3-5.7,2.9
						c-7.2,2.3-10.1-1.8-15.2-4.9c-5.3-3.2-11.2-5.3-17.5-4.8c-6,0.5-10.2,2.4-16.5-1.2c-3.4-1.9-6.1-4.6-9.8-6.1
						C67.5-1,61.9-0.1,56,2.2c-5.7,2.2-11.5,5-15.8,9.4c-2.1,2.1-3.2,4.5-4.9,7c-4.2,6.2-7.8,7.6-13.6,11.1
						c-6,3.6-13.1,7.9-18.1,12.6C0.3,45.2-1,49,0.8,53.1c2.2,5,7.3,6.5,12.1,8.1c11.1,3.7,13.3,13.5,21,21
						c12.5,12,31.6,5.5,45.8,13.6c11.9,6.8,23.4,9.9,36.8,4.5c7.2-2.9,12.2-7.5,16.9-13.6c4.7-6,8.5-11.4,16-13.9
						c4.6-1.6,9.6-1.7,14.4-2.3c7-0.9,14.4-2.2,19.4-7.7c5.7-6.5,5-19.5,14.4-22.3c1.1-0.3,1-2.3-0.3-2.1
						c-10.5,0.8-10.6,11.8-14.8,19.3c-8,14.3-29.5,7.3-41.7,15.9c-5,3.5-8,8.9-11.9,13.5c-6.4,7.5-15.4,12.2-25.3,12.6
						c-15,0.7-25.4-11.3-40.2-12.5c-10-0.8-20.3-0.7-27.8-8.5c-4.8-5-7.2-12.2-12.5-16.8C17.6,57.2-2.5,56,8.1,43.7
						c4.2-4.9,12.5-9.2,18.3-12.3c5.3-2.9,8.1-4.4,11.5-9.4c5.7-8.4,11.9-14.5,22.1-17.2c12.7-3.4,15.6,4.5,25.3,8.4
						c4.6,1.8,8,0.5,12.6-0.2c12.3-1.8,17,6.6,27.1,9.9c4.9,1.6,7.3-0.5,11.6-2.2c9.8-3.9,18.2,2.9,27.6,4.8
						c8.2,1.7,16.5,1.1,24.3-1.7C188.7,23.8,188.7,23.2,188.3,23.3L188.3,23.3z"/>
				</g>
			</g>
		</g>
		<g>
			<g>
				<g>
					<path class="st7" d="M62.8,27c11.5,7,25.8,9.8,39,11.4c7.6,0.9,15.2,1,22.7,2.3c6.1,1.1,11,2.6,17.1,1.1
						c0.9-0.2,0.7-1.6-0.2-1.6c-12-0.5-24.2-3.1-36.3-4.1c-14.8-1.2-27.9-5.8-42-10C62.7,26,62.4,26.7,62.8,27L62.8,27z"/>
				</g>
			</g>
		</g>
		<g>
			<g>
				<g>
					<path class="st7" d="M96.8,83.2c8.1-5.9,16.6-11,25.2-16.1c8.9-5.2,19-9.7,26.4-16.9c0.8-0.8,0-2.3-1.1-1.9
						C137,52,128.1,59.6,119.1,65.5c-8,5.2-16.1,10.1-22.9,16.9C95.8,82.8,96.3,83.6,96.8,83.2L96.8,83.2z"/>
				</g>
			</g>
		</g>
		<g>
			<g>
				<g>
					<path class="st7" d="M55.1,68.2c15.9-4.3,33.5-5.9,48.3-13.3c1.1-0.6,0.3-2.4-0.8-2C86.8,58.2,70,60.4,54.6,66.6
						C53.7,67,54,68.5,55.1,68.2L55.1,68.2z"/>
				</g>
			</g>
		</g>
		<g>
			<g>
				<g>
					<path class="st7" d="M23.9,49c20.7,2,40.4,6.6,61.2,2.9c0.5-0.1,0.4-0.9-0.1-0.8c-20.3,2.3-40.8-3-61.1-3.8
						C22.8,47.1,22.8,48.9,23.9,49L23.9,49z"/>
				</g>
			</g>
		</g>
		<g>
			<g>
				<g>
					<path class="st7" d="M129.7,29.7c13.3,4.1,32,8.7,45.1,1.6c1-0.6,0.3-2.1-0.8-1.9c-15.1,3.4-28.9,2-44-0.8
						C129.3,28.5,129,29.5,129.7,29.7L129.7,29.7z"/>
				</g>
			</g>
		</g>
	</g>
</g>
</svg>
