<?xml version="1.0" encoding="utf-8"?>
<!-- Generator: Adobe Illustrator 19.1.0, SVG Export Plug-In . SVG Version: 6.00 Build 0)  -->
<svg version="1.1" id="_x2018_ëîé_x5F_1" xmlns="http://www.w3.org/2000/svg" xmlns:xlink="http://www.w3.org/1999/xlink"
	 x="0px" y="0px" viewBox="0 0 2034.2 740.6" style="enable-background:new 0 0 2034.2 740.6;" xml:space="preserve">
<style type="text/css">
	.st0{fill-rule:evenodd;clip-rule:evenodd;fill:#DB8B2A;}
	.st1{fill-rule:evenodd;clip-rule:evenodd;fill:#E3E82D;}
	.st2{fill-rule:evenodd;clip-rule:evenodd;fill:#F3C6EF;}
	.st3{fill-rule:evenodd;clip-rule:evenodd;fill:#FDE7FC;}
	.st4{fill-rule:evenodd;clip-rule:evenodd;fill:#A55669;}
	.st5{fill-rule:evenodd;clip-rule:evenodd;fill:#8E3A4F;}
	.st6{fill-rule:evenodd;clip-rule:evenodd;fill:#57271B;}
	.st7{fill-rule:evenodd;clip-rule:evenodd;fill:#7F3C22;}
	.st8{fill-rule:evenodd;clip-rule:evenodd;fill:#FFD140;}
	.st9{fill-rule:evenodd;clip-rule:evenodd;fill:#DB150C;}
	.st10{fill-rule:evenodd;clip-rule:evenodd;fill:#EF442A;}
	.st11{fill-rule:evenodd;clip-rule:evenodd;fill:#B02018;}
	.st12{fill-rule:evenodd;clip-rule:evenodd;fill:#646614;}
	.st13{fill-rule:evenodd;clip-rule:evenodd;fill:#FFFFFF;}
	.st14{fill:#FFFFFF;}
</style>
<path class="st1" d="M1239.1,58.2c-80.9-1.9-157.7,85.5-246.4,74.3c-97.8-12.3-142.1-82.9-244-81c-79.2,1.5-106.2,70.8-201.1,75.1
	c-76.8,3.5-105.7-29.8-237.8-11.2C167.7,135.5-34.4,276.2,5,361.2c41.6,89.7,315.5-92.7,387.9-51c53.2,30.6-136.3,205.3-24.1,278.1
	c78.1,50.7,267.9-163.1,348.1-149.1c70.6,12.4-33.3,198.7,59.5,259.8c81.6,53.7,258.8-187.7,371.7-176.7
	c86.7,8.5,78,198.8,174.6,216.3c144.2,26.2,173.5-230.5,252.9-246.4c67.8-13.6,126.9,218.5,319.5,163.9
	c108-30.7-90.7-240.7-54-290.3c33-44.6,129.2,37.1,182.8-53c56.3-94.7-132.6-302.9-256.6-312.3C1629.5-9.9,1552.6,136,1472.1,134.8
	C1356.7,132.9,1343.5,60.6,1239.1,58.2L1239.1,58.2z"/>
</svg>
