<?xml version="1.0" encoding="utf-8"?>
<!-- Generator: Adobe Illustrator 19.1.0, SVG Export Plug-In . SVG Version: 6.00 Build 0)  -->
<svg version="1.1" id="_x2018_ëîé_x5F_1" xmlns="http://www.w3.org/2000/svg" xmlns:xlink="http://www.w3.org/1999/xlink"
	 x="0px" y="0px" viewBox="0 0 2029 764.9" style="enable-background:new 0 0 2029 764.9;" xml:space="preserve">
<style type="text/css">
	.st0{fill-rule:evenodd;clip-rule:evenodd;fill:#DB8B2A;}
	.st1{fill-rule:evenodd;clip-rule:evenodd;fill:#E3E82D;}
	.st2{fill-rule:evenodd;clip-rule:evenodd;fill:#F3C6EF;}
	.st3{fill-rule:evenodd;clip-rule:evenodd;fill:#FDE7FC;}
	.st4{fill-rule:evenodd;clip-rule:evenodd;fill:#A55669;}
	.st5{fill-rule:evenodd;clip-rule:evenodd;fill:#8E3A4F;}
	.st6{fill-rule:evenodd;clip-rule:evenodd;fill:#57271B;}
	.st7{fill-rule:evenodd;clip-rule:evenodd;fill:#7F3C22;}
	.st8{fill-rule:evenodd;clip-rule:evenodd;fill:#FFD140;}
	.st9{fill-rule:evenodd;clip-rule:evenodd;fill:#DB150C;}
	.st10{fill-rule:evenodd;clip-rule:evenodd;fill:#EF442A;}
	.st11{fill-rule:evenodd;clip-rule:evenodd;fill:#B02018;}
	.st12{fill-rule:evenodd;clip-rule:evenodd;fill:#646614;}
	.st13{fill-rule:evenodd;clip-rule:evenodd;fill:#FFFFFF;}
	.st14{fill:#FFFFFF;}
</style>
<g>
	<path class="st1" d="M1219.8,89.9c-80.9,3.1-152.2,95-241.4,89.3c-98.4-6.3-146.9-74-248.5-65.9c-78.9,6.3-101.7,77.2-196.1,87.3
		c-76.4,8.2-107.4-23.3-238.1,3.4C155.1,232.6-38,385.4,6.5,467.9c47,87,309.2-111.8,384.1-74.6c54.9,27.2-123.4,213.3-7,279.1
		c81.1,45.8,257.4-179.2,338.3-170.1c71.2,8-21.1,200.4,75.3,255.7c84.8,48.6,246.8-203.2,360.1-199.1
		c87.1,3.2,90,193.6,187.5,205.2c145.6,17.3,159.1-240.7,237.4-261.4c66.8-17.7,140.1,210.4,328.9,144
		c106-37.2-105.2-234.7-71.7-286.5c30.2-46.6,131.2,29.1,179.3-64.1c50.5-97.9-150.9-294.2-275.2-296
		c-138.3-2-206.1,148.4-286.5,152C1341.8,157.3,1324.1,85.9,1219.8,89.9L1219.8,89.9z"/>
	<path class="st1" d="M1906.2,409.5c0.2,1.2-0.6,1.9-1.6,2.2c-0.9,0.3-1.8,0-2.2-0.8c0-0.1-0.2-0.6-0.3-1.1c0-0.6,0.1-1.2,0.8-1.6
		l0,0c0.9-0.7,2.1-0.5,2.8,0.4C1906,408.8,1906.2,409.1,1906.2,409.5L1906.2,409.5z M1936.7,411.1c0.3-0.1,0.7-0.2,1-0.3
		c1.5-0.3,2.8,0.3,3.7,1.6c0.8,1.1,0.9,3.2,0.8,3.9c-0.4,2.2-2.4,4.4-4.8,5.3c-1.9,0.7-3.8,0.7-5.4-0.2c-2.6-1.5-2.2-4.4-1.2-6.2
		C1931.8,413.3,1934.3,411.6,1936.7,411.1L1936.7,411.1z M1657.1,617.4c0.6,1.1,1.2,4,0.2,6.3c-1,2.6-3.5,4.6-4.7,5.3
		c-2.3,1.3-6,2-8.6,1.5c-2-0.4-3.5-1.4-4.5-2.7c-1.8-2.4-1.8-4.9-0.7-7.2c0.9-1.9,3-3.8,5.7-5c2.8-1.3,6.1-1.8,8.1-1.3
		C1654.8,614.7,1656.3,615.8,1657.1,617.4L1657.1,617.4z M1920.2,452.5c-0.5,0.6-1.1,1.2-1.8,1.4c-1,0.4-1.9,0.3-2.7-0.1
		c-0.7-0.3-1.5-0.9-1.9-2.1c-0.3-0.9-0.3-2,0.4-3.1c0.5-0.9,1.8-2,2.8-2.4c2.2-0.9,3.8,0.1,4.5,1.3c0.3,0.5,0.5,1.1,0.4,1.8
		c0,0.6-0.3,1.6-0.9,2.4C1920.8,452,1920.5,452.2,1920.2,452.5L1920.2,452.5z"/>
	<path class="st1" d="M175.9,227c0.3-1.2,1.3-1.5,2.3-1.4c1,0.1,1.7,0.7,1.8,1.6c0,0.1,0,0.6-0.2,1.1c-0.2,0.5-0.6,1.1-1.3,1.2
		l-0.1,0c-1.1,0.3-2.2-0.4-2.5-1.4C175.8,227.7,175.8,227.3,175.9,227L175.9,227z M148.3,214c-0.4,0-0.7,0-1.1-0.1
		c-1.5-0.3-2.5-1.3-2.8-2.8c-0.3-1.3,0.3-3.3,0.7-4c1.2-1.8,3.9-3.2,6.5-3.1c2,0,3.8,0.8,4.9,2.2c1.9,2.4,0.3,4.9-1.2,6.2
		C153.7,213.7,150.7,214.4,148.3,214L148.3,214z M485.2,128.9c-0.1-1.3,0.4-4.1,2.2-6c1.9-2,5-2.9,6.3-3.1c2.6-0.4,6.3,0.4,8.6,1.9
		c1.7,1.1,2.7,2.6,3.2,4.2c0.7,2.9-0.2,5.2-2.1,6.9c-1.6,1.4-4.3,2.4-7.2,2.5c-3.1,0.1-6.3-0.7-8-1.9
		C486.3,132.3,485.4,130.6,485.2,128.9L485.2,128.9z M179.2,181.9c0.7-0.4,1.5-0.6,2.2-0.6c1,0,1.9,0.4,2.5,1.1c0.5,0.6,1,1.4,1,2.7
		c-0.1,0.9-0.5,1.9-1.5,2.7c-0.8,0.6-2.4,1.1-3.4,1.2c-2.4,0-3.5-1.6-3.7-2.9c-0.1-0.6,0-1.2,0.3-1.8c0.2-0.5,0.9-1.3,1.8-1.8
		C178.5,182.1,178.9,182,179.2,181.9L179.2,181.9z"/>
</g>
<path class="st13" d="M1873.8,503.7c-2.1-1.4-4.8-1.2-6.3,0.7c-0.5,0.7-1.3,2-1.4,3.3c-0.3,2.5,1.2,4.1,3.5,5
	c1.7,0.6,3.6-0.5,4.6-2.5C1875.3,508,1875.5,504.8,1873.8,503.7z"/>
<path class="st13" d="M1857.4,482c-1.4-0.9-3-0.5-4.2,0.7c-0.7,0.7-1.3,1.7-1.5,2.6c-0.3,0.8-0.3,1.5-0.2,2.1
	c0.3,1.5,1.4,2.5,2.6,2.8c1.8,0.5,3-0.1,4-1.9c0.8-1.5,0.9-3.2,0.9-3.9C1858.8,483.3,1858.3,482.5,1857.4,482z"/>
<path class="st13" d="M818.2,553.8c-1.4,0.2-2,0.9-2.5,1.5c-0.4,0.7-0.5,1.7-0.3,2.8c0.3,1.3,1.7,2.2,3.1,1.8c1-0.3,1.8-0.3,2.3-1.5
	c0.4-0.8,0.3-1.8,0.2-2.6C820.9,554.6,819.6,553.6,818.2,553.8z"/>
<path class="st13" d="M687.6,211.7c0.5-1.1,0.5-2.4,0.5-2.8c-0.3-1.4-1.6-2.3-3-2.1c-0.6,0.1-1.3,0.4-1.8,1.2
	c-0.3,0.5-0.6,1.5-0.7,1.9c-0.3,1.4,0.6,2.7,2,3C686.2,213.3,687.1,212.6,687.6,211.7z"/>
<path class="st13" d="M828.5,516.9c-1.6-0.3-2.9,0.2-3.9,1.5c-0.7,0.9-1.5,4.6-0.9,7.1c0.4,1.6,1.4,2.3,2.5,2.6c1,0.3,2.1,0,3-0.8
	c0.9-0.7,1.7-2.3,2.1-4c0.4-1.8,0.2-3.6-0.4-4.7C830.4,517.7,829.5,517.1,828.5,516.9z"/>
<path class="st13" d="M382.1,335.8c-1-0.4-2.2-0.6-3.5-0.2c-0.6,0.2-2.1,0.5-3.2,2.5c-0.6,1.1-0.8,2.3-0.6,3.4
	c0.2,2.6,2.4,4.7,5.2,4.7c1.7,0,3.6-0.9,4.6-2.6c0.7-1.2,1-2.8,0.4-4.8C384.4,337.1,383.1,336.2,382.1,335.8z"/>
<path class="st13" d="M670.6,280.9c-2.1-0.1-4,0.7-4.5,3.2c-0.1,0.7-0.1,1.4,0.1,2.2c0.7,2.1,3.1,3.3,5.3,2.6l0.1,0
	c1.5-0.3,2.3-1.4,2.6-2.5c0.3-1.1,0.3-2.2,0.2-2.3C674.1,282.2,672.7,281,670.6,280.9z"/>
<path class="st13" d="M379,290.6c0.3-2.7-0.4-6.5-4.5-7.1c-2.4-0.4-4.9,0.4-6.9,2.2c-2.6,2.3-4.1,6-3.6,8.8c0.2,1,1.4,3.5,2.9,4.5
	c1.7,1.2,3.6,1.3,5.4,0.2c0.4-0.2,0.8-0.5,1.2-0.8C376.2,296.7,378.7,293.3,379,290.6z"/>
<path class="st13" d="M689.6,479.5c-1.5,0.3-2.9,2.3-3,3.7c0,0.6,0.2,1.7,1.9,2.5c1.7,0.9,3.8,0.2,4.6-1.4c0.3-0.6,0.4-1.2,0.4-1.8
	C693,479.9,690.9,479.2,689.6,479.5z"/>
<path class="st13" d="M1670.8,181.8c-2.1-1.4-4.8-1.2-6.3,0.7c-0.5,0.7-1.3,2-1.4,3.3c-0.3,2.5,1.2,4.1,3.5,5
	c1.7,0.6,3.6-0.5,4.6-2.5C1672.4,186.1,1672.6,182.9,1670.8,181.8z"/>
<path class="st13" d="M1650.2,161.4c-0.1-0.8-0.5-1.5-1.2-1.9c-1.2-0.7-2.4-0.4-3.4,0.6c-0.6,0.6-1,1.4-1.3,2.1
	c-0.2,0.7-0.3,1.3-0.2,1.7c0.2,1.2,1.2,2.1,2.1,2.3c1.5,0.4,2.5-0.1,3.3-1.6C1650.2,163.4,1650.3,161.9,1650.2,161.4z"/>
</svg>
