<?xml version="1.0" encoding="utf-8"?>
<!-- Generator: Adobe Illustrator 19.1.0, SVG Export Plug-In . SVG Version: 6.00 Build 0)  -->
<svg version="1.1" id="_x2018_ëîé_x5F_1" xmlns="http://www.w3.org/2000/svg" xmlns:xlink="http://www.w3.org/1999/xlink"
	 x="0px" y="0px" viewBox="0 0 1095.4 547.5" style="enable-background:new 0 0 1095.4 547.5;" xml:space="preserve">
<style type="text/css">
	.st0{fill-rule:evenodd;clip-rule:evenodd;fill:#DB8B2A;}
	.st1{fill-rule:evenodd;clip-rule:evenodd;fill:#E3E82D;}
	.st2{fill-rule:evenodd;clip-rule:evenodd;fill:#F3C6EF;}
	.st3{fill-rule:evenodd;clip-rule:evenodd;fill:#FDE7FC;}
	.st4{fill-rule:evenodd;clip-rule:evenodd;fill:#A55669;}
	.st5{fill-rule:evenodd;clip-rule:evenodd;fill:#8E3A4F;}
	.st6{fill-rule:evenodd;clip-rule:evenodd;fill:#57271B;}
	.st7{fill-rule:evenodd;clip-rule:evenodd;fill:#7F3C22;}
	.st8{fill-rule:evenodd;clip-rule:evenodd;fill:#FFD140;}
	.st9{fill-rule:evenodd;clip-rule:evenodd;fill:#DB150C;}
	.st10{fill-rule:evenodd;clip-rule:evenodd;fill:#EF442A;}
	.st11{fill-rule:evenodd;clip-rule:evenodd;fill:#B02018;}
	.st12{fill-rule:evenodd;clip-rule:evenodd;fill:#646614;}
	.st13{fill-rule:evenodd;clip-rule:evenodd;fill:#FFFFFF;}
	.st14{fill:#FFFFFF;}
</style>
<g>
	<path class="st9" d="M1090.3,320.2l-11.2,81.7c0,0-0.2,0.2-0.6,0.5C1052.9,533.2,751.3,570.1,507,535
		C129.7,480.7,14.7,375.9,1.2,269c-0.6-4.8-1-9.7-1.2-14.5c-0.3-7.4,13.5-104.3,13.5-104.3L1090.3,320.2L1090.3,320.2z"/>
	<path class="st10" d="M682.2,27.3c-424-79.1-684.3,27.6-669.8,146c13.1,106.4,117.3,216.9,511,277.6
		c238.7,36.8,534.9-6,568.4-134.9C1122.3,199,954.3,78,682.2,27.3L682.2,27.3z"/>
	<path class="st11" d="M487.2,244.8c0,0-271.2,14.3-265.4,55.5c2.8,20,37.1,38,95.6,52.1c66.4,15.9,86.7,45.6,192.4,61.2
		c46.4,6.8,87.1,6.1,122.8,6.9c35.4,0.8,68.9-6.6,102.3-0.6c82.4,14.9,150.9-14.2,139.4-47.7c-17.7-51.7-118.4-79.5-202.9-105.9
		c-17.4,42-82.5,75.4-136.2,60.5C486.1,313.1,472.8,282.7,487.2,244.8L487.2,244.8z M441.2,215.8c-52.3-14-82.1-46.2-69.7-68.6
		c16-28.9,94.9-44.3,208.2-10.9C607.5,53,501.3,32.5,426.8,32.8c-48.6,0.2-72.3,9.8-117.5,16.6c-58.4,8.7-129,14.8-182.5,45
		c-50.5,28.6-64.4,77.7-22.4,100.9C192.8,244.2,287.4,210,441.2,215.8L441.2,215.8z M656.2,150.7c-11.5-26.7,30.4-66.1,79.2-69.4
		c51.1-3.5,90.6,13.1,139.4,38.6c30.9,16.2,67.9,29.4,90.8,48.7c52.6,44.4,71.7,107.9,47.7,138.1c-26.5,33.2-81.7,9.4-136.3-19.6
		c-43.7-23.3-96.9-22.1-133.6-44.1c64.1-5.7,78.3-32.6,64-53.5C788.3,161.5,721.3,143.7,656.2,150.7L656.2,150.7z"/>
	<path class="st8" d="M480.3,327.7c-0.8,11-5.4,24.6-12.2,33.9c-6.8,9.3-15.8,14.4-25.4,8.4C428.8,361.1,459.2,333.6,480.3,327.7
		L480.3,327.7z M571,353.1c7.2,6.2,11.2,17.3,10.6,26.3c-0.6,9.1-5.7,16.1-16.7,14.3C550.6,391.4,551.7,361.1,571,353.1L571,353.1z
		 M418.9,283.9c-6.2,11.2-18.4,24-31.2,31.7c-12.8,7.7-26.2,10.2-34.9,1C340,303.2,390.2,283.7,418.9,283.9L418.9,283.9z
		 M635.9,342.8c12.7,6.4,27,17.1,35.5,27c8.4,9.9,11,19.2,0.2,22.9C655.7,398.1,634.8,361.4,635.9,342.8L635.9,342.8z M701.7,325
		c14.1,3.2,36.6,14.8,52.7,26.8c16.1,12,26,24.3,14.8,28.8C746.8,389.8,707.2,337.9,701.7,325L701.7,325z M285.4,173.2
		c-21.4-2.1-49.3-4.6-71.6-5.1c-22.3-0.5-38.9,1.1-37.8,7.2C179.1,191.6,245.9,185,285.4,173.2L285.4,173.2z M306.7,138.4
		c-11.2-8.6-28.6-17.9-43.8-23.4c-15.2-5.5-28.2-7.2-30.8-0.5C226,130.1,277.9,141.7,306.7,138.4L306.7,138.4z M356.2,108.4
		c-8.7-7.9-21.2-17.1-32-23.3c-10.9-6.2-20.1-9.4-22.5-5.2C295.5,90.6,331.1,100.1,356.2,108.4L356.2,108.4z M861.8,238.5
		c22.4,0.5,45.4,5.1,61.7,11.1c16.4,6.1,26.1,13.8,22.2,20.6C937.5,284.4,888.9,260.8,861.8,238.5L861.8,238.5z M417.6,92.1
		c-11-5.5-18.9-11.4-23-16.5c-4.1-5-4.2-9.1,0.4-10.7C401.3,62.7,415.4,77.1,417.6,92.1L417.6,92.1z M843.1,197.9
		c18.2-6.2,37-9.7,51.5-10.1c14.5-0.3,24.8,2.6,26,9.2C923.3,211.6,874.1,206.5,843.1,197.9L843.1,197.9z M498.6,91.6
		c-10.8-7-17.3-13.1-19.9-17.9c-2.7-4.8-1.5-8.2,3-9.8C493.4,59.6,500.7,79,498.6,91.6L498.6,91.6z M811,161.8
		c5-8.3,16.1-15.7,27.2-19.7c11.1-4,22.3-4.6,27.4,0.6C877.2,154.4,841.5,161.5,811,161.8L811,161.8z M746,138.1
		c12.3-2.7,25.9-7.6,34.8-13.2c8.8-5.7,12.9-12.1,6.2-18.2C772.8,93.9,748,125.7,746,138.1L746,138.1z"/>
</g>
</svg>
